<svg width="1440" height="868" viewBox="0 0 1440 868" fill="none" xmlns="http://www.w3.org/2000/svg">
<g opacity="0.2" clip-path="url(#clip0_1057_1415)">
<path d="M-134.179 532.518C-158.231 368.732 -141.098 200.585 66.8711 170.123C274.841 139.661 537.162 489.285 561.214 653.072C585.266 816.858 361.941 732.784 153.971 763.246C-53.9981 793.708 -110.127 696.305 -134.179 532.518Z" fill="white"/>
<path d="M18.5413 460.223C22.8353 459.062 171.225 425.202 171.225 425.202C171.225 425.202 206.338 414.503 218.728 392.947C219.557 391.431 220.056 389.757 220.191 388.035C220.327 386.313 220.096 384.582 219.514 382.956C218.931 381.329 218.011 379.844 216.814 378.598C215.616 377.352 214.168 376.373 212.565 375.725L134.424 343.012C131.75 341.893 129.34 340.229 127.35 338.124C125.359 336.02 123.831 333.522 122.865 330.793C121.899 328.063 121.515 325.162 121.739 322.276C121.963 319.389 122.79 316.582 124.166 314.034C126.783 309.462 131.002 306.019 136.009 304.37C141.017 302.72 146.459 302.98 151.286 305.1L232.617 339.133C232.617 339.133 268.051 326.178 349.354 380.416C349.648 380.612 349.958 380.837 350.274 381.04L351.515 380.5L351.537 380.506C351.537 380.506 414.5 335 456.67 335.773C498.839 336.546 517.7 419.059 500.85 439.28C484 459.5 400.781 482.925 400.781 482.925L399.408 483.521C399.408 483.521 399.263 483.876 398.943 484.531C395.325 491.656 369.582 535.73 269.656 572.291L251.982 580.508C228.606 615.002 181.865 664.267 175.331 671.517C169.943 677.481 151.396 680.446 145.44 675.092C142.574 672.511 140.851 668.898 140.651 665.049C140.451 661.2 141.789 657.428 144.372 654.564C154.825 642.964 166.899 628.191 178.52 613.037C190.147 597.862 201.321 582.307 209.976 569.145C209.976 569.145 214.365 558.891 202.018 559.596L78.9864 630.516C72.2202 634.824 59.86 634.064 55.5187 627.322C51.2383 620.527 54.2933 602.317 61.0594 598.01L171.235 525.519L171.24 525.498C171.336 525.153 172.751 519.695 167.836 517.552L23.5038 570.955C15.9349 573.626 4.95063 563.848 2.27539 556.289C-0.399851 548.729 7.34307 535.083 14.9181 532.389L152.937 478.036C152.971 477.994 152.999 477.947 153.022 477.898C153.585 477.003 153.88 475.966 153.873 474.909C153.865 473.852 153.556 472.819 152.981 471.932C152.406 471.044 151.589 470.339 150.627 469.9C149.664 469.46 148.596 469.305 147.548 469.451C97.5042 476.502 29.661 494.241 24.4169 494.468C14.0828 494.869 8.69308 491.923 6.59802 484.198C4.53656 476.436 10.7855 462.309 18.5413 460.223Z" fill="#FFA072"/>
<path d="M383.502 448.326C383.602 448.064 383.796 447.848 384.046 447.719C384.296 447.591 384.584 447.56 384.856 447.631C384.887 447.637 384.916 447.652 384.937 447.676C388.215 448.724 391.247 450.425 393.848 452.677C396.449 454.93 398.565 457.686 400.068 460.779C404.206 469.855 401.77 479.766 400.781 482.927L399.408 483.524C399.408 483.524 399.263 483.878 398.943 484.533C398.686 484.419 398.482 484.212 398.372 483.953C398.262 483.694 398.255 483.404 398.352 483.14C398.724 482.129 407.273 458.332 384.174 449.764C384.034 449.715 383.906 449.638 383.797 449.539C383.687 449.439 383.599 449.319 383.536 449.185C383.474 449.052 383.438 448.907 383.433 448.759C383.427 448.611 383.451 448.464 383.502 448.326ZM349.321 380.455C349.327 380.433 349.327 380.433 349.354 380.418C349.649 380.615 349.958 380.839 350.274 381.042L351.515 380.502L351.537 380.508C379.051 397.904 374.378 422.142 374.312 422.379C374.283 422.523 374.226 422.66 374.144 422.782C374.062 422.903 373.957 423.008 373.834 423.088C373.711 423.169 373.574 423.225 373.429 423.252C373.285 423.279 373.137 423.278 372.993 423.247C372.849 423.217 372.713 423.158 372.592 423.075C372.471 422.992 372.368 422.885 372.288 422.762C372.209 422.638 372.155 422.5 372.129 422.356C372.104 422.211 372.107 422.063 372.139 421.92C372.33 420.975 376.568 398.566 349.686 381.994C349.559 381.918 349.449 381.818 349.362 381.699C349.274 381.58 349.212 381.445 349.178 381.301C349.144 381.158 349.139 381.009 349.164 380.864C349.188 380.718 349.242 380.58 349.321 380.455ZM195.143 472.487C244.686 486.136 272.553 544.246 272.864 544.907C272.99 545.176 273.004 545.483 272.903 545.763C272.802 546.042 272.594 546.269 272.326 546.395C272.057 546.521 271.749 546.535 271.469 546.435C271.19 546.334 270.962 546.126 270.836 545.858C270.491 545.124 235.649 472.524 175.021 471.88C174.724 471.877 174.44 471.756 174.232 471.545C174.025 471.333 173.91 471.047 173.913 470.75C173.916 470.454 174.037 470.17 174.249 469.963C174.461 469.755 174.747 469.64 175.044 469.643C181.839 469.718 188.595 470.673 195.143 472.487ZM344.169 433.561C344.372 433.616 344.556 433.729 344.698 433.884C344.84 434.039 344.936 434.232 344.973 434.439C345.011 434.646 344.989 434.859 344.911 435.055C344.832 435.25 344.7 435.419 344.529 435.543C343.77 436.095 267.88 490.247 209.207 441.624C208.978 441.435 208.834 441.162 208.807 440.867C208.779 440.571 208.87 440.277 209.06 440.048C209.25 439.82 209.523 439.676 209.819 439.649C210.114 439.621 210.409 439.712 210.638 439.902C267.979 487.441 342.463 434.278 343.211 433.734C343.348 433.635 343.504 433.568 343.67 433.538C343.836 433.508 344.007 433.515 344.169 433.561Z" fill="#ECA085"/>
<path d="M95.2632 614.928C94.0515 610.654 58.4539 462.85 58.4539 462.85C58.4539 462.85 47.3399 427.908 25.6163 415.781C24.0891 414.97 22.4075 414.491 20.6818 414.376C18.9562 414.26 17.2256 414.511 15.6038 415.111C13.9819 415.711 12.5055 416.646 11.2715 417.856C10.0374 419.067 9.07372 420.524 8.44363 422.132L-23.4162 500.542C-24.5053 503.225 -26.1448 505.65 -28.229 507.662C-30.3132 509.674 -32.7961 511.229 -35.5179 512.225C-38.2397 513.221 -41.1401 513.637 -44.0326 513.446C-46.9251 513.255 -49.7456 512.462 -52.3127 511.117C-56.9201 508.556 -60.4152 504.382 -62.124 499.4C-63.8329 494.418 -63.6346 488.981 -61.5674 484.136L-28.4225 402.526C-28.4225 402.526 -41.7987 367.288 11.5759 285.475C11.7694 285.179 11.9909 284.867 12.1901 284.549L11.6357 283.316L11.6414 283.294C11.6414 283.294 -55.5001 193 -51.6284 155.802C-47.7568 118.605 3.29547 71.9981 51.4999 110.498C99.7044 148.998 113.623 232.946 113.623 232.946L114.236 234.31C114.236 234.31 114.592 234.45 115.252 234.763C122.427 238.294 166.849 263.499 204.598 362.871L213.027 380.427C247.83 403.377 297.69 449.492 305.024 455.934C311.057 461.246 314.238 479.735 308.945 485.744C306.393 488.636 302.796 490.397 298.944 490.641C295.092 490.885 291.301 489.592 288.404 487.045C276.67 476.738 261.741 464.85 246.436 453.418C231.109 441.98 215.407 430.999 202.13 422.507C202.13 422.507 191.813 418.241 192.661 430.563L265.074 552.617C269.464 559.325 268.845 571.677 262.144 576.089C255.39 580.442 237.123 577.599 232.733 570.891L158.894 461.694L158.873 461.689C158.526 461.598 153.045 460.247 150.956 465.18L206.074 608.707C208.835 616.235 199.17 627.316 191.632 630.074C184.095 632.832 170.343 625.256 167.559 617.722L111.562 480.51C111.519 480.477 111.472 480.449 111.422 480.427C110.519 479.875 109.478 479.592 108.42 479.612C107.362 479.631 106.331 479.952 105.449 480.536C104.567 481.12 103.871 481.944 103.442 482.91C103.013 483.876 102.869 484.945 103.027 485.99C110.66 535.885 129.196 603.435 129.483 608.669C130.003 618.985 127.114 624.401 119.404 626.581C111.657 628.729 97.4405 622.65 95.2632 614.928Z" fill="#B86A4B"/>
<path d="M79.1766 250.598C78.913 250.501 78.6945 250.31 78.5633 250.062C78.4321 249.814 78.3974 249.526 78.4658 249.254C78.4707 249.223 78.4863 249.194 78.5098 249.173C79.5212 245.887 81.1901 242.84 83.4154 240.217C85.6407 237.593 88.3761 235.449 91.4559 233.913C100.496 229.676 110.446 231.995 113.623 232.947L114.236 234.311C114.236 234.311 114.592 234.452 115.252 234.764C115.141 235.022 114.935 235.228 114.678 235.341C114.42 235.453 114.129 235.464 113.864 235.37C112.847 235.01 88.9231 226.745 80.6089 249.911C80.5611 250.051 80.486 250.18 80.3878 250.29C80.2896 250.401 80.1704 250.49 80.037 250.554C79.9037 250.618 79.7589 250.655 79.6112 250.663C79.4634 250.67 79.3157 250.648 79.1766 250.598ZM11.6137 285.509C11.5915 285.503 11.5915 285.503 11.576 285.476C11.7695 285.18 11.991 284.868 12.1902 284.551L11.6358 283.317L11.6415 283.296C28.7444 255.62 53.0653 260.01 53.3033 260.072C53.4477 260.099 53.5853 260.155 53.7082 260.235C53.831 260.316 53.9367 260.42 54.0189 260.542C54.1012 260.663 54.1585 260.8 54.1875 260.944C54.2164 261.088 54.2165 261.236 54.1877 261.38C54.159 261.524 54.1019 261.661 54.0197 261.783C53.9376 261.904 53.8322 262.009 53.7094 262.089C53.5867 262.17 53.4491 262.226 53.3047 262.253C53.1603 262.28 53.0119 262.278 52.8681 262.248C51.9204 262.068 29.4356 258.092 13.1498 285.127C13.0756 285.254 12.9765 285.366 12.8585 285.454C12.7405 285.543 12.6059 285.607 12.4626 285.642C12.3194 285.678 12.1705 285.684 12.0247 285.662C11.8789 285.639 11.7391 285.587 11.6137 285.509ZM105.521 438.426C118.62 388.794 176.483 360.301 177.141 359.983C177.274 359.919 177.418 359.881 177.564 359.873C177.711 359.865 177.858 359.885 177.997 359.933C178.136 359.982 178.264 360.057 178.374 360.155C178.484 360.252 178.573 360.371 178.637 360.503C178.701 360.635 178.739 360.779 178.747 360.925C178.756 361.072 178.735 361.219 178.687 361.358C178.638 361.496 178.563 361.624 178.465 361.734C178.367 361.844 178.249 361.933 178.116 361.997C177.385 362.35 105.095 397.975 105.144 458.528C105.144 458.824 105.026 459.109 104.817 459.319C104.607 459.529 104.322 459.647 104.025 459.647C103.728 459.648 103.443 459.53 103.233 459.321C103.022 459.111 102.904 458.827 102.904 458.53C102.9 451.744 103.78 444.986 105.521 438.426ZM64.8431 290.047C64.8967 289.843 65.0068 289.659 65.1607 289.515C65.3146 289.371 65.5061 289.274 65.7131 289.234C65.92 289.194 66.1341 289.213 66.3306 289.289C66.5271 289.365 66.698 289.496 66.8237 289.665C67.3853 290.417 122.471 365.584 74.4595 424.734C74.2716 424.962 74.001 425.107 73.7068 425.137C73.4125 425.166 73.1184 425.079 72.8886 424.893C72.6589 424.706 72.5121 424.437 72.4802 424.144C72.4484 423.85 72.5342 423.556 72.7188 423.325C119.661 365.518 65.5809 291.742 65.0277 291.001C64.9268 290.866 64.8577 290.711 64.8257 290.545C64.7937 290.38 64.7997 290.209 64.8431 290.047Z" fill="#633322"/>
<path d="M230.678 321.999C231.76 326.309 262.865 475.118 262.865 475.118C262.865 475.118 272.916 510.381 294.262 523.158C295.764 524.015 297.431 524.544 299.152 524.712C300.873 524.879 302.611 524.681 304.25 524.131C305.889 523.58 307.393 522.689 308.663 521.517C309.934 520.344 310.941 518.917 311.619 517.328L345.839 439.917C347.009 437.268 348.721 434.893 350.865 432.945C353.01 430.997 355.538 429.518 358.289 428.605C361.04 427.691 363.952 427.363 366.837 427.641C369.722 427.919 372.517 428.797 375.043 430.219C379.57 432.918 382.937 437.196 384.495 442.227C386.052 447.258 385.689 452.687 383.476 457.467L347.875 538.039C347.875 538.039 360.178 573.665 304.35 653.829C304.148 654.119 303.917 654.424 303.709 654.735L304.225 655.985L304.219 656.006C304.219 656.006 392.5 725.5 379.86 843.003C367.219 960.505 242.571 803.996 242.571 803.996L200.76 703.251L200.189 701.869C200.189 701.869 199.836 701.718 199.187 701.386C192.122 697.64 148.483 671.105 113.761 570.638L105.867 552.835C71.7748 528.844 23.3336 481.245 16.1988 474.585C10.3294 469.092 7.70974 450.516 13.1818 444.669C15.8202 441.856 19.4691 440.204 23.3264 440.077C27.1838 439.949 30.934 441.357 33.7529 443.99C45.1695 454.646 59.7318 466.98 74.6838 478.869C89.6567 490.764 105.019 502.215 118.033 511.104C118.033 511.104 128.216 515.68 127.742 503.338L59.0579 379.152C54.8728 372.315 55.8659 359.987 62.6974 355.779C69.5803 351.633 87.7525 355.026 91.9376 361.863L162.436 473.24L162.457 473.246C162.801 473.348 168.238 474.864 170.476 469.996L119.729 324.871C117.197 317.263 127.193 306.479 134.811 303.95C142.429 301.421 155.945 309.409 158.499 317.024L210.316 455.863C210.358 455.897 210.404 455.926 210.453 455.95C211.339 456.529 212.371 456.843 213.43 456.856C214.488 456.868 215.528 456.579 216.427 456.022C217.326 455.464 218.047 454.662 218.505 453.709C218.963 452.756 219.139 451.693 219.013 450.643C212.895 400.54 196.412 332.462 196.284 327.222C196.077 316.895 199.128 311.569 206.9 309.622C214.71 307.71 228.735 314.215 230.678 321.999Z" fill="#FFE3D9"/>
<path d="M235.725 686.65C235.985 686.755 236.198 686.952 236.322 687.204C236.445 687.456 236.471 687.745 236.395 688.015C236.389 688.046 236.372 688.074 236.348 688.094C235.238 691.349 233.477 694.344 231.174 696.899C228.87 699.453 226.071 701.514 222.946 702.957C213.782 706.918 203.906 704.3 200.76 703.252L200.189 701.87C200.189 701.87 199.836 701.719 199.187 701.387C199.306 701.132 199.517 700.933 199.778 700.828C200.039 700.723 200.33 700.721 200.593 700.823C201.598 701.214 225.26 710.197 234.272 687.294C234.324 687.155 234.403 687.029 234.505 686.921C234.606 686.814 234.728 686.727 234.863 686.668C234.999 686.608 235.145 686.575 235.292 686.572C235.44 686.569 235.587 686.596 235.725 686.65ZM304.314 653.795C304.336 653.802 304.336 653.802 304.351 653.83C304.148 654.12 303.917 654.425 303.709 654.736L304.225 655.986L304.219 656.007C286.286 683.154 262.109 678.031 261.873 677.961C261.73 677.93 261.594 677.87 261.473 677.786C261.353 677.702 261.251 677.595 261.172 677.471C261.093 677.347 261.04 677.208 261.016 677.064C260.991 676.919 260.995 676.771 261.029 676.628C261.062 676.485 261.123 676.35 261.209 676.23C261.294 676.111 261.403 676.01 261.528 675.933C261.653 675.856 261.793 675.805 261.938 675.782C262.083 675.759 262.231 675.765 262.374 675.8C263.316 676.009 285.67 680.662 302.767 654.131C302.845 654.006 302.947 653.898 303.068 653.813C303.189 653.728 303.325 653.668 303.469 653.637C303.614 653.606 303.763 653.603 303.908 653.631C304.053 653.658 304.191 653.714 304.314 653.795ZM215.081 498.112C200.484 547.326 141.785 574.059 141.117 574.357C140.983 574.417 140.838 574.449 140.691 574.453C140.544 574.458 140.397 574.433 140.26 574.38C140.123 574.328 139.997 574.249 139.89 574.148C139.783 574.047 139.698 573.926 139.638 573.791C139.578 573.657 139.545 573.513 139.541 573.366C139.537 573.219 139.562 573.073 139.614 572.936C139.667 572.798 139.746 572.673 139.847 572.566C139.948 572.46 140.069 572.374 140.204 572.314C140.945 571.983 214.281 538.558 216.066 478.031C216.075 477.735 216.201 477.454 216.417 477.25C216.524 477.149 216.65 477.071 216.787 477.018C216.925 476.966 217.071 476.941 217.218 476.946C217.365 476.95 217.51 476.983 217.644 477.043C217.778 477.104 217.899 477.19 218 477.296C218.101 477.403 218.18 477.529 218.232 477.666C218.285 477.804 218.309 477.95 218.305 478.097C218.103 484.88 217.019 491.608 215.081 498.112ZM251.246 647.652C251.187 647.854 251.071 648.035 250.913 648.174C250.754 648.313 250.56 648.405 250.352 648.439C250.144 648.472 249.931 648.447 249.737 648.364C249.543 648.282 249.376 648.147 249.255 647.974C248.717 647.206 195.932 570.409 245.713 512.736C245.809 512.625 245.926 512.533 246.057 512.467C246.189 512.401 246.332 512.362 246.479 512.351C246.625 512.34 246.773 512.358 246.913 512.404C247.052 512.45 247.182 512.523 247.293 512.619C247.405 512.715 247.496 512.832 247.562 512.963C247.628 513.095 247.668 513.237 247.679 513.384C247.69 513.531 247.672 513.678 247.626 513.817C247.579 513.957 247.506 514.086 247.41 514.197C198.739 570.56 250.56 645.935 251.091 646.693C251.188 646.83 251.252 646.988 251.279 647.155C251.306 647.321 251.295 647.491 251.246 647.652Z" fill="#B86A4B"/>
<path d="M350.323 493.008C346.493 495.268 212.462 567.32 212.462 567.32C212.462 567.32 181.463 586.959 175.259 611.029C174.863 612.711 174.829 614.457 175.157 616.153C175.485 617.849 176.168 619.456 177.162 620.869C178.157 622.283 179.439 623.47 180.925 624.353C182.412 625.237 184.068 625.796 185.786 625.994L269.824 636.776C272.7 637.144 275.466 638.109 277.945 639.609C280.425 641.109 282.562 643.11 284.221 645.485C285.879 647.859 287.021 650.554 287.574 653.396C288.126 656.238 288.077 659.164 287.429 661.986C286.124 667.089 282.974 671.528 278.586 674.448C274.198 677.368 268.882 678.562 263.665 677.801L176.2 666.594C176.2 666.594 145.492 688.494 52.6737 657.803C52.3377 657.691 51.9793 657.557 51.621 657.446L50.5683 658.295H50.5459L-63.2082 748.657L-165 686.573L-24.197 572.643L-23.0323 571.704C-23.0323 571.704 -22.9875 571.324 -22.8531 570.607C-21.2628 562.778 -8.1823 513.454 78.4092 451.67L93.2592 439.054C106.609 399.594 138.548 339.688 142.916 330.965C146.522 323.784 163.612 316 170.779 319.579C174.23 321.307 176.852 324.331 178.07 327.989C179.288 331.647 179.002 335.637 177.275 339.084C170.287 353.043 162.582 370.491 155.414 388.186C148.247 405.902 141.617 423.865 136.779 438.852C136.779 438.852 135.278 449.902 146.992 445.943L246.709 344.901C252.085 338.951 264.202 336.401 270.183 341.747C276.118 347.161 278.022 365.526 272.646 371.475L185.741 470.617V470.639C185.741 470.997 185.831 476.634 191.139 477.394L316.054 387.582C322.639 382.996 335.832 389.505 340.423 396.081C345.015 402.658 341.185 417.87 334.6 422.478L216.024 511.53C216.003 511.581 215.988 511.633 215.979 511.687C215.675 512.699 215.666 513.777 215.955 514.794C216.243 515.811 216.816 516.724 217.607 517.427C218.397 518.13 219.372 518.592 220.417 518.76C221.462 518.928 222.533 518.795 223.505 518.376C269.869 498.287 330.546 463.168 335.541 461.557C345.396 458.425 351.376 459.834 355.453 466.724C359.507 473.659 357.245 488.937 350.323 493.008Z" fill="#633322"/>
<path d="M1.67299 601.405C1.64636 601.684 1.51725 601.944 1.31051 602.134C1.10377 602.324 0.833988 602.431 0.553082 602.434C0.521591 602.437 0.489943 602.43 0.463486 602.412C-2.97619 602.273 -6.35178 601.438 -9.45879 599.958C-12.5658 598.477 -15.3395 596.382 -17.6119 593.8C-24.0178 586.15 -24.3089 575.949 -24.1969 572.638L-23.0322 571.699C-23.0322 571.699 -22.9874 571.319 -22.8531 570.602C-22.5748 570.644 -22.3228 570.79 -22.1482 571.01C-21.9735 571.23 -21.8892 571.508 -21.9123 571.789C-22.0019 572.862 -23.9058 598.073 0.642675 600.197C0.790222 600.207 0.934208 600.247 1.06621 600.314C1.19822 600.38 1.31561 600.473 1.41152 600.585C1.50744 600.698 1.57996 600.828 1.62485 600.969C1.66975 601.11 1.68611 601.258 1.67299 601.405ZM52.696 657.753C52.696 657.776 52.696 657.776 52.6736 657.798C52.3377 657.687 51.9793 657.552 51.6209 657.441L50.5682 658.291H50.5458C19.3899 648.828 17.4412 624.222 17.4412 623.976C17.4307 623.83 17.4494 623.683 17.4962 623.544C17.5429 623.405 17.6168 623.276 17.7136 623.166C17.8104 623.056 17.9281 622.966 18.06 622.901C18.1919 622.836 18.3353 622.799 18.482 622.79C18.6286 622.781 18.7755 622.801 18.9143 622.849C19.053 622.897 19.1808 622.973 19.2902 623.071C19.3997 623.168 19.4886 623.287 19.5518 623.419C19.6151 623.552 19.6514 623.695 19.6587 623.842C19.7259 624.803 21.6073 647.531 51.9345 656.367C52.0768 656.406 52.2098 656.474 52.3255 656.565C52.4413 656.656 52.5376 656.77 52.6086 656.899C52.6796 657.029 52.7239 657.171 52.7389 657.318C52.754 657.464 52.7394 657.612 52.696 657.753ZM176.816 528.087C125.423 528.087 83.0858 479.471 82.61 478.916C82.5144 478.805 82.4417 478.675 82.3961 478.536C82.3505 478.396 82.3328 478.249 82.3442 478.102C82.3556 477.956 82.3957 477.813 82.4624 477.682C82.529 477.551 82.6208 477.435 82.7325 477.339C82.8443 477.244 82.9738 477.171 83.1136 477.125C83.2534 477.08 83.4009 477.062 83.5475 477.074C83.6942 477.085 83.8371 477.125 83.9683 477.192C84.0994 477.258 84.2161 477.35 84.3118 477.461C84.84 478.078 137.759 538.809 196.375 523.327C196.662 523.252 196.968 523.293 197.225 523.442C197.481 523.591 197.668 523.836 197.744 524.123C197.82 524.409 197.779 524.715 197.63 524.971C197.48 525.227 197.235 525.414 196.948 525.49C190.378 527.223 183.611 528.096 176.816 528.087ZM43.5214 605.192C43.3106 605.192 43.1041 605.133 42.9256 605.021C42.7471 604.909 42.6039 604.749 42.5125 604.559C42.421 604.369 42.3851 604.158 42.4088 603.948C42.4325 603.739 42.5149 603.541 42.6465 603.376C43.2316 602.642 101.969 530.285 171.477 561.574C171.748 561.696 171.959 561.92 172.064 562.198C172.169 562.475 172.16 562.783 172.038 563.054C171.916 563.324 171.691 563.535 171.413 563.64C171.135 563.746 170.827 563.736 170.556 563.614C102.621 533.016 44.9749 604.047 44.3986 604.77C44.2937 604.902 44.1603 605.009 44.0084 605.082C43.8565 605.155 43.69 605.192 43.5214 605.192Z" fill="#471301"/>
</g>
<g opacity="0.2" clip-path="url(#clip1_1057_1415)">
<path d="M1369.84 772.094C1204.16 831.318 1025.4 849.705 950.612 645.283C875.825 440.862 1185.84 100.486 1351.53 41.2613C1517.21 -17.9634 1475.83 226.39 1550.62 430.812C1625.41 635.234 1535.53 712.869 1369.84 772.094Z" fill="white"/>
<path d="M1278.28 610.01C1276.28 606.035 1213.43 467.414 1213.43 467.414C1213.43 467.414 1195.93 435.151 1172.33 427.321C1170.68 426.812 1168.94 426.658 1167.23 426.87C1165.51 427.082 1163.86 427.654 1162.38 428.55C1160.91 429.446 1159.64 430.644 1158.65 432.067C1157.67 433.489 1157 435.104 1156.69 436.804L1140.26 519.909C1139.7 522.752 1138.55 525.446 1136.89 527.818C1135.23 530.189 1133.08 532.185 1130.6 533.678C1128.12 535.17 1125.36 536.126 1122.48 536.484C1119.61 536.842 1116.69 536.593 1113.92 535.755C1108.92 534.105 1104.7 530.66 1102.08 526.083C1099.47 521.507 1098.63 516.123 1099.75 510.969L1116.83 424.475C1116.83 424.475 1097.05 392.348 1133.93 301.84C1134.06 301.513 1134.22 301.164 1134.36 300.814L1133.58 299.706L1133.58 299.684C1133.58 299.684 1066.96 256.24 1068.73 205.62C1070.5 155 1118.16 133.256 1161.31 141.633C1203.16 149.759 1224.08 230.953 1224.08 230.953L1224.94 232.179C1224.94 232.179 1225.32 232.249 1226.02 232.432C1233.73 234.552 1282.06 250.961 1337.87 341.556L1349.45 357.231C1387.92 373.236 1445.54 409.181 1453.95 414.133C1460.87 418.219 1467.49 435.799 1463.43 442.706C1461.48 446.03 1458.28 448.44 1454.55 449.406C1450.82 450.372 1446.86 449.815 1443.53 447.857C1430.08 439.934 1413.19 431.059 1396.02 422.703C1378.82 414.346 1361.35 406.508 1346.72 400.661C1346.72 400.661 1335.79 398.411 1338.96 410.367L1433.05 516.731C1438.62 522.499 1440.35 534.761 1434.61 540.363C1428.81 545.916 1410.36 546.564 1404.78 540.796L1311.72 447.344L1311.7 447.342C1311.34 447.318 1305.71 447.023 1304.6 452.267L1385.78 583.004C1389.91 589.886 1382.53 602.603 1375.66 606.736C1368.79 610.869 1353.87 606.012 1349.71 599.128L1268.86 474.767C1268.81 474.743 1268.76 474.724 1268.71 474.712C1267.72 474.339 1266.64 474.258 1265.61 474.476C1264.57 474.694 1263.62 475.204 1262.87 475.945C1262.11 476.686 1261.59 477.627 1261.35 478.658C1261.11 479.689 1261.17 480.766 1261.52 481.764C1278.44 529.387 1309.39 592.312 1310.66 597.405C1313.12 607.45 1311.31 613.32 1304.16 616.918C1296.97 620.49 1281.88 617.192 1278.28 610.01Z" fill="#FFA072"/>
<path d="M1193.64 254.802C1193.36 254.756 1193.11 254.61 1192.94 254.391C1192.76 254.172 1192.67 253.895 1192.69 253.615C1192.69 253.583 1192.7 253.552 1192.72 253.527C1193.09 250.105 1194.15 246.794 1195.84 243.795C1197.52 240.796 1199.8 238.172 1202.53 236.081C1210.59 230.211 1220.79 230.616 1224.09 230.953L1224.95 232.179C1224.95 232.179 1225.32 232.249 1226.03 232.432C1225.97 232.707 1225.81 232.948 1225.57 233.108C1225.34 233.267 1225.06 233.332 1224.78 233.29C1223.72 233.128 1198.69 229.511 1194.92 253.856C1194.89 254.003 1194.85 254.144 1194.77 254.271C1194.69 254.398 1194.59 254.509 1194.48 254.597C1194.36 254.685 1194.22 254.749 1194.08 254.784C1193.94 254.819 1193.79 254.825 1193.64 254.802ZM1133.98 301.866C1133.95 301.864 1133.95 301.864 1133.93 301.84C1134.07 301.513 1134.23 301.164 1134.36 300.815L1133.58 299.706L1133.59 299.684C1145.13 269.246 1169.81 268.979 1170.06 268.995C1170.2 268.995 1170.35 269.023 1170.48 269.079C1170.62 269.136 1170.74 269.218 1170.85 269.322C1170.95 269.426 1171.03 269.55 1171.09 269.686C1171.14 269.822 1171.17 269.967 1171.17 270.114C1171.17 270.261 1171.14 270.407 1171.08 270.542C1171.02 270.677 1170.94 270.799 1170.84 270.902C1170.73 271.004 1170.61 271.085 1170.47 271.139C1170.33 271.193 1170.19 271.219 1170.04 271.217C1169.08 271.218 1146.27 271.547 1135.41 301.2C1135.36 301.34 1135.29 301.468 1135.19 301.577C1135.09 301.686 1134.97 301.775 1134.83 301.837C1134.7 301.899 1134.56 301.933 1134.41 301.938C1134.26 301.943 1134.11 301.919 1133.98 301.866ZM1254.98 434.525C1258.45 383.253 1309.81 344.328 1310.4 343.891C1310.63 343.714 1310.93 343.638 1311.23 343.681C1311.52 343.725 1311.78 343.883 1311.96 344.121C1312.14 344.359 1312.21 344.658 1312.17 344.952C1312.13 345.246 1311.97 345.511 1311.73 345.688C1311.08 346.173 1246.92 394.83 1258.41 454.362C1258.47 454.653 1258.41 454.955 1258.24 455.201C1258.07 455.447 1257.82 455.617 1257.53 455.673C1257.23 455.73 1256.93 455.668 1256.69 455.501C1256.44 455.335 1256.27 455.078 1256.22 454.786C1254.93 448.114 1254.51 441.303 1254.98 434.525ZM1187.04 296.293C1187.05 296.083 1187.13 295.881 1187.25 295.711C1187.37 295.54 1187.54 295.408 1187.74 295.33C1187.93 295.252 1188.15 295.23 1188.35 295.268C1188.56 295.306 1188.75 295.402 1188.91 295.544C1189.6 296.178 1257.84 359.705 1221.93 426.917C1221.79 427.179 1221.55 427.374 1221.27 427.46C1220.98 427.546 1220.68 427.516 1220.42 427.376C1220.15 427.236 1219.96 426.997 1219.87 426.713C1219.79 426.428 1219.82 426.121 1219.96 425.859C1255.07 360.169 1188.08 297.821 1187.4 297.197C1187.28 297.084 1187.18 296.943 1187.12 296.787C1187.05 296.63 1187.03 296.462 1187.04 296.293Z" fill="#ECA085"/>
<path d="M1414.52 503.901C1410.57 505.943 1272.88 570.379 1272.88 570.379C1272.88 570.379 1240.86 588.257 1233.32 611.967C1232.83 613.625 1232.7 615.369 1232.93 617.082C1233.17 618.796 1233.76 620.442 1234.67 621.911C1235.58 623.38 1236.79 624.64 1238.23 625.607C1239.66 626.574 1241.28 627.227 1242.98 627.522L1326.18 643.058C1329.02 643.589 1331.73 644.71 1334.12 646.35C1336.51 647.989 1338.52 650.111 1340.04 652.579C1341.57 655.047 1342.55 657.805 1342.94 660.677C1343.34 663.55 1343.12 666.472 1342.32 669.256C1340.73 674.282 1337.34 678.542 1332.8 681.212C1328.26 683.883 1322.89 684.776 1317.73 683.719L1231.14 667.565C1231.14 667.565 1199.29 687.717 1108.46 651.782C1108.13 651.652 1107.78 651.497 1107.43 651.366L1106.33 652.155L1106.31 652.154C1106.31 652.154 1035.44 740.823 973.5 739C952.478 738.381 936.5 738.999 921 727.002C905.5 715.004 897.5 681.499 914.5 655.502C931.5 629.506 1036.58 562.301 1036.58 562.301L1037.8 561.428C1037.8 561.428 1037.86 561.051 1038.04 560.342C1040.06 552.606 1055.87 504.041 1145.69 447.182L1161.21 435.412C1176.73 396.722 1211.94 338.647 1216.79 330.174C1220.79 323.2 1238.27 316.386 1245.21 320.37C1248.56 322.292 1251 325.464 1252.01 329.19C1253.02 332.915 1252.51 336.888 1250.6 340.236C1242.84 353.794 1234.18 370.799 1226.04 388.081C1217.9 405.385 1210.28 422.967 1204.61 437.674C1204.61 437.674 1202.5 448.635 1214.4 445.34L1319.51 349.981C1325.2 344.338 1337.43 342.475 1343.09 348.158C1348.71 353.906 1349.58 372.372 1343.88 378.015L1251.66 472.199L1251.66 472.221C1251.64 472.579 1251.41 478.22 1256.66 479.28L1386.26 396.573C1393.09 392.362 1405.88 399.615 1410.09 406.45C1414.3 413.284 1409.62 428.273 1402.8 432.507L1279.56 514.813C1279.53 514.862 1279.52 514.913 1279.5 514.966C1279.14 515.961 1279.08 517.038 1279.31 518.071C1279.54 519.104 1280.06 520.049 1280.81 520.797C1281.55 521.544 1282.5 522.061 1283.53 522.288C1284.57 522.516 1285.64 522.443 1286.63 522.079C1333.99 504.623 1396.47 472.952 1401.54 471.624C1411.55 469.052 1417.43 470.799 1421.11 477.917C1424.76 485.079 1421.65 500.223 1414.52 503.901Z" fill="#B86A4B"/>
<path d="M1060.77 592.522C1060.72 592.8 1060.58 593.052 1060.36 593.23C1060.15 593.409 1059.87 593.5 1059.59 593.487C1059.56 593.489 1059.53 593.479 1059.5 593.461C1056.08 593.127 1052.76 592.101 1049.75 590.445C1046.73 588.789 1044.08 586.538 1041.96 583.828C1036 575.818 1036.29 565.605 1036.58 562.301L1037.8 561.428C1037.8 561.428 1037.86 561.051 1038.04 560.342C1038.31 560.4 1038.56 560.56 1038.72 560.79C1038.88 561.02 1038.95 561.303 1038.91 561.581C1038.76 562.65 1035.45 587.743 1059.81 591.256C1059.95 591.275 1060.1 591.323 1060.22 591.397C1060.35 591.471 1060.46 591.57 1060.55 591.688C1060.64 591.806 1060.71 591.94 1060.74 592.084C1060.78 592.227 1060.79 592.376 1060.77 592.522ZM1108.48 651.739C1108.48 651.762 1108.48 651.762 1108.46 651.782C1108.13 651.652 1107.78 651.497 1107.43 651.366L1106.33 652.156L1106.31 652.154C1075.77 640.932 1075.21 616.224 1075.22 615.978C1075.22 615.831 1075.25 615.685 1075.3 615.549C1075.36 615.412 1075.44 615.288 1075.54 615.183C1075.64 615.078 1075.77 614.995 1075.9 614.938C1076.04 614.88 1076.18 614.851 1076.33 614.85C1076.48 614.85 1076.62 614.878 1076.76 614.934C1076.89 614.99 1077.02 615.073 1077.12 615.177C1077.22 615.281 1077.3 615.405 1077.36 615.541C1077.42 615.677 1077.44 615.823 1077.44 615.97C1077.46 616.934 1078.06 639.76 1107.8 650.31C1107.94 650.357 1108.07 650.432 1108.18 650.53C1108.29 650.628 1108.38 650.747 1108.44 650.88C1108.51 651.014 1108.54 651.158 1108.55 651.306C1108.56 651.453 1108.54 651.6 1108.48 651.739ZM1239.53 529.148C1188.28 526.238 1148.79 475.243 1148.35 474.661C1148.26 474.544 1148.2 474.411 1148.16 474.269C1148.12 474.127 1148.11 473.979 1148.13 473.833C1148.15 473.687 1148.2 473.547 1148.27 473.419C1148.35 473.292 1148.44 473.181 1148.56 473.092C1148.68 473.003 1148.81 472.937 1148.95 472.9C1149.1 472.862 1149.24 472.853 1149.39 472.873C1149.53 472.892 1149.67 472.94 1149.8 473.014C1149.93 473.088 1150.04 473.187 1150.13 473.303C1150.62 473.949 1199.98 537.655 1259.3 525.498C1259.59 525.438 1259.9 525.496 1260.14 525.66C1260.39 525.824 1260.56 526.079 1260.62 526.37C1260.68 526.661 1260.63 526.964 1260.46 527.212C1260.3 527.459 1260.04 527.632 1259.75 527.692C1253.11 529.052 1246.31 529.542 1239.53 529.148ZM1102.29 598.677C1102.07 598.665 1101.87 598.594 1101.7 598.472C1101.53 598.35 1101.4 598.182 1101.31 597.987C1101.23 597.793 1101.21 597.579 1101.25 597.371C1101.28 597.164 1101.37 596.97 1101.51 596.813C1102.14 596.112 1164.77 527.107 1232.33 562.32C1232.59 562.459 1232.79 562.695 1232.87 562.977C1232.96 563.26 1232.93 563.565 1232.8 563.828C1232.66 564.09 1232.43 564.288 1232.15 564.377C1231.86 564.467 1231.56 564.442 1231.3 564.307C1165.27 529.874 1103.8 597.615 1103.18 598.305C1103.07 598.431 1102.93 598.53 1102.78 598.595C1102.62 598.659 1102.45 598.687 1102.29 598.677Z" fill="#633322"/>
<path d="M1100.43 429.801C1104.43 427.88 1244.02 367.643 1244.02 367.643C1244.02 367.643 1276.56 350.744 1284.81 327.273C1285.35 325.63 1285.53 323.892 1285.35 322.172C1285.17 320.452 1284.63 318.789 1283.76 317.293C1282.89 315.797 1281.72 314.501 1280.32 313.491C1278.92 312.481 1277.32 311.78 1275.62 311.433L1192.93 293.385C1190.1 292.768 1187.43 291.566 1185.1 289.855C1182.76 288.143 1180.8 285.961 1179.36 283.449C1177.91 280.936 1177.01 278.149 1176.71 275.266C1176.4 272.384 1176.7 269.469 1177.59 266.711C1179.33 261.735 1182.85 257.58 1187.47 255.048C1192.08 252.516 1197.48 251.786 1202.6 252.999L1288.67 271.767C1288.67 271.767 1321.11 252.588 1410.82 291.257C1411.14 291.397 1411.49 291.562 1411.84 291.705L1412.96 290.948L1412.98 290.95L1581.07 179.442L1570.31 321.758L1479.96 382.872L1478.72 383.708C1478.72 383.708 1478.64 384.083 1478.45 384.786C1476.19 392.457 1458.92 440.521 1367.42 494.633L1351.56 505.928C1334.87 544.129 1297.92 601.111 1292.82 609.434C1288.61 616.283 1270.94 622.564 1264.11 618.372C1260.83 616.35 1258.48 613.105 1257.59 609.351C1256.69 605.597 1257.32 601.641 1259.33 598.352C1267.49 585.035 1276.66 568.301 1285.32 551.273C1293.98 534.224 1302.13 516.882 1308.24 502.353C1308.24 502.353 1310.69 491.461 1298.69 494.394L1190.75 586.525C1184.88 591.993 1172.61 593.485 1167.12 587.633C1161.68 581.719 1161.37 563.235 1167.23 557.767L1262.26 466.419L1262.26 466.397C1262.29 466.04 1262.69 460.41 1257.47 459.191L1125.43 537.934C1118.48 541.937 1105.91 534.299 1101.91 527.341C1097.91 520.383 1103.04 505.542 1109.99 501.517L1235.66 422.981C1235.68 422.933 1235.7 422.882 1235.72 422.83C1236.11 421.846 1236.21 420.772 1236.01 419.732C1235.81 418.693 1235.32 417.732 1234.59 416.963C1233.87 416.193 1232.94 415.647 1231.91 415.389C1230.89 415.13 1229.81 415.171 1228.81 415.504C1180.94 431.518 1117.53 461.283 1112.42 462.456C1102.35 464.724 1096.52 462.8 1093.05 455.574C1089.62 448.305 1093.19 433.261 1100.43 429.801Z" fill="#FFE3D9"/>
<path d="M1456.7 351.935C1456.75 351.658 1456.9 351.411 1457.12 351.239C1457.35 351.068 1457.62 350.984 1457.9 351.005C1457.94 351.005 1457.97 351.015 1457.99 351.035C1461.4 351.472 1464.69 352.598 1467.65 354.344C1470.62 356.091 1473.2 358.421 1475.23 361.194C1480.95 369.381 1480.36 379.581 1479.96 382.873L1478.72 383.709C1478.72 383.709 1478.64 384.085 1478.45 384.788C1478.17 384.722 1477.94 384.555 1477.78 384.32C1477.63 384.085 1477.57 383.8 1477.61 383.523C1477.8 382.46 1481.87 357.478 1457.62 353.229C1457.48 353.206 1457.34 353.154 1457.21 353.076C1457.09 352.998 1456.98 352.896 1456.89 352.775C1456.8 352.655 1456.74 352.518 1456.71 352.374C1456.68 352.23 1456.68 352.08 1456.7 351.935ZM1410.79 291.301C1410.8 291.278 1410.8 291.278 1410.82 291.259C1411.14 291.399 1411.49 291.564 1411.84 291.706L1412.96 290.95L1412.98 290.952C1443.16 303.094 1442.98 327.807 1442.96 328.052C1442.96 328.199 1442.93 328.344 1442.87 328.479C1442.81 328.614 1442.72 328.735 1442.62 328.837C1442.51 328.939 1442.39 329.019 1442.25 329.072C1442.11 329.125 1441.97 329.15 1441.82 329.146C1441.67 329.142 1441.53 329.109 1441.4 329.049C1441.26 328.989 1441.14 328.903 1441.04 328.796C1440.94 328.688 1440.86 328.562 1440.81 328.425C1440.76 328.287 1440.74 328.14 1440.74 327.994C1440.76 327.029 1440.85 304.196 1411.43 292.75C1411.29 292.699 1411.17 292.62 1411.06 292.519C1410.95 292.417 1410.87 292.296 1410.81 292.16C1410.75 292.025 1410.72 291.88 1410.71 291.732C1410.71 291.585 1410.74 291.438 1410.79 291.301ZM1276.1 409.866C1327.24 414.326 1365.17 466.493 1365.6 467.088C1365.68 467.208 1365.74 467.343 1365.78 467.486C1365.81 467.629 1365.81 467.778 1365.79 467.923C1365.77 468.068 1365.71 468.207 1365.64 468.332C1365.56 468.457 1365.46 468.565 1365.34 468.65C1365.22 468.736 1365.08 468.797 1364.94 468.831C1364.8 468.864 1364.65 468.869 1364.5 468.845C1364.36 468.82 1364.22 468.768 1364.1 468.69C1363.97 468.613 1363.86 468.511 1363.78 468.391C1363.3 467.731 1315.89 402.561 1256.23 412.916C1255.94 412.967 1255.63 412.9 1255.39 412.729C1255.27 412.644 1255.17 412.536 1255.09 412.412C1255.01 412.288 1254.96 412.149 1254.93 412.004C1254.91 411.86 1254.91 411.711 1254.94 411.568C1254.98 411.424 1255.04 411.288 1255.12 411.168C1255.21 411.048 1255.31 410.945 1255.44 410.867C1255.56 410.788 1255.7 410.735 1255.84 410.71C1262.53 409.551 1269.34 409.267 1276.1 409.866ZM1415.39 344.525C1415.6 344.544 1415.8 344.621 1415.97 344.748C1416.13 344.875 1416.26 345.047 1416.34 345.244C1416.41 345.442 1416.43 345.656 1416.39 345.862C1416.35 346.069 1416.25 346.259 1416.1 346.412C1415.46 347.093 1350.77 414.169 1284.3 376.928C1284.17 376.856 1284.06 376.76 1283.97 376.644C1283.88 376.529 1283.81 376.396 1283.77 376.255C1283.73 376.113 1283.72 375.965 1283.74 375.819C1283.75 375.673 1283.8 375.531 1283.87 375.403C1283.94 375.275 1284.04 375.162 1284.16 375.071C1284.27 374.979 1284.4 374.912 1284.54 374.872C1284.69 374.832 1284.83 374.82 1284.98 374.838C1285.13 374.855 1285.27 374.901 1285.4 374.973C1350.35 411.389 1413.84 345.541 1414.48 344.87C1414.59 344.747 1414.74 344.653 1414.89 344.593C1415.05 344.534 1415.22 344.51 1415.39 344.525Z" fill="#B86A4B"/>
<path d="M1244.06 278.372C1247.04 281.673 1344.44 398.587 1344.44 398.587C1344.44 398.587 1369.88 425.033 1394.7 426.298C1396.43 426.349 1398.15 426.035 1399.74 425.374C1401.34 424.713 1402.78 423.722 1403.96 422.465C1405.15 421.209 1406.06 419.715 1406.62 418.082C1407.19 416.449 1407.41 414.714 1407.26 412.991L1401.02 328.494C1400.8 325.604 1401.2 322.7 1402.17 319.971C1403.14 317.242 1404.68 314.747 1406.67 312.647C1408.67 310.548 1411.08 308.89 1413.75 307.78C1416.43 306.67 1419.3 306.133 1422.2 306.203C1427.46 306.462 1432.44 308.661 1436.18 312.376C1439.92 316.092 1442.15 321.061 1442.45 326.325L1448.96 414.264C1448.96 414.264 1476.56 439.973 1465.05 537.053C1465 537.405 1464.94 537.783 1464.91 538.156L1465.95 539.018L1465.95 539.04L1577.24 632.425L1536.77 744.576L1396.98 629.402L1395.83 628.448C1395.83 628.448 1395.44 628.48 1394.72 628.492C1386.73 628.5 1335.78 625.547 1257.93 553.061L1242.6 541.034C1201.27 535.845 1136.18 516.53 1126.76 513.996C1119.01 511.898 1107.96 496.711 1110.04 488.972C1111.04 485.246 1113.48 482.072 1116.82 480.147C1120.16 478.222 1124.13 477.704 1127.85 478.707C1142.92 482.763 1161.56 486.823 1180.33 490.307C1199.12 493.786 1218.05 496.69 1233.7 498.433C1233.7 498.433 1244.83 497.694 1238.6 487.008L1119.66 409.512C1112.76 405.435 1107.83 394.072 1111.88 387.144C1115.99 380.245 1133.61 374.707 1140.51 378.784L1255.03 444.107L1255.05 444.103C1255.4 444.031 1260.91 442.816 1260.59 437.463L1147.61 333.033C1141.8 327.498 1145.54 313.27 1151.07 307.456C1156.59 301.642 1172.26 302.352 1178.09 307.883L1289.06 406.255C1289.11 406.265 1289.17 406.27 1289.22 406.267C1290.28 406.363 1291.33 406.156 1292.27 405.67C1293.21 405.184 1293.99 404.44 1294.52 403.524C1295.05 402.609 1295.31 401.562 1295.27 400.504C1295.22 399.447 1294.88 398.424 1294.27 397.556C1265.32 356.146 1218.77 303.718 1216.2 299.146C1211.16 290.116 1211.34 283.975 1217.28 278.603C1223.26 273.244 1238.68 272.405 1244.06 278.372Z" fill="#633322"/>
<path d="M1419.99 598.303C1420.26 598.273 1420.55 598.348 1420.77 598.513C1421 598.677 1421.16 598.92 1421.22 599.195C1421.23 599.225 1421.23 599.258 1421.21 599.287C1421.77 602.685 1421.62 606.159 1420.79 609.5C1419.96 612.84 1418.47 615.977 1416.39 618.719C1410.18 626.526 1400.24 628.851 1396.97 629.403L1395.82 628.45C1395.82 628.45 1395.44 628.482 1394.71 628.494C1394.7 628.213 1394.79 627.937 1394.97 627.722C1395.15 627.506 1395.41 627.368 1395.68 627.335C1396.75 627.208 1421.84 624.032 1419.01 599.554C1418.99 599.408 1419 599.259 1419.04 599.116C1419.08 598.973 1419.14 598.84 1419.23 598.723C1419.33 598.607 1419.44 598.51 1419.57 598.438C1419.7 598.366 1419.84 598.32 1419.99 598.303ZM1464.99 537.042C1465.01 537.038 1465.01 537.038 1465.04 537.055C1465 537.407 1464.94 537.785 1464.9 538.158L1465.94 539.02L1465.95 539.042C1462.91 571.46 1439.19 578.291 1438.95 578.34C1438.81 578.379 1438.66 578.39 1438.51 578.372C1438.37 578.354 1438.23 578.308 1438.1 578.235C1437.97 578.162 1437.86 578.065 1437.77 577.948C1437.68 577.832 1437.62 577.699 1437.58 577.557C1437.54 577.415 1437.53 577.267 1437.55 577.122C1437.57 576.976 1437.62 576.836 1437.69 576.709C1437.76 576.582 1437.86 576.472 1437.98 576.383C1438.1 576.295 1438.23 576.23 1438.37 576.194C1439.3 575.936 1461.19 569.547 1463.79 538.066C1463.8 537.918 1463.84 537.775 1463.9 537.643C1463.97 537.511 1464.06 537.394 1464.17 537.299C1464.29 537.203 1464.42 537.131 1464.56 537.087C1464.7 537.043 1464.85 537.028 1464.99 537.042ZM1313.12 441.36C1323.4 491.716 1284.23 542.92 1283.79 543.497C1283.7 543.613 1283.58 543.71 1283.46 543.782C1283.33 543.855 1283.19 543.902 1283.04 543.92C1282.9 543.938 1282.75 543.927 1282.61 543.888C1282.46 543.849 1282.33 543.782 1282.22 543.692C1282.1 543.602 1282 543.489 1281.93 543.361C1281.86 543.234 1281.81 543.093 1281.79 542.947C1281.77 542.801 1281.79 542.653 1281.82 542.511C1281.86 542.369 1281.93 542.236 1282.02 542.12C1282.52 541.479 1331.44 477.484 1304.55 423.148C1304.42 422.882 1304.4 422.575 1304.49 422.293C1304.59 422.012 1304.79 421.78 1305.05 421.648C1305.32 421.516 1305.63 421.495 1305.91 421.59C1306.19 421.685 1306.42 421.888 1306.55 422.154C1309.57 428.245 1311.77 434.701 1313.12 441.36ZM1415.33 556.543C1415.37 556.749 1415.35 556.964 1415.28 557.161C1415.2 557.358 1415.08 557.531 1414.91 557.658C1414.74 557.786 1414.54 557.863 1414.33 557.882C1414.12 557.9 1413.91 557.859 1413.72 557.763C1412.89 557.337 1330.25 514.256 1347 439.895C1347.07 439.605 1347.24 439.353 1347.5 439.195C1347.75 439.036 1348.05 438.984 1348.34 439.049C1348.63 439.115 1348.88 439.293 1349.04 439.544C1349.2 439.796 1349.25 440.1 1349.18 440.389C1332.79 513.071 1413.92 555.348 1414.74 555.768C1414.89 555.844 1415.02 555.954 1415.12 556.088C1415.22 556.222 1415.29 556.378 1415.33 556.543Z" fill="#471301"/>
</g>
<defs>
<clipPath id="clip0_1057_1415">
<rect width="728" height="770" fill="white" transform="translate(-165 73)"/>
</clipPath>
<clipPath id="clip1_1057_1415">
<rect width="728" height="770" fill="white" transform="translate(935.587 867.281) rotate(-101.536)"/>
</clipPath>
</defs>
</svg>
