<svg width="535" height="521" viewBox="0 0 535 521" fill="none" xmlns="http://www.w3.org/2000/svg">
<g filter="url(#filter0_d_871_1004)">
<g clip-path="url(#clip0_871_1004)">
<rect x="48" y="36" width="439" height="425" rx="12" fill="#734FAE"/>
<rect x="48" y="36" width="439" height="96" fill="#FFC759"/>
<path d="M238.411 61.244L235.415 60.964H231.271L231.019 64.604V65.892H236.395L236.619 65.08H237.151L236.983 68.916H236.451L236.311 67.796H231.019V70.484L231.271 74.096H235.415L238.635 73.788L239.111 72.668L239.587 72.78L238.719 76.756L238.215 76.728L238.243 76H227.659L227.631 75.468L228.471 75.272L228.807 70.456V64.576L228.471 59.788L227.631 59.592L227.659 59.06H238.495L238.719 58.248H239.251L239.083 62.364H238.551L238.411 61.244ZM243.647 75.272L243.983 70.456V64.576L243.647 59.816L242.807 59.62L242.835 59.088C245.859 59.0133 247.866 58.976 248.855 58.976C253.092 58.976 255.211 60.6 255.211 63.848C255.211 65.304 254.772 66.452 253.895 67.292C253.036 68.132 251.795 68.5893 250.171 68.664L255.883 75.272L256.751 75.468L256.723 76H251.263L251.235 75.412L252.411 75.272L249.387 70.876L246.531 67.6L246.587 67.32C248.976 67.2453 250.572 66.984 251.375 66.536C252.196 66.088 252.607 65.2293 252.607 63.96C252.607 61.7573 251.319 60.656 248.743 60.656C248.015 60.656 247.25 60.7587 246.447 60.964L246.195 64.604V70.484L246.531 75.272L247.707 75.412L247.679 76H242.835L242.807 75.468L243.647 75.272ZM265.452 60.488C263.921 60.488 262.745 61.0947 261.924 62.308C261.102 63.5027 260.692 65.22 260.692 67.46C260.692 69.6813 261.121 71.4267 261.98 72.696C262.857 73.9467 264.033 74.572 265.508 74.572C267.001 74.572 268.588 74.0867 270.268 73.116L270.744 71.996L271.248 72.108L270.268 76.56H269.708L269.736 75.86C268.485 76.2333 267.085 76.42 265.536 76.42C263.165 76.42 261.317 75.664 259.992 74.152C258.666 72.64 258.004 70.5027 258.004 67.74C258.004 64.9587 258.722 62.7467 260.16 61.104C261.597 59.4613 263.548 58.64 266.012 58.64C267.244 58.64 268.55 58.8733 269.932 59.34L270.128 58.64H270.66L270.464 62.952H269.932L269.736 61.776C268.093 60.9173 266.665 60.488 265.452 60.488ZM273.337 70.26V68.3L279.945 67.964V69.924L273.337 70.26ZM281.972 76L281.636 74.964C284.716 72.1267 286.779 70.0827 287.824 68.832C288.87 67.5813 289.392 66.5733 289.392 65.808C289.392 65.0427 289.15 64.4733 288.664 64.1C288.198 63.708 287.591 63.512 286.844 63.512C286.098 63.512 285.388 63.6333 284.716 63.876C284.044 64.1187 283.503 64.4267 283.092 64.8L283.008 65.864H282.532L282.336 61.804H282.784L283.008 62.42C284.483 62.0093 285.93 61.804 287.348 61.804C288.767 61.804 289.887 62.112 290.708 62.728C291.53 63.3253 291.94 64.1747 291.94 65.276C291.94 66.3587 291.427 67.5067 290.4 68.72C289.374 69.9147 287.32 71.828 284.24 74.46L288.776 74.292L291.912 73.844L292.36 72.808L292.864 72.92L292.164 76H281.972ZM301.542 63.512C300.31 63.512 299.34 64.016 298.63 65.024C297.921 66.032 297.566 67.4227 297.566 69.196C297.566 70.9507 297.902 72.3133 298.574 73.284C299.265 74.236 300.226 74.712 301.458 74.712C302.709 74.712 303.689 74.2173 304.398 73.228C305.108 72.22 305.462 70.8293 305.462 69.056C305.462 67.2827 305.117 65.92 304.426 64.968C303.754 63.9973 302.793 63.512 301.542 63.512ZM301.458 76.42C299.536 76.42 298.014 75.776 296.894 74.488C295.793 73.2 295.242 71.436 295.242 69.196C295.242 66.9373 295.812 65.1453 296.95 63.82C298.089 62.476 299.62 61.804 301.542 61.804C303.465 61.804 304.986 62.4573 306.106 63.764C307.226 65.052 307.786 66.816 307.786 69.056C307.786 71.296 307.208 73.088 306.05 74.432C304.912 75.7573 303.381 76.42 301.458 76.42Z" fill="black"/>
<path d="M211.165 109.48L211.405 106.04V101.84L211.165 98.42L210.565 98.28L210.585 97.9H213.805L213.825 98.28L213.225 98.42L212.985 101.86V106.06L213.225 109.48L213.825 109.62L213.805 110H210.585L210.565 109.62L211.165 109.48ZM216.029 110L216.009 109.62L216.609 109.48L216.789 106.46V105.58L216.609 102.56L215.929 102.42L215.949 102.04L218.529 101.82L218.469 102.74C219.376 102.06 220.249 101.72 221.089 101.72C221.929 101.72 222.563 101.973 222.989 102.48C223.429 102.987 223.649 103.693 223.649 104.6V106.46L223.809 109.48L224.409 109.62L224.389 110H221.089L221.069 109.58L221.929 109.48L222.109 106.46V104.68C222.109 104.173 221.963 103.787 221.669 103.52C221.389 103.24 220.943 103.1 220.329 103.1C219.729 103.1 219.096 103.34 218.429 103.82L218.329 105.58V106.46L218.489 109.48L219.389 109.58L219.369 110H216.029ZM226.005 105.9V104.5L230.725 104.26V105.66L226.005 105.9ZM236.433 101.72C237.247 101.72 237.947 101.887 238.533 102.22L240.993 101.62L240.873 103.02H239.373C239.653 103.46 239.793 103.98 239.793 104.58C239.793 105.553 239.467 106.32 238.813 106.88C238.173 107.427 237.287 107.7 236.153 107.7C235.593 107.7 235.08 107.627 234.613 107.48L234.013 108.5C234.453 108.767 235.347 108.9 236.693 108.9C238.04 108.9 238.967 109.067 239.473 109.4C239.993 109.733 240.253 110.26 240.253 110.98C240.253 111.993 239.82 112.8 238.953 113.4C238.1 114 236.947 114.3 235.493 114.3C233.253 114.3 232.133 113.64 232.133 112.32C232.133 111.493 232.607 110.753 233.553 110.1C233.047 109.913 232.793 109.573 232.793 109.08C232.793 108.587 233.133 107.913 233.813 107.06C233.147 106.553 232.813 105.813 232.813 104.84C232.813 103.867 233.133 103.107 233.773 102.56C234.427 102 235.313 101.72 236.433 101.72ZM235.673 113.22C236.567 113.22 237.3 113.06 237.873 112.74C238.447 112.42 238.733 112.033 238.733 111.58C238.733 111.127 238.54 110.807 238.153 110.62C237.767 110.447 237.147 110.36 236.293 110.36C235.44 110.36 234.8 110.333 234.373 110.28C233.88 110.787 233.633 111.34 233.633 111.94C233.633 112.793 234.313 113.22 235.673 113.22ZM236.293 102.78C235.08 102.78 234.473 103.427 234.473 104.72C234.473 106 235.08 106.64 236.293 106.64C237.52 106.64 238.133 105.987 238.133 104.68C238.133 104.027 237.98 103.547 237.673 103.24C237.38 102.933 236.92 102.78 236.293 102.78ZM242.996 101.5L243.176 101.94C244.03 101.793 244.756 101.72 245.356 101.72C246.49 101.72 247.356 101.96 247.956 102.44C248.57 102.907 248.876 103.587 248.876 104.48L248.836 106.46L249.016 109.46L249.696 109.6L249.676 109.98L247.196 110.16V109.34C246.41 109.98 245.61 110.3 244.796 110.3C243.983 110.3 243.343 110.08 242.876 109.64C242.423 109.2 242.196 108.593 242.196 107.82C242.196 107.047 242.53 106.473 243.196 106.1C243.863 105.713 245.243 105.347 247.336 105V104.48C247.336 103.96 247.183 103.56 246.876 103.28C246.583 102.987 246.143 102.84 245.556 102.84C244.97 102.84 244.216 103.033 243.296 103.42L243.216 104.16L242.876 104.18L242.676 101.5H242.996ZM247.296 106.14C245.923 106.393 245.01 106.627 244.556 106.84C244.116 107.04 243.896 107.347 243.896 107.76C243.896 108.173 244.036 108.513 244.316 108.78C244.596 109.047 244.996 109.18 245.516 109.18C246.05 109.18 246.61 108.887 247.196 108.3L247.296 106.14ZM264.778 110H261.478L261.458 109.58L262.318 109.48L262.498 106.46V104.68C262.498 104.173 262.358 103.787 262.078 103.52C261.811 103.24 261.371 103.1 260.758 103.1C260.145 103.1 259.531 103.34 258.918 103.82V106.46L259.078 109.48H259.098L259.958 109.58L259.938 110H256.358L256.338 109.58L257.198 109.48L257.378 106.46V104.68C257.378 104.173 257.238 103.787 256.958 103.52C256.691 103.24 256.265 103.1 255.678 103.1C255.091 103.1 254.498 103.34 253.898 103.82L253.798 105.58V106.46L253.958 109.48H253.978L254.838 109.58L254.818 110H251.498L251.478 109.62L252.078 109.48L252.258 106.46V105.58L252.078 102.56L251.398 102.42L251.418 102.04L253.998 101.82L253.938 102.74C254.818 102.06 255.691 101.72 256.558 101.72C257.425 101.72 258.085 102.1 258.538 102.86C259.591 102.1 260.618 101.72 261.618 101.72C262.365 101.72 262.951 101.98 263.378 102.5C263.818 103.007 264.038 103.707 264.038 104.6V106.46L264.198 109.48H264.218L264.798 109.62L264.778 110ZM270.056 110.3C268.989 110.3 268.109 109.933 267.416 109.2C266.736 108.467 266.396 107.453 266.396 106.16C266.396 104.853 266.749 103.787 267.456 102.96C268.162 102.133 269.096 101.72 270.256 101.72C271.429 101.72 272.296 101.987 272.856 102.52C273.416 103.053 273.696 103.887 273.696 105.02C273.696 105.34 273.676 105.68 273.636 106.04H268.116C268.116 106.987 268.322 107.747 268.736 108.32C269.149 108.893 269.742 109.18 270.516 109.18C271.289 109.18 272.062 108.887 272.836 108.3L272.976 107.48L273.316 107.5L273.456 110.28H273.136L272.956 109.82C272.089 110.14 271.122 110.3 270.056 110.3ZM268.156 105L272.036 104.98C272.036 104.22 271.889 103.673 271.596 103.34C271.302 103.007 270.842 102.84 270.216 102.84C268.976 102.84 268.289 103.56 268.156 105ZM279.166 97.82L281.706 97.96H284.606L287.146 97.82L287.246 97.24H287.626L287.706 100.08H287.326L287.146 99.3L284.146 99.2L283.966 101.86V106.06L284.206 109.48L285.106 109.62L285.086 110H281.266L281.246 109.62L282.146 109.48L282.386 106.04V101.84L282.186 99.2L279.166 99.3L278.986 100.08H278.606L278.686 97.24H279.066L279.166 97.82ZM292.743 109.18C294.156 109.18 294.863 108.2 294.863 106.24C294.863 103.973 294.043 102.84 292.403 102.84C291.669 102.84 291.136 103.073 290.803 103.54C290.483 103.993 290.323 104.773 290.323 105.88C290.323 108.08 291.129 109.18 292.743 109.18ZM292.543 110.3C291.303 110.3 290.336 109.94 289.643 109.22C288.949 108.487 288.603 107.46 288.603 106.14C288.603 104.807 288.969 103.74 289.703 102.94C290.436 102.127 291.423 101.72 292.663 101.72C293.916 101.72 294.883 102.08 295.563 102.8C296.256 103.507 296.603 104.533 296.603 105.88C296.603 107.213 296.236 108.287 295.503 109.1C294.769 109.9 293.783 110.3 292.543 110.3ZM298.332 97.94L300.912 97.72L300.712 101.48V106.46L300.872 109.48L302.072 109.62L302.052 110H298.412L298.392 109.62L298.992 109.48L299.172 106.46V101.48L298.992 98.46L298.312 98.32L298.332 97.94ZM301.072 105.6V105.46L302.832 103.76L303.632 102.54L302.732 102.44L302.752 102.02H306.332L306.352 102.4L305.752 102.54L302.872 105.38L306.132 109.48L306.752 109.62L306.732 110H304.072L303.092 108.18L301.072 105.6ZM311.013 110.3C309.946 110.3 309.066 109.933 308.373 109.2C307.693 108.467 307.353 107.453 307.353 106.16C307.353 104.853 307.706 103.787 308.413 102.96C309.119 102.133 310.053 101.72 311.213 101.72C312.386 101.72 313.253 101.987 313.813 102.52C314.373 103.053 314.653 103.887 314.653 105.02C314.653 105.34 314.633 105.68 314.593 106.04H309.073C309.073 106.987 309.279 107.747 309.693 108.32C310.106 108.893 310.699 109.18 311.473 109.18C312.246 109.18 313.019 108.887 313.793 108.3L313.933 107.48L314.273 107.5L314.413 110.28H314.093L313.913 109.82C313.046 110.14 312.079 110.3 311.013 110.3ZM309.113 105L312.993 104.98C312.993 104.22 312.846 103.673 312.553 103.34C312.259 103.007 311.799 102.84 311.173 102.84C309.933 102.84 309.246 103.56 309.113 105ZM316.459 110L316.439 109.62L317.039 109.48L317.219 106.46V105.58L317.039 102.56L316.359 102.42L316.379 102.04L318.959 101.82L318.899 102.74C319.806 102.06 320.679 101.72 321.519 101.72C322.359 101.72 322.992 101.973 323.419 102.48C323.859 102.987 324.079 103.693 324.079 104.6V106.46L324.239 109.48L324.839 109.62L324.819 110H321.519L321.499 109.58L322.359 109.48L322.539 106.46V104.68C322.539 104.173 322.392 103.787 322.099 103.52C321.819 103.24 321.372 103.1 320.759 103.1C320.159 103.1 319.526 103.34 318.859 103.82L318.759 105.58V106.46L318.919 109.48L319.819 109.58L319.799 110H316.459Z" fill="black"/>
<rect x="45" y="33" width="445" height="102" stroke="white" stroke-opacity="0.2" stroke-width="6"/>
<rect x="48" y="360" width="439" height="101" rx="12" fill="#FFC759"/>
<path d="M242.443 398.216C242.763 398.408 243.009 398.504 243.179 398.504C243.371 398.504 243.659 398.365 244.043 398.088C244.427 397.789 244.619 397.565 244.619 397.416C244.619 397.245 244.481 397.043 244.203 396.808C243.926 396.573 243.243 396.211 242.155 395.72C241.089 395.208 240.097 394.664 239.179 394.088C238.262 393.512 237.665 392.947 237.387 392.392C237.11 391.837 236.971 391.251 236.971 390.632C236.971 390.013 237.078 389.48 237.291 389.032C237.505 388.584 238.091 387.923 239.051 387.048C240.033 386.173 240.918 385.533 241.707 385.128V382.6H244.587V385.224C246.486 386.077 247.873 387.251 248.747 388.744L245.131 391.24L244.875 390.888C243.937 389.693 243.243 389.096 242.795 389.096C242.561 389.096 242.251 389.245 241.867 389.544C241.483 389.821 241.291 390.056 241.291 390.248C241.291 390.419 241.419 390.611 241.675 390.824C241.953 391.037 242.614 391.411 243.659 391.944C244.726 392.477 245.729 393.043 246.667 393.64C247.627 394.216 248.246 394.749 248.523 395.24C248.801 395.709 248.939 396.424 248.939 397.384C248.939 398.323 248.779 398.995 248.459 399.4C248.161 399.805 247.617 400.307 246.827 400.904C246.059 401.501 245.313 401.992 244.587 402.376V405H241.707V402.344C240.875 402.067 240.011 401.608 239.115 400.968C238.241 400.307 237.59 399.603 237.163 398.856L240.779 396.36L241.035 396.712C241.675 397.523 242.145 398.024 242.443 398.216ZM256.103 383.88C257.511 382.771 258.578 382.216 259.303 382.216C260.028 382.216 261.148 382.92 262.663 384.328C264.199 385.715 265.148 386.845 265.511 387.72C265.746 388.275 265.863 389.672 265.863 391.912V395.688C265.863 397.928 265.746 399.325 265.511 399.88C265.127 400.712 264.199 401.779 262.727 403.08C261.255 404.36 260.092 405 259.239 405H252.615V391.304C252.615 389.576 252.487 388.36 252.231 387.656C251.996 386.952 251.484 386.12 250.695 385.16L254.919 382.216C255.367 382.557 255.762 383.112 256.103 383.88ZM259.239 386.792C258.62 386.792 257.852 386.995 256.935 387.4C256.999 387.848 257.031 388.531 257.031 389.448V401.128H259.239C259.538 401.128 259.89 400.915 260.295 400.488C260.722 400.04 261.02 399.624 261.191 399.24C261.362 398.835 261.447 397.757 261.447 396.008V391.912C261.447 390.163 261.362 389.096 261.191 388.712C261.02 388.307 260.722 387.891 260.295 387.464C259.89 387.016 259.538 386.792 259.239 386.792ZM272.685 392.296V395.688C272.685 397.437 272.77 398.515 272.941 398.92C273.111 399.304 273.399 399.72 273.805 400.168C274.231 400.595 274.605 400.808 274.925 400.808C275.245 400.808 275.65 400.584 276.141 400.136C276.631 399.688 276.973 399.283 277.165 398.92C277.293 398.557 277.367 398.024 277.389 397.32H275.181V393.768H281.549V405H278.445L278.061 402.824C276.589 404.531 275.501 405.384 274.797 405.384C274.093 405.384 272.973 404.691 271.437 403.304C269.922 401.896 268.983 400.755 268.621 399.88C268.386 399.325 268.269 397.928 268.269 395.688V392.296C268.269 389.629 268.482 387.923 268.909 387.176C269.335 386.429 270.242 385.416 271.629 384.136C273.037 382.856 274.082 382.216 274.765 382.216C275.938 382.216 277.282 382.899 278.797 384.264C280.311 385.629 281.271 387.123 281.677 388.744L278.125 391.208C277.783 390.056 277.239 388.989 276.493 388.008C275.746 387.027 275.223 386.536 274.925 386.536C274.391 386.536 273.783 387.059 273.101 388.104C272.823 388.509 272.685 389.907 272.685 392.296ZM289.468 388.072L289.5 389.448V405H285.084V391.304C285.084 389.512 284.956 388.253 284.7 387.528C284.465 386.803 283.953 385.928 283.164 384.904L287.004 382.216C287.622 382.621 288.198 383.315 288.732 384.296C290.417 382.909 291.558 382.216 292.156 382.216C292.753 382.216 293.692 382.781 294.972 383.912C296.273 385.021 297.084 385.811 297.404 386.28C297.724 386.728 297.884 387.325 297.884 388.072V405H293.436V388.712C293.436 388.52 293.35 388.285 293.18 388.008C293.03 387.709 292.785 387.379 292.444 387.016C292.124 386.653 291.814 386.472 291.516 386.472C291.238 386.472 290.886 386.643 290.46 386.984C290.033 387.304 289.702 387.667 289.468 388.072Z" fill="black"/>
<path d="M205.99 442.3L205.35 442.98C204.23 441.953 203.357 440.673 202.73 439.14C202.117 437.607 201.81 435.973 201.81 434.24C201.81 432.493 202.117 430.873 202.73 429.38C203.357 427.887 204.23 426.653 205.35 425.68L205.99 426.36C205.257 427.093 204.677 428.18 204.25 429.62C203.823 431.06 203.61 432.647 203.61 434.38C203.61 436.1 203.817 437.667 204.23 439.08C204.657 440.493 205.243 441.567 205.99 442.3ZM207.894 438.46L208.134 435.04V430.86L207.894 427.44L207.294 427.3L207.314 426.92C208.94 426.867 210.507 426.84 212.014 426.84C214 426.84 215.474 427.313 216.434 428.26C217.394 429.207 217.874 430.707 217.874 432.76C217.874 436.96 215.847 439.06 211.794 439.06L207.314 438.98L207.294 438.6L207.894 438.46ZM209.714 435.06L209.874 437.46C210.54 437.673 211.294 437.78 212.134 437.78C214.747 437.78 216.054 436.213 216.054 433.08C216.054 431.373 215.707 430.107 215.014 429.28C214.32 428.453 213.254 428.04 211.814 428.04C211.187 428.04 210.547 428.147 209.894 428.36L209.714 430.88V435.06ZM220.527 434.58L220.347 431.56L219.667 431.42L219.687 431.04L222.267 430.82L222.067 434.58V436.34C222.067 436.847 222.207 437.24 222.487 437.52C222.781 437.787 223.241 437.92 223.867 437.92C224.494 437.92 225.121 437.68 225.747 437.2L225.847 435.44V434.58L225.667 431.56L224.987 431.42L225.007 431.04L227.587 430.82L227.387 434.58V435.44L227.567 438.46L228.247 438.6L228.227 438.98L225.647 439.2L225.687 438.28C224.807 438.96 223.941 439.3 223.087 439.3C222.247 439.3 221.607 439.047 221.167 438.54C220.741 438.033 220.527 437.327 220.527 436.42V434.58ZM230.043 439L230.023 438.62L230.623 438.48L230.803 435.46V434.58L230.623 431.56L229.943 431.42L229.963 431.04L232.543 430.82L232.483 431.74C233.39 431.06 234.263 430.72 235.103 430.72C235.943 430.72 236.576 430.973 237.003 431.48C237.443 431.987 237.663 432.693 237.663 433.6V435.46L237.823 438.48L238.423 438.62L238.403 439H235.103L235.083 438.58L235.943 438.48L236.123 435.46V433.68C236.123 433.173 235.976 432.787 235.683 432.52C235.403 432.24 234.956 432.1 234.343 432.1C233.743 432.1 233.11 432.34 232.443 432.82L232.343 434.58V435.46L232.503 438.48L233.403 438.58L233.383 439H230.043ZM244.119 430.72C244.932 430.72 245.632 430.887 246.219 431.22L248.679 430.62L248.559 432.02H247.059C247.339 432.46 247.479 432.98 247.479 433.58C247.479 434.553 247.152 435.32 246.499 435.88C245.859 436.427 244.972 436.7 243.839 436.7C243.279 436.7 242.765 436.627 242.299 436.48L241.699 437.5C242.139 437.767 243.032 437.9 244.379 437.9C245.725 437.9 246.652 438.067 247.159 438.4C247.679 438.733 247.939 439.26 247.939 439.98C247.939 440.993 247.505 441.8 246.639 442.4C245.785 443 244.632 443.3 243.179 443.3C240.939 443.3 239.819 442.64 239.819 441.32C239.819 440.493 240.292 439.753 241.239 439.1C240.732 438.913 240.479 438.573 240.479 438.08C240.479 437.587 240.819 436.913 241.499 436.06C240.832 435.553 240.499 434.813 240.499 433.84C240.499 432.867 240.819 432.107 241.459 431.56C242.112 431 242.999 430.72 244.119 430.72ZM243.359 442.22C244.252 442.22 244.985 442.06 245.559 441.74C246.132 441.42 246.419 441.033 246.419 440.58C246.419 440.127 246.225 439.807 245.839 439.62C245.452 439.447 244.832 439.36 243.979 439.36C243.125 439.36 242.485 439.333 242.059 439.28C241.565 439.787 241.319 440.34 241.319 440.94C241.319 441.793 241.999 442.22 243.359 442.22ZM243.979 431.78C242.765 431.78 242.159 432.427 242.159 433.72C242.159 435 242.765 435.64 243.979 435.64C245.205 435.64 245.819 434.987 245.819 433.68C245.819 433.027 245.665 432.547 245.359 432.24C245.065 431.933 244.605 431.78 243.979 431.78ZM253.542 439.3C252.475 439.3 251.595 438.933 250.902 438.2C250.222 437.467 249.882 436.453 249.882 435.16C249.882 433.853 250.235 432.787 250.942 431.96C251.649 431.133 252.582 430.72 253.742 430.72C254.915 430.72 255.782 430.987 256.342 431.52C256.902 432.053 257.182 432.887 257.182 434.02C257.182 434.34 257.162 434.68 257.122 435.04H251.602C251.602 435.987 251.809 436.747 252.222 437.32C252.635 437.893 253.229 438.18 254.002 438.18C254.775 438.18 255.549 437.887 256.322 437.3L256.462 436.48L256.802 436.5L256.942 439.28H256.622L256.442 438.82C255.575 439.14 254.609 439.3 253.542 439.3ZM251.642 434L255.522 433.98C255.522 433.22 255.375 432.673 255.082 432.34C254.789 432.007 254.329 431.84 253.702 431.84C252.462 431.84 251.775 432.56 251.642 434ZM262.928 438.18C264.342 438.18 265.048 437.2 265.048 435.24C265.048 432.973 264.228 431.84 262.588 431.84C261.855 431.84 261.322 432.073 260.988 432.54C260.668 432.993 260.508 433.773 260.508 434.88C260.508 437.08 261.315 438.18 262.928 438.18ZM262.728 439.3C261.488 439.3 260.522 438.94 259.828 438.22C259.135 437.487 258.788 436.46 258.788 435.14C258.788 433.807 259.155 432.74 259.888 431.94C260.622 431.127 261.608 430.72 262.848 430.72C264.102 430.72 265.068 431.08 265.748 431.8C266.442 432.507 266.788 433.533 266.788 434.88C266.788 436.213 266.422 437.287 265.688 438.1C264.955 438.9 263.968 439.3 262.728 439.3ZM268.598 439L268.578 438.62L269.178 438.48L269.358 435.46V434.58L269.178 431.56L268.498 431.42L268.518 431.04L271.098 430.82L271.038 431.74C271.944 431.06 272.818 430.72 273.658 430.72C274.498 430.72 275.131 430.973 275.558 431.48C275.998 431.987 276.218 432.693 276.218 433.6V435.46L276.378 438.48L276.978 438.62L276.958 439H273.658L273.638 438.58L274.498 438.48L274.678 435.46V433.68C274.678 433.173 274.531 432.787 274.238 432.52C273.958 432.24 273.511 432.1 272.898 432.1C272.298 432.1 271.664 432.34 270.998 432.82L270.898 434.58V435.46L271.058 438.48L271.958 438.58L271.938 439H268.598ZM282.437 426.82L284.977 426.96H287.877L290.417 426.82L290.517 426.24H290.897L290.977 429.08H290.597L290.417 428.3L287.417 428.2L287.237 430.86V435.06L287.477 438.48L288.377 438.62L288.357 439H284.537L284.517 438.62L285.417 438.48L285.657 435.04V430.84L285.457 428.2L282.437 428.3L282.257 429.08H281.877L281.957 426.24H282.337L282.437 426.82ZM296.014 438.18C297.428 438.18 298.134 437.2 298.134 435.24C298.134 432.973 297.314 431.84 295.674 431.84C294.941 431.84 294.408 432.073 294.074 432.54C293.754 432.993 293.594 433.773 293.594 434.88C293.594 437.08 294.401 438.18 296.014 438.18ZM295.814 439.3C294.574 439.3 293.608 438.94 292.914 438.22C292.221 437.487 291.874 436.46 291.874 435.14C291.874 433.807 292.241 432.74 292.974 431.94C293.708 431.127 294.694 430.72 295.934 430.72C297.188 430.72 298.154 431.08 298.834 431.8C299.528 432.507 299.874 433.533 299.874 434.88C299.874 436.213 299.508 437.287 298.774 438.1C298.041 438.9 297.054 439.3 295.814 439.3ZM301.604 426.94L304.184 426.72L303.984 430.48V435.46L304.144 438.48L305.344 438.62L305.324 439H301.684L301.664 438.62L302.264 438.48L302.444 435.46V430.48L302.264 427.46L301.584 427.32L301.604 426.94ZM304.344 434.6V434.46L306.104 432.76L306.904 431.54L306.004 431.44L306.024 431.02H309.604L309.624 431.4L309.024 431.54L306.144 434.38L309.404 438.48L310.024 438.62L310.004 439H307.344L306.364 437.18L304.344 434.6ZM314.284 439.3C313.218 439.3 312.338 438.933 311.644 438.2C310.964 437.467 310.624 436.453 310.624 435.16C310.624 433.853 310.978 432.787 311.684 431.96C312.391 431.133 313.324 430.72 314.484 430.72C315.658 430.72 316.524 430.987 317.084 431.52C317.644 432.053 317.924 432.887 317.924 434.02C317.924 434.34 317.904 434.68 317.864 435.04H312.344C312.344 435.987 312.551 436.747 312.964 437.32C313.378 437.893 313.971 438.18 314.744 438.18C315.518 438.18 316.291 437.887 317.064 437.3L317.204 436.48L317.544 436.5L317.684 439.28H317.364L317.184 438.82C316.318 439.14 315.351 439.3 314.284 439.3ZM312.384 434L316.264 433.98C316.264 433.22 316.118 432.673 315.824 432.34C315.531 432.007 315.071 431.84 314.444 431.84C313.204 431.84 312.518 432.56 312.384 434ZM319.73 439L319.71 438.62L320.31 438.48L320.49 435.46V434.58L320.31 431.56L319.63 431.42L319.65 431.04L322.23 430.82L322.17 431.74C323.077 431.06 323.95 430.72 324.79 430.72C325.63 430.72 326.264 430.973 326.69 431.48C327.13 431.987 327.35 432.693 327.35 433.6V435.46L327.51 438.48L328.11 438.62L328.09 439H324.79L324.77 438.58L325.63 438.48L325.81 435.46V433.68C325.81 433.173 325.664 432.787 325.37 432.52C325.09 432.24 324.644 432.1 324.03 432.1C323.43 432.1 322.797 432.34 322.13 432.82L322.03 434.58V435.46L322.19 438.48L323.09 438.58L323.07 439H319.73ZM329.006 442.3C329.753 441.567 330.333 440.493 330.746 439.08C331.173 437.667 331.386 436.1 331.386 434.38C331.386 432.647 331.173 431.06 330.746 429.62C330.32 428.18 329.74 427.093 329.006 426.36L329.646 425.68C330.766 426.653 331.633 427.887 332.246 429.38C332.873 430.873 333.186 432.493 333.186 434.24C333.186 435.973 332.873 437.607 332.246 439.14C331.633 440.673 330.766 441.953 329.646 442.98L329.006 442.3Z" fill="black"/>
</g>
<rect x="44" y="32" width="447" height="433" rx="16" stroke="black" stroke-width="8" stroke-linecap="round" stroke-dasharray="16 16"/>
</g>
<defs>
<filter id="filter0_d_871_1004" x="0" y="0" width="535" height="521" filterUnits="userSpaceOnUse" color-interpolation-filters="sRGB">
<feFlood flood-opacity="0" result="BackgroundImageFix"/>
<feColorMatrix in="SourceAlpha" type="matrix" values="0 0 0 0 0 0 0 0 0 0 0 0 0 0 0 0 0 0 127 0" result="hardAlpha"/>
<feOffset dy="12"/>
<feGaussianBlur stdDeviation="20"/>
<feComposite in2="hardAlpha" operator="out"/>
<feColorMatrix type="matrix" values="0 0 0 0 0.568627 0 0 0 0 0.380392 0 0 0 0 0.878431 0 0 0 0.4 0"/>
<feBlend mode="normal" in2="BackgroundImageFix" result="effect1_dropShadow_871_1004"/>
<feBlend mode="normal" in="SourceGraphic" in2="effect1_dropShadow_871_1004" result="shape"/>
</filter>
<clipPath id="clip0_871_1004">
<rect x="48" y="36" width="439" height="425" rx="12" fill="white"/>
</clipPath>
</defs>
</svg>
