<svg width="356" height="409" viewBox="0 0 356 409" fill="none" xmlns="http://www.w3.org/2000/svg">
<g opacity="0.1" clip-path="url(#clip0_836_939)">
<path d="M0 34.3672V37.6656V229.632L29.0258 248.103L117.423 108.911L0 34.3672Z" fill="#05365B"/>
<path d="M409 37.6656V34.3672L291.577 108.911L379.974 248.103L409 229.632V37.6656Z" fill="#008C61"/>
<path d="M333.137 276.467C358.205 260.635 364.802 226.332 347.65 199.945L326.54 166.961C309.389 140.574 275.745 131.998 250.677 147.83L175.474 195.327C150.406 211.159 143.81 245.462 160.961 271.85L182.071 304.833C199.223 331.221 232.866 339.796 257.934 323.964L333.137 276.467Z" fill="#923C19"/>
<path d="M323.902 282.404C333.137 276.466 335.776 263.933 329.839 254.697C323.902 245.462 311.368 242.823 302.132 248.76L163.6 336.497C154.364 342.434 151.726 354.968 157.663 364.203C163.6 373.439 176.134 376.078 185.369 370.141L323.902 282.404Z" fill="#923C19"/>
<path d="M161.621 271.85L182.731 304.834C199.882 331.221 233.526 339.796 258.594 323.964L333.797 276.467C358.864 260.635 365.461 226.332 348.31 199.945L327.2 166.961" fill="#D3856A"/>
<path d="M238.143 250.079C247.379 244.142 250.018 231.608 244.081 222.373C238.143 213.137 225.61 210.499 216.374 216.436L77.8419 304.833C68.6064 310.77 65.9677 323.304 71.9048 332.539C77.8419 341.775 90.3757 344.413 99.6112 338.476L238.143 250.079Z" fill="#923C19"/>
<path d="M267.169 276.466C276.405 270.529 279.043 257.995 273.106 248.76C267.169 239.524 254.635 236.885 245.4 242.822L106.868 331.219C97.6323 337.156 94.9936 349.69 100.931 358.926C106.868 368.161 119.402 370.8 128.637 364.863L267.169 276.466Z" fill="#923C19"/>
<path d="M237.484 204.564C246.719 198.627 249.358 186.093 243.421 176.857C237.484 167.622 224.95 164.983 215.715 170.92L77.1823 259.317C67.9468 265.254 65.3081 277.788 71.2452 287.023C77.1823 296.259 89.7162 298.898 98.9517 292.96L237.484 204.564Z" fill="#923C19"/>
<path d="M265.19 141.234C265.19 141.234 187.348 152.449 180.752 154.428C174.815 156.407 156.344 201.265 177.453 206.542C199.223 211.82 233.526 184.113 233.526 184.113L265.19 141.234Z" fill="#923C19"/>
<path d="M304.811 116.48L284.211 129.578L360.676 249.832L381.275 236.734L304.811 116.48Z" fill="white"/>
<path d="M304.771 116.824L284.321 130.018L360.844 250.079" fill="#DFE2E5"/>
<path d="M409 34.3672L291.577 108.911L379.974 248.103" fill="#006D49"/>
<path d="M331.158 304.177L318.624 296.261C325.881 296.921 333.797 293.622 337.755 287.026C343.692 277.79 341.053 265.256 331.818 259.319L239.463 200.608C246.06 186.755 232.866 157.069 228.248 155.09C222.311 153.111 151.066 143.216 144.469 141.897C122.04 135.3 96.3128 145.195 82.4596 166.964L61.3499 199.948C44.1983 226.335 50.7951 260.639 75.8628 276.471L81.7999 280.429C82.4596 281.089 83.7789 282.408 85.0983 283.068L223.631 371.464C232.866 377.401 245.4 374.763 251.337 365.527C254.635 360.25 255.295 354.313 253.316 349.035L279.703 366.187C288.939 372.124 301.472 369.485 307.41 360.25C312.027 353.653 311.368 345.077 307.41 339.14L308.729 339.8C317.964 345.737 330.498 343.098 336.435 333.863C343.692 322.648 341.053 310.114 331.158 304.177Z" fill="#D98157"/>
<path d="M230.227 363.543C226.269 360.904 224.95 356.287 227.589 352.328L230.227 347.711C232.866 343.753 237.484 342.433 241.442 345.072C245.4 347.711 246.719 352.328 244.081 356.287L241.442 360.904C239.463 364.862 234.186 366.182 230.227 363.543Z" fill="#EFA68F"/>
<path d="M315.986 331.223C312.027 328.584 310.708 323.966 313.347 320.008L315.986 315.39C318.624 311.432 323.242 310.113 327.2 312.752C331.158 315.39 332.477 320.008 329.839 323.966L327.2 328.584C325.221 332.542 319.944 333.861 315.986 331.223Z" fill="#EFA68F"/>
<path d="M286.96 357.609C283.002 354.971 281.682 350.353 284.321 346.395L286.96 341.777C289.598 337.819 294.216 336.5 298.174 339.138C302.132 341.777 303.452 346.395 300.813 350.353L298.174 354.971C295.536 358.929 290.918 360.248 286.96 357.609Z" fill="#EFA68F"/>
<path d="M316.645 286.363C312.687 283.725 311.368 279.107 314.006 275.149L316.645 270.531C319.284 266.573 323.902 265.254 327.86 267.892C331.818 270.531 333.137 275.149 330.498 279.107L328.519 283.725C325.881 287.683 320.603 288.342 316.645 286.363Z" fill="#EFA68F"/>
<path d="M27.5768 237.022L48.1748 250.117L124.621 129.87L104.023 116.775L27.5768 237.022Z" fill="white"/>
<path d="M104.229 116.824L124.679 130.018L48.1565 250.079" fill="#DFE2E5"/>
<path d="M0 34.3672L117.423 108.911L29.0258 248.103" fill="#00263D"/>
<path d="M46.1773 161.026C42.2192 167.622 33.6434 168.942 27.7063 164.984C21.1096 161.026 19.7902 152.45 23.7483 146.513C27.7063 139.916 36.2821 138.596 42.2192 142.555C48.1563 146.513 50.1354 155.088 46.1773 161.026Z" fill="#FFC114"/>
<path d="M331.818 258.658L239.463 199.947C246.06 186.093 232.866 156.408 228.248 154.429C225.61 153.109 207.139 150.471 188.008 147.832L166.898 213.8L340.394 269.213C339.074 265.255 336.435 261.297 331.818 258.658Z" fill="#DA8A69"/>
<path d="M244.081 159.046C250.018 168.942 252.657 194.669 244.74 199.287L178.113 213.8C170.197 218.417 159.642 213.8 153.705 204.564C147.768 194.669 149.747 183.455 157.663 178.837L205.16 151.13C213.076 146.513 237.484 147.832 243.421 157.067L244.081 159.046Z" fill="#923C19"/>
</g>
<defs>
<clipPath id="clip0_836_939">
<rect width="409" height="409" fill="white"/>
</clipPath>
</defs>
</svg>
