<svg width="535" height="521" viewBox="0 0 535 521" fill="none" xmlns="http://www.w3.org/2000/svg">
<g filter="url(#filter0_d_871_1004)">
<g clip-path="url(#clip0_871_1004)">
<rect x="48" y="36" width="439" height="425" rx="12" fill="#734FAE"/>
<rect x="48" y="36" width="439" height="96" fill="#FFC759"/>
<path d="M235.335 61.244L232.339 60.964H228.195L227.943 64.604V65.892H233.319L233.543 65.08H234.075L233.907 68.916H233.375L233.235 67.796H227.943V70.484L228.195 74.096H232.339L235.559 73.788L236.035 72.668L236.511 72.78L235.643 76.756L235.139 76.728L235.167 76H224.583L224.555 75.468L225.395 75.272L225.731 70.456V64.576L225.395 59.788L224.555 59.592L224.583 59.06H235.419L235.643 58.248H236.175L236.007 62.364H235.475L235.335 61.244ZM240.571 75.272L240.907 70.456V64.576L240.571 59.816L239.731 59.62L239.759 59.088C242.783 59.0133 244.789 58.976 245.779 58.976C250.016 58.976 252.135 60.6 252.135 63.848C252.135 65.304 251.696 66.452 250.819 67.292C249.96 68.132 248.719 68.5893 247.095 68.664L252.807 75.272L253.675 75.468L253.647 76H248.187L248.159 75.412L249.335 75.272L246.311 70.876L243.455 67.6L243.511 67.32C245.9 67.2453 247.496 66.984 248.299 66.536C249.12 66.088 249.531 65.2293 249.531 63.96C249.531 61.7573 248.243 60.656 245.667 60.656C244.939 60.656 244.173 60.7587 243.371 60.964L243.119 64.604V70.484L243.455 75.272L244.631 75.412L244.603 76H239.759L239.731 75.468L240.571 75.272ZM262.375 60.488C260.845 60.488 259.669 61.0947 258.847 62.308C258.026 63.5027 257.615 65.22 257.615 67.46C257.615 69.6813 258.045 71.4267 258.903 72.696C259.781 73.9467 260.957 74.572 262.431 74.572C263.925 74.572 265.511 74.0867 267.191 73.116L267.667 71.996L268.171 72.108L267.191 76.56H266.631L266.659 75.86C265.409 76.2333 264.009 76.42 262.459 76.42C260.089 76.42 258.241 75.664 256.915 74.152C255.59 72.64 254.927 70.5027 254.927 67.74C254.927 64.9587 255.646 62.7467 257.083 61.104C258.521 59.4613 260.471 58.64 262.935 58.64C264.167 58.64 265.474 58.8733 266.855 59.34L267.051 58.64H267.583L267.387 62.952H266.855L266.659 61.776C265.017 60.9173 263.589 60.488 262.375 60.488ZM270.261 70.26V68.3L276.869 67.964V69.924L270.261 70.26ZM278.728 61.636L278.952 62.252H288.976L289.116 63.12L281.388 78.66L279.148 77.68L283.012 71.408L286.736 63.96H281.668L279.008 64.212L278.924 65.276H278.448L278.28 61.636H278.728ZM290.162 76L289.826 74.964C292.906 72.1267 294.968 70.0827 296.014 68.832C297.059 67.5813 297.582 66.5733 297.582 65.808C297.582 65.0427 297.339 64.4733 296.854 64.1C296.387 63.708 295.78 63.512 295.034 63.512C294.287 63.512 293.578 63.6333 292.906 63.876C292.234 64.1187 291.692 64.4267 291.282 64.8L291.198 65.864H290.722L290.526 61.804H290.974L291.198 62.42C292.672 62.0093 294.119 61.804 295.538 61.804C296.956 61.804 298.076 62.112 298.898 62.728C299.719 63.3253 300.13 64.1747 300.13 65.276C300.13 66.3587 299.616 67.5067 298.59 68.72C297.563 69.9147 295.51 71.828 292.43 74.46L296.966 74.292L300.102 73.844L300.55 72.808L301.054 72.92L300.354 76H290.162ZM306.064 71.044V67.18L305.84 63.232L303.32 62.756L303.348 62.224H310.964L310.992 62.756L308.444 63.232L308.22 67.18V71.044L308.444 74.992L310.964 75.468L310.936 76H303.32L303.292 75.468L305.84 74.992L306.064 71.044Z" fill="black"/>
<path d="M226.937 109.48L227.177 106.04V101.84L226.917 98.42L226.337 98.28L226.357 97.9H229.677L229.697 98.32L228.817 98.42H228.797L235.097 107.08V101.84L234.837 98.42L234.037 98.32L234.057 97.9H237.357L237.377 98.28L236.777 98.42L236.537 101.86V105.52L236.777 109.48L237.377 109.62L237.357 110H234.117L234.097 109.58L234.997 109.48L228.617 100.74V106.06L228.857 109.48L229.657 109.58L229.637 110H226.357L226.337 109.62L226.937 109.48ZM242.194 106.06L242.434 109.48L243.314 109.58L243.294 110H239.794L239.774 109.62L240.374 109.48L240.614 106.04V101.84L240.374 98.42L239.774 98.28L239.794 97.9H247.534L247.694 97.32H248.074L247.954 100.26H247.574L247.474 99.46L245.334 99.26H242.374L242.194 101.86V103.28H246.034L246.194 102.7H246.574L246.454 105.44H246.074L245.974 104.64H242.194V106.06ZM249.137 97.82L251.677 97.96H254.577L257.117 97.82L257.217 97.24H257.597L257.677 100.08H257.297L257.117 99.3L254.117 99.2L253.937 101.86V106.06L254.177 109.48L255.077 109.62L255.057 110H251.237L251.217 109.62L252.117 109.48L252.357 106.04V101.84L252.157 99.2L249.137 99.3L248.957 100.08H248.577L248.657 97.24H249.037L249.137 97.82ZM270.037 106.98L269.657 105.92H265.097L264.697 106.98L264.097 109.48L264.957 109.58L264.937 110H261.597L261.577 109.62L262.177 109.48L266.697 98.42L265.937 98.28L265.957 97.9H269.237L269.257 98.28L268.497 98.42L272.677 109.48L273.277 109.62L273.257 110H269.697L269.677 109.58L270.537 109.48L270.037 106.98ZM267.477 99.86L265.617 104.58H269.177L267.477 99.86ZM274.306 110.02L273.986 110.42L273.686 110.32L274.506 107.86L274.826 107.92L274.746 108.74C275.426 109.033 276.046 109.18 276.606 109.18C277.166 109.18 277.593 109.08 277.886 108.88C278.179 108.68 278.326 108.413 278.326 108.08C278.326 107.747 278.173 107.473 277.866 107.26C277.559 107.033 277.186 106.84 276.746 106.68C276.306 106.507 275.866 106.32 275.426 106.12C274.999 105.92 274.633 105.64 274.326 105.28C274.019 104.92 273.866 104.453 273.866 103.88C273.866 103.293 274.186 102.787 274.826 102.36C275.466 101.933 276.279 101.72 277.266 101.72C277.839 101.72 278.419 101.793 279.006 101.94L279.186 101.48H279.506L279.386 104.16L279.046 104.14L278.946 103.4C278.026 103 277.286 102.8 276.726 102.8C275.806 102.8 275.346 103.107 275.346 103.72C275.346 103.987 275.499 104.22 275.806 104.42C276.126 104.62 276.506 104.8 276.946 104.96C277.386 105.12 277.826 105.3 278.266 105.5C278.706 105.7 279.079 105.987 279.386 106.36C279.706 106.733 279.866 107.18 279.866 107.7C279.866 108.487 279.539 109.12 278.886 109.6C278.233 110.067 277.366 110.3 276.286 110.3C275.686 110.3 275.026 110.207 274.306 110.02ZM281.884 110.02L281.564 110.42L281.264 110.32L282.084 107.86L282.404 107.92L282.324 108.74C283.004 109.033 283.624 109.18 284.184 109.18C284.744 109.18 285.171 109.08 285.464 108.88C285.757 108.68 285.904 108.413 285.904 108.08C285.904 107.747 285.751 107.473 285.444 107.26C285.137 107.033 284.764 106.84 284.324 106.68C283.884 106.507 283.444 106.32 283.004 106.12C282.577 105.92 282.211 105.64 281.904 105.28C281.597 104.92 281.444 104.453 281.444 103.88C281.444 103.293 281.764 102.787 282.404 102.36C283.044 101.933 283.857 101.72 284.844 101.72C285.417 101.72 285.997 101.793 286.584 101.94L286.764 101.48H287.084L286.964 104.16L286.624 104.14L286.524 103.4C285.604 103 284.864 102.8 284.304 102.8C283.384 102.8 282.924 103.107 282.924 103.72C282.924 103.987 283.077 104.22 283.384 104.42C283.704 104.62 284.084 104.8 284.524 104.96C284.964 105.12 285.404 105.3 285.844 105.5C286.284 105.7 286.657 105.987 286.964 106.36C287.284 106.733 287.444 107.18 287.444 107.7C287.444 108.487 287.117 109.12 286.464 109.6C285.811 110.067 284.944 110.3 283.864 110.3C283.264 110.3 282.604 110.207 281.884 110.02ZM292.702 110.3C291.636 110.3 290.756 109.933 290.062 109.2C289.382 108.467 289.042 107.453 289.042 106.16C289.042 104.853 289.396 103.787 290.102 102.96C290.809 102.133 291.742 101.72 292.902 101.72C294.076 101.72 294.942 101.987 295.502 102.52C296.062 103.053 296.342 103.887 296.342 105.02C296.342 105.34 296.322 105.68 296.282 106.04H290.762C290.762 106.987 290.969 107.747 291.382 108.32C291.796 108.893 292.389 109.18 293.162 109.18C293.936 109.18 294.709 108.887 295.482 108.3L295.622 107.48L295.962 107.5L296.102 110.28H295.782L295.602 109.82C294.736 110.14 293.769 110.3 292.702 110.3ZM290.802 105L294.682 104.98C294.682 104.22 294.536 103.673 294.242 103.34C293.949 103.007 293.489 102.84 292.862 102.84C291.622 102.84 290.936 103.56 290.802 105ZM298.608 107.84L298.688 103L297.648 103.04V102.38L298.688 102.02L299.788 100.02H300.108L300.228 102.02H302.248L302.148 102.88L300.228 102.96V107.46C300.228 108.313 300.315 108.867 300.488 109.12C300.662 109.36 301.055 109.48 301.668 109.48H302.448L302.488 109.82C301.995 110.14 301.382 110.3 300.648 110.3C299.915 110.3 299.388 110.113 299.068 109.74C298.762 109.367 298.608 108.733 298.608 107.84ZM303.505 110.02L303.185 110.42L302.885 110.32L303.705 107.86L304.025 107.92L303.945 108.74C304.625 109.033 305.245 109.18 305.805 109.18C306.365 109.18 306.792 109.08 307.085 108.88C307.378 108.68 307.525 108.413 307.525 108.08C307.525 107.747 307.372 107.473 307.065 107.26C306.758 107.033 306.385 106.84 305.945 106.68C305.505 106.507 305.065 106.32 304.625 106.12C304.198 105.92 303.832 105.64 303.525 105.28C303.218 104.92 303.065 104.453 303.065 103.88C303.065 103.293 303.385 102.787 304.025 102.36C304.665 101.933 305.478 101.72 306.465 101.72C307.038 101.72 307.618 101.793 308.205 101.94L308.385 101.48H308.705L308.585 104.16L308.245 104.14L308.145 103.4C307.225 103 306.485 102.8 305.925 102.8C305.005 102.8 304.545 103.107 304.545 103.72C304.545 103.987 304.698 104.22 305.005 104.42C305.325 104.62 305.705 104.8 306.145 104.96C306.585 105.12 307.025 105.3 307.465 105.5C307.905 105.7 308.278 105.987 308.585 106.36C308.905 106.733 309.065 107.18 309.065 107.7C309.065 108.487 308.738 109.12 308.085 109.6C307.432 110.067 306.565 110.3 305.485 110.3C304.885 110.3 304.225 110.207 303.505 110.02Z" fill="black"/>
<rect x="45" y="33" width="445" height="102" stroke="white" stroke-opacity="0.2" stroke-width="6"/>
<rect x="48" y="360" width="439" height="101" rx="12" fill="#FFC759"/>
<path d="M77.2941 392.296V395.688C77.2941 397.437 77.3795 398.515 77.5501 398.92C77.7208 399.304 78.0088 399.72 78.4141 400.168C78.8408 400.595 79.2141 400.808 79.5341 400.808C79.8541 400.808 80.2595 400.584 80.7501 400.136C81.2408 399.688 81.5821 399.283 81.7741 398.92C81.9021 398.557 81.9768 398.024 81.9981 397.32H79.7901V393.768H86.1581V405H83.0541L82.6701 402.824C81.1981 404.531 80.1101 405.384 79.4061 405.384C78.7021 405.384 77.5821 404.691 76.0461 403.304C74.5315 401.896 73.5928 400.755 73.2301 399.88C72.9955 399.325 72.8781 397.928 72.8781 395.688V392.296C72.8781 389.629 73.0915 387.923 73.5181 387.176C73.9448 386.429 74.8515 385.416 76.2381 384.136C77.6461 382.856 78.6915 382.216 79.3741 382.216C80.5475 382.216 81.8915 382.899 83.4061 384.264C84.9208 385.629 85.8808 387.123 86.2861 388.744L82.7341 391.208C82.3928 390.056 81.8488 388.989 81.1021 388.008C80.3555 387.027 79.8328 386.536 79.5341 386.536C79.0008 386.536 78.3928 387.059 77.7101 388.104C77.4328 388.509 77.2941 389.907 77.2941 392.296ZM100.573 387.752V400.872C100.701 401.619 101.202 402.28 102.077 402.856L99.1971 405.32C98.9198 405.128 98.5785 404.787 98.1731 404.296C97.7678 403.805 97.4265 403.304 97.1491 402.792C95.3785 404.52 94.1411 405.384 93.4371 405.384C92.9251 405.384 92.0931 404.819 90.9411 403.688C89.8105 402.557 89.1065 401.64 88.8291 400.936C88.5518 400.232 88.4131 398.717 88.4131 396.392C88.4131 394.045 88.5518 392.52 88.8291 391.816C89.1065 391.112 89.8105 390.195 90.9411 389.064C92.0931 387.933 92.9251 387.368 93.4371 387.368C94.1838 387.368 95.3891 388.136 97.0531 389.672L97.4371 387.752H100.573ZM96.1251 392.648C95.9758 392.371 95.6665 392.093 95.1971 391.816C94.7491 391.517 94.4078 391.368 94.1731 391.368C93.9385 391.368 93.6825 391.507 93.4051 391.784C93.1491 392.061 92.9785 392.317 92.8931 392.552C92.6158 392.936 92.4771 394.216 92.4771 396.392C92.4771 398.547 92.6158 399.816 92.8931 400.2C92.9785 400.413 93.1491 400.669 93.4051 400.968C93.6825 401.245 93.9385 401.384 94.1731 401.384C94.4078 401.384 94.7491 401.245 95.1971 400.968C95.6665 400.669 95.9651 400.403 96.0931 400.168C96.2425 399.933 96.3278 398.685 96.3491 396.424C96.3491 394.163 96.2745 392.904 96.1251 392.648ZM115.923 405H111.699V393.096C111.699 392.733 111.507 392.36 111.123 391.976C110.739 391.571 110.408 391.368 110.131 391.368C109.875 391.368 109.448 391.624 108.851 392.136V405H104.627V393.96C104.627 392.872 104.499 392.029 104.243 391.432C103.987 390.835 103.582 390.312 103.027 389.864L106.547 387.4C107.251 387.997 107.774 388.605 108.115 389.224C109.502 387.987 110.462 387.368 110.995 387.368C111.315 387.368 111.838 387.603 112.563 388.072C113.288 388.541 113.95 389.107 114.547 389.768C116.232 388.168 117.395 387.368 118.035 387.368C118.696 387.368 119.678 387.965 120.979 389.16C122.302 390.333 122.963 391.496 122.963 392.648V398.824C122.963 399.912 123.091 400.755 123.347 401.352C123.603 401.949 124.008 402.472 124.563 402.92L121.043 405.384C119.507 404.168 118.739 402.44 118.739 400.2V393.096C118.739 392.733 118.547 392.36 118.163 391.976C117.779 391.571 117.459 391.368 117.203 391.368C116.968 391.368 116.52 391.635 115.859 392.168C115.902 392.381 115.923 392.541 115.923 392.648V405ZM137.975 396.328V397.48H130.231C130.231 398.76 130.391 399.773 130.711 400.52C130.818 400.776 131.01 401.043 131.287 401.32C131.564 401.576 131.852 401.704 132.151 401.704C132.45 401.704 132.823 401.448 133.271 400.936C133.719 400.424 134.071 399.805 134.327 399.08L137.623 401.416C137.047 402.483 136.162 403.411 134.967 404.2C133.794 404.989 132.844 405.384 132.119 405.384C131.394 405.384 130.338 404.819 128.951 403.688C127.586 402.557 126.754 401.683 126.455 401.064C126.156 400.424 126.007 398.867 126.007 396.392C126.007 393.896 126.156 392.339 126.455 391.72C126.754 391.08 127.586 390.195 128.951 389.064C130.338 387.933 131.351 387.368 131.991 387.368C132.631 387.368 133.634 387.933 134.999 389.064C136.386 390.195 137.228 391.08 137.527 391.72C137.826 392.339 137.975 393.875 137.975 396.328ZM133.527 392.328C133.378 392.029 133.132 391.741 132.791 391.464C132.471 391.187 132.162 391.048 131.863 391.048C131.586 391.048 131.266 391.336 130.903 391.912C130.54 392.467 130.316 393.309 130.231 394.44H133.879C133.815 393.309 133.698 392.605 133.527 392.328ZM148.066 395.304V392.296C148.066 389.629 148.279 387.923 148.706 387.176C149.132 386.429 150.039 385.416 151.426 384.136C152.834 382.856 153.879 382.216 154.562 382.216C155.735 382.216 157.079 382.899 158.594 384.264C160.108 385.608 161.068 387.091 161.474 388.712L157.922 391.176C157.58 390.024 157.036 388.968 156.29 388.008C155.543 387.027 155.02 386.536 154.722 386.536C154.188 386.536 153.58 387.059 152.898 388.104C152.62 388.509 152.482 389.907 152.482 392.296V395.304C152.482 397.757 152.62 399.155 152.898 399.496C153.58 400.541 154.188 401.064 154.722 401.064C155.02 401.064 155.543 400.648 156.29 399.816C157.036 398.963 157.58 398.024 157.922 397L161.474 399.496C161.068 400.968 160.108 402.323 158.594 403.56C157.079 404.776 155.735 405.384 154.562 405.384C153.879 405.384 152.834 404.744 151.426 403.464C150.039 402.184 149.132 401.171 148.706 400.424C148.279 399.677 148.066 397.971 148.066 395.304ZM168.882 405H164.658V387.528C164.658 386.44 164.53 385.608 164.274 385.032C164.018 384.456 163.613 383.933 163.058 383.464L166.578 381C168.114 382.216 168.882 383.933 168.882 386.152V389.128C170.205 387.955 171.165 387.368 171.762 387.368C172.359 387.368 173.309 387.965 174.61 389.16C175.933 390.333 176.594 391.496 176.594 392.648V398.824C176.594 399.912 176.722 400.755 176.978 401.352C177.234 401.949 177.639 402.472 178.194 402.92L174.674 405.384C173.138 404.168 172.37 402.44 172.37 400.2V393.096C172.37 392.733 172.178 392.36 171.794 391.976C171.41 391.571 171.047 391.368 170.706 391.368C170.386 391.368 169.778 391.816 168.882 392.712V405ZM191.792 387.752V400.872C191.92 401.619 192.421 402.28 193.296 402.856L190.416 405.32C190.139 405.128 189.797 404.787 189.392 404.296C188.987 403.805 188.645 403.304 188.368 402.792C186.597 404.52 185.36 405.384 184.656 405.384C184.144 405.384 183.312 404.819 182.16 403.688C181.029 402.557 180.325 401.64 180.048 400.936C179.771 400.232 179.632 398.717 179.632 396.392C179.632 394.045 179.771 392.52 180.048 391.816C180.325 391.112 181.029 390.195 182.16 389.064C183.312 387.933 184.144 387.368 184.656 387.368C185.403 387.368 186.608 388.136 188.272 389.672L188.656 387.752H191.792ZM187.344 392.648C187.195 392.371 186.885 392.093 186.416 391.816C185.968 391.517 185.627 391.368 185.392 391.368C185.157 391.368 184.901 391.507 184.624 391.784C184.368 392.061 184.197 392.317 184.112 392.552C183.835 392.936 183.696 394.216 183.696 396.392C183.696 398.547 183.835 399.816 184.112 400.2C184.197 400.413 184.368 400.669 184.624 400.968C184.901 401.245 185.157 401.384 185.392 401.384C185.627 401.384 185.968 401.245 186.416 400.968C186.885 400.669 187.184 400.403 187.312 400.168C187.461 399.933 187.547 398.685 187.568 396.424C187.568 394.163 187.493 392.904 187.344 392.648ZM200.07 405H195.846V393.96C195.846 392.872 195.707 392.029 195.43 391.432C195.174 390.813 194.779 390.28 194.246 389.832L197.766 387.368C198.534 388.008 199.12 388.755 199.526 389.608C201.104 388.115 202.214 387.368 202.854 387.368C203.28 387.368 203.931 387.763 204.806 388.552C205.68 389.341 206.192 390.205 206.342 391.144L202.918 393.608C202.896 393.096 202.768 392.595 202.534 392.104C202.32 391.613 202.128 391.368 201.958 391.368C201.595 391.368 200.966 391.816 200.07 392.712V405ZM219.136 387.752V400.872C219.264 401.619 219.765 402.28 220.64 402.856L217.76 405.32C217.482 405.128 217.141 404.787 216.736 404.296C216.33 403.805 215.989 403.304 215.712 402.792C213.941 404.52 212.704 405.384 212 405.384C211.488 405.384 210.656 404.819 209.504 403.688C208.373 402.557 207.669 401.64 207.392 400.936C207.114 400.232 206.976 398.717 206.976 396.392C206.976 394.045 207.114 392.52 207.392 391.816C207.669 391.112 208.373 390.195 209.504 389.064C210.656 387.933 211.488 387.368 212 387.368C212.746 387.368 213.952 388.136 215.616 389.672L216 387.752H219.136ZM214.688 392.648C214.538 392.371 214.229 392.093 213.76 391.816C213.312 391.517 212.97 391.368 212.736 391.368C212.501 391.368 212.245 391.507 211.968 391.784C211.712 392.061 211.541 392.317 211.456 392.552C211.178 392.936 211.04 394.216 211.04 396.392C211.04 398.547 211.178 399.816 211.456 400.2C211.541 400.413 211.712 400.669 211.968 400.968C212.245 401.245 212.501 401.384 212.736 401.384C212.97 401.384 213.312 401.245 213.76 400.968C214.229 400.669 214.528 400.403 214.656 400.168C214.805 399.933 214.89 398.685 214.912 396.424C214.912 394.163 214.837 392.904 214.688 392.648ZM222.741 401.48C222.293 400.776 222.069 399.08 222.069 396.392C222.069 393.704 222.293 391.997 222.741 391.272C223.061 390.739 223.851 389.96 225.109 388.936C226.368 387.891 227.339 387.368 228.021 387.368C228.725 387.368 229.664 387.784 230.837 388.616C232.032 389.427 232.928 390.355 233.525 391.4L230.229 393.672C229.952 393.16 229.568 392.595 229.077 391.976C228.608 391.357 228.256 391.048 228.021 391.048C227.595 391.048 227.104 391.496 226.549 392.392C226.272 392.947 226.133 394.28 226.133 396.392C226.133 398.483 226.272 399.805 226.549 400.36C226.72 400.637 226.944 400.936 227.221 401.256C227.499 401.555 227.776 401.704 228.053 401.704C228.331 401.704 228.693 401.459 229.141 400.968C229.589 400.477 229.952 399.848 230.229 399.08L233.525 401.384C232.949 402.451 232.064 403.389 230.869 404.2C229.696 404.989 228.757 405.384 228.053 405.384C227.349 405.384 226.368 404.872 225.109 403.848C223.851 402.803 223.061 402.013 222.741 401.48ZM240.195 391.112V398.184C240.195 399.187 240.536 400.104 241.219 400.936C241.901 401.768 242.84 402.429 244.035 402.92L240.515 405.384C239.235 404.787 238.157 403.965 237.283 402.92C236.408 401.853 235.971 400.733 235.971 399.56V391.112H234.371V388.712L235.971 388.328C235.928 387.283 235.8 386.461 235.587 385.864C235.373 385.245 234.968 384.648 234.371 384.072L237.891 381.608C239.427 382.824 240.195 384.552 240.195 386.792V387.752H243.779V391.112H240.195ZM257.756 396.328V397.48H250.012C250.012 398.76 250.172 399.773 250.492 400.52C250.599 400.776 250.791 401.043 251.068 401.32C251.345 401.576 251.633 401.704 251.932 401.704C252.231 401.704 252.604 401.448 253.052 400.936C253.5 400.424 253.852 399.805 254.108 399.08L257.404 401.416C256.828 402.483 255.943 403.411 254.748 404.2C253.575 404.989 252.625 405.384 251.9 405.384C251.175 405.384 250.119 404.819 248.732 403.688C247.367 402.557 246.535 401.683 246.236 401.064C245.937 400.424 245.788 398.867 245.788 396.392C245.788 393.896 245.937 392.339 246.236 391.72C246.535 391.08 247.367 390.195 248.732 389.064C250.119 387.933 251.132 387.368 251.772 387.368C252.412 387.368 253.415 387.933 254.78 389.064C256.167 390.195 257.009 391.08 257.308 391.72C257.607 392.339 257.756 393.875 257.756 396.328ZM253.308 392.328C253.159 392.029 252.913 391.741 252.572 391.464C252.252 391.187 251.943 391.048 251.644 391.048C251.367 391.048 251.047 391.336 250.684 391.912C250.321 392.467 250.097 393.309 250.012 394.44H253.66C253.596 393.309 253.479 392.605 253.308 392.328ZM265.351 405H261.127V393.96C261.127 392.872 260.988 392.029 260.711 391.432C260.455 390.813 260.06 390.28 259.527 389.832L263.047 387.368C263.815 388.008 264.402 388.755 264.807 389.608C266.386 388.115 267.495 387.368 268.135 387.368C268.562 387.368 269.212 387.763 270.087 388.552C270.962 389.341 271.474 390.205 271.623 391.144L268.199 393.608C268.178 393.096 268.05 392.595 267.815 392.104C267.602 391.613 267.41 391.368 267.239 391.368C266.876 391.368 266.247 391.816 265.351 392.712V405ZM283.681 399.816C283.681 400.477 282.86 401.576 281.217 403.112C279.574 404.627 278.348 405.384 277.537 405.384C276.748 405.384 275.756 404.989 274.561 404.2C273.388 403.411 272.513 402.483 271.937 401.416L275.233 399.144C276.3 400.637 277.078 401.384 277.569 401.384C277.932 401.384 278.38 401.203 278.913 400.84C279.446 400.477 279.713 400.136 279.713 399.816C279.713 399.731 279.457 399.549 278.945 399.272C278.433 398.973 277.804 398.611 277.057 398.184C276.332 397.736 275.606 397.245 274.881 396.712C274.156 396.157 273.537 395.485 273.025 394.696C272.513 393.907 272.257 393.107 272.257 392.296C272.257 391.485 272.982 390.461 274.433 389.224C275.884 387.987 276.993 387.368 277.761 387.368C278.55 387.368 279.532 387.763 280.705 388.552C281.9 389.341 282.785 390.269 283.361 391.336L280.065 393.608C278.998 392.115 278.22 391.368 277.729 391.368C277.473 391.368 277.153 391.517 276.769 391.816C276.406 392.093 276.225 392.349 276.225 392.584C276.225 392.819 276.609 393.181 277.377 393.672C278.166 394.163 279.02 394.675 279.937 395.208C280.876 395.72 281.729 396.403 282.497 397.256C283.286 398.088 283.681 398.941 283.681 399.816ZM302.056 391.72V395.272H300.488C300.211 395.357 299.88 395.549 299.496 395.848C299.112 396.147 298.845 396.413 298.696 396.648C298.568 396.883 298.504 397.331 298.504 397.992C298.504 398.632 298.6 399.08 298.792 399.336C299.005 399.592 299.389 399.901 299.944 400.264C300.499 400.627 300.968 400.808 301.352 400.808C301.757 400.808 302.248 400.627 302.824 400.264C303.421 399.901 303.795 399.56 303.944 399.24C304.157 398.728 304.264 397.747 304.264 396.296C304.264 394.824 304.2 393.821 304.072 393.288C303.944 392.733 303.688 392.072 303.304 391.304L306.888 388.808C307.528 389.405 308.008 390.376 308.328 391.72H312.776V395.272H308.68V398.312C308.68 398.803 308.765 399.24 308.936 399.624C309.256 400.413 309.565 400.808 309.864 400.808C310.163 400.808 310.621 400.477 311.24 399.816L314.408 402.024C313.619 402.899 312.787 403.677 311.912 404.36C311.037 405.043 310.355 405.384 309.864 405.384C309.075 405.384 307.816 404.456 306.088 402.6C303.976 404.456 302.397 405.384 301.352 405.384C300.52 405.384 299.283 404.733 297.64 403.432C296.019 402.109 294.952 401.032 294.44 400.2C294.205 399.837 294.088 399.08 294.088 397.928C294.088 396.755 294.205 395.997 294.44 395.656C294.909 394.952 295.848 394.024 297.256 392.872C296.317 391.933 295.709 391.24 295.432 390.792C295.176 390.323 295.048 389.512 295.048 388.36C295.048 387.187 295.197 386.397 295.496 385.992C295.795 385.565 296.691 384.829 298.184 383.784C299.677 382.739 300.701 382.216 301.256 382.216C301.832 382.216 302.653 382.621 303.72 383.432C304.808 384.221 305.661 384.947 306.28 385.608L303.208 387.816C303.037 387.56 302.739 387.272 302.312 386.952C301.907 386.632 301.576 386.472 301.32 386.472C301.085 386.472 300.787 386.621 300.424 386.92C300.061 387.197 299.816 387.464 299.688 387.72C299.56 387.976 299.496 388.339 299.496 388.808C299.496 389.277 299.56 389.672 299.688 389.992C299.837 390.312 300.125 390.685 300.552 391.112C301 391.517 301.373 391.72 301.672 391.72H302.056ZM324.972 395.304V392.296C324.972 389.629 325.185 387.923 325.612 387.176C326.039 386.429 326.945 385.416 328.332 384.136C329.74 382.856 330.785 382.216 331.468 382.216C332.641 382.216 333.985 382.899 335.5 384.264C337.015 385.608 337.975 387.091 338.38 388.712L334.828 391.176C334.487 390.024 333.943 388.968 333.196 388.008C332.449 387.027 331.927 386.536 331.628 386.536C331.095 386.536 330.487 387.059 329.804 388.104C329.527 388.509 329.388 389.907 329.388 392.296V395.304C329.388 397.757 329.527 399.155 329.804 399.496C330.487 400.541 331.095 401.064 331.628 401.064C331.927 401.064 332.449 400.648 333.196 399.816C333.943 398.963 334.487 398.024 334.828 397L338.38 399.496C337.975 400.968 337.015 402.323 335.5 403.56C333.985 404.776 332.641 405.384 331.468 405.384C330.785 405.384 329.74 404.744 328.332 403.464C326.945 402.184 326.039 401.171 325.612 400.424C325.185 399.677 324.972 397.971 324.972 395.304ZM345.628 401.224C345.97 401.544 346.236 401.704 346.428 401.704C346.62 401.704 346.876 401.544 347.196 401.224C347.538 400.904 347.783 400.616 347.932 400.36C348.21 399.891 348.348 398.568 348.348 396.392C348.348 394.216 348.21 392.883 347.932 392.392C347.783 392.136 347.538 391.848 347.196 391.528C346.876 391.208 346.62 391.048 346.428 391.048C346.236 391.048 345.97 391.208 345.628 391.528C345.308 391.848 345.074 392.136 344.924 392.392C344.647 392.861 344.508 394.184 344.508 396.36C344.508 398.536 344.647 399.869 344.924 400.36C345.074 400.616 345.308 400.904 345.628 401.224ZM349.308 403.816C348.007 404.861 347.047 405.384 346.428 405.384C345.81 405.384 344.839 404.861 343.516 403.816C342.215 402.771 341.415 401.992 341.116 401.48C340.668 400.691 340.444 398.984 340.444 396.36C340.444 393.736 340.668 392.04 341.116 391.272C341.415 390.76 342.215 389.981 343.516 388.936C344.839 387.891 345.81 387.368 346.428 387.368C347.047 387.368 348.007 387.891 349.308 388.936C350.631 389.981 351.442 390.76 351.74 391.272C352.188 392.04 352.412 393.736 352.412 396.36C352.412 398.984 352.188 400.691 351.74 401.48C351.442 401.992 350.631 402.771 349.308 403.816ZM354.479 381H358.703V398.824C358.703 399.912 358.831 400.755 359.087 401.352C359.343 401.949 359.749 402.472 360.303 402.92L356.783 405.384C355.247 404.168 354.479 402.44 354.479 400.2V381ZM361.917 381H366.141V398.824C366.141 399.912 366.269 400.755 366.525 401.352C366.781 401.949 367.186 402.472 367.741 402.92L364.221 405.384C362.685 404.168 361.917 402.44 361.917 400.2V381ZM381.162 396.328V397.48H373.418C373.418 398.76 373.578 399.773 373.898 400.52C374.005 400.776 374.197 401.043 374.474 401.32C374.752 401.576 375.04 401.704 375.338 401.704C375.637 401.704 376.01 401.448 376.458 400.936C376.906 400.424 377.258 399.805 377.514 399.08L380.81 401.416C380.234 402.483 379.349 403.411 378.154 404.2C376.981 404.989 376.032 405.384 375.306 405.384C374.581 405.384 373.525 404.819 372.138 403.688C370.773 402.557 369.941 401.683 369.642 401.064C369.344 400.424 369.194 398.867 369.194 396.392C369.194 393.896 369.344 392.339 369.642 391.72C369.941 391.08 370.773 390.195 372.138 389.064C373.525 387.933 374.538 387.368 375.178 387.368C375.818 387.368 376.821 387.933 378.186 389.064C379.573 390.195 380.416 391.08 380.714 391.72C381.013 392.339 381.162 393.875 381.162 396.328ZM376.714 392.328C376.565 392.029 376.32 391.741 375.978 391.464C375.658 391.187 375.349 391.048 375.05 391.048C374.773 391.048 374.453 391.336 374.09 391.912C373.728 392.467 373.504 393.309 373.418 394.44H377.066C377.002 393.309 376.885 392.605 376.714 392.328ZM384.085 401.48C383.637 400.776 383.413 399.08 383.413 396.392C383.413 393.704 383.637 391.997 384.085 391.272C384.405 390.739 385.194 389.96 386.453 388.936C387.712 387.891 388.682 387.368 389.365 387.368C390.069 387.368 391.008 387.784 392.181 388.616C393.376 389.427 394.272 390.355 394.869 391.4L391.573 393.672C391.296 393.16 390.912 392.595 390.421 391.976C389.952 391.357 389.6 391.048 389.365 391.048C388.938 391.048 388.448 391.496 387.893 392.392C387.616 392.947 387.477 394.28 387.477 396.392C387.477 398.483 387.616 399.805 387.893 400.36C388.064 400.637 388.288 400.936 388.565 401.256C388.842 401.555 389.12 401.704 389.397 401.704C389.674 401.704 390.037 401.459 390.485 400.968C390.933 400.477 391.296 399.848 391.573 399.08L394.869 401.384C394.293 402.451 393.408 403.389 392.213 404.2C391.04 404.989 390.101 405.384 389.397 405.384C388.693 405.384 387.712 404.872 386.453 403.848C385.194 402.803 384.405 402.013 384.085 401.48ZM401.538 391.112V398.184C401.538 399.187 401.88 400.104 402.562 400.936C403.245 401.768 404.184 402.429 405.378 402.92L401.858 405.384C400.578 404.787 399.501 403.965 398.626 402.92C397.752 401.853 397.314 400.733 397.314 399.56V391.112H395.714V388.712L397.314 388.328C397.272 387.283 397.144 386.461 396.93 385.864C396.717 385.245 396.312 384.648 395.714 384.072L399.234 381.608C400.77 382.824 401.538 384.552 401.538 386.792V387.752H405.122V391.112H401.538ZM407.452 387.752H411.676V398.824C411.676 399.912 411.804 400.755 412.06 401.352C412.316 401.949 412.721 402.472 413.276 402.92L409.756 405.384C408.22 404.168 407.452 402.44 407.452 400.2V387.752ZM409.628 381.064C409.863 381.064 410.385 381.416 411.196 382.12C412.007 382.803 412.412 383.272 412.412 383.528C412.412 383.763 411.996 384.232 411.164 384.936C410.353 385.64 409.831 385.992 409.596 385.992C409.383 385.992 408.871 385.651 408.06 384.968C407.249 384.264 406.844 383.795 406.844 383.56C406.844 383.304 407.249 382.824 408.06 382.12C408.892 381.416 409.415 381.064 409.628 381.064ZM415.346 405V387.528C415.346 386.44 415.218 385.608 414.962 385.032C414.706 384.456 414.3 383.933 413.746 383.464L417.266 381C418.802 382.216 419.57 383.933 419.57 386.152V389.064C420.85 387.933 421.767 387.368 422.322 387.368C422.898 387.368 423.762 387.944 424.914 389.096C426.087 390.227 426.759 391.059 426.93 391.592C427.164 392.125 427.282 393.725 427.282 396.392C427.282 399.037 427.164 400.627 426.93 401.16C426.759 401.693 426.087 402.536 424.914 403.688C423.762 404.819 422.93 405.384 422.418 405.384C421.671 405.384 420.476 404.605 418.834 403.048L418.482 405H415.346ZM419.73 400.136C419.879 400.392 420.178 400.669 420.626 400.968C421.095 401.245 421.447 401.384 421.682 401.384C421.916 401.384 422.162 401.245 422.418 400.968C422.695 400.691 422.898 400.403 423.026 400.104C423.154 399.805 423.218 398.568 423.218 396.392C423.218 394.195 423.154 392.957 423.026 392.68C422.898 392.381 422.695 392.093 422.418 391.816C422.162 391.517 421.916 391.368 421.682 391.368C421.468 391.368 421.127 391.517 420.658 391.816C420.21 392.093 419.911 392.339 419.762 392.552C419.591 392.915 419.506 394.205 419.506 396.424C419.506 398.621 419.58 399.859 419.73 400.136ZM429.354 381H433.578V398.824C433.578 399.912 433.706 400.755 433.962 401.352C434.218 401.949 434.624 402.472 435.178 402.92L431.658 405.384C430.122 404.168 429.354 402.44 429.354 400.2V381ZM448.6 396.328V397.48H440.856C440.856 398.76 441.016 399.773 441.336 400.52C441.443 400.776 441.635 401.043 441.912 401.32C442.189 401.576 442.477 401.704 442.776 401.704C443.075 401.704 443.448 401.448 443.896 400.936C444.344 400.424 444.696 399.805 444.952 399.08L448.248 401.416C447.672 402.483 446.787 403.411 445.592 404.2C444.419 404.989 443.469 405.384 442.744 405.384C442.019 405.384 440.963 404.819 439.576 403.688C438.211 402.557 437.379 401.683 437.08 401.064C436.781 400.424 436.632 398.867 436.632 396.392C436.632 393.896 436.781 392.339 437.08 391.72C437.379 391.08 438.211 390.195 439.576 389.064C440.963 387.933 441.976 387.368 442.616 387.368C443.256 387.368 444.259 387.933 445.624 389.064C447.011 390.195 447.853 391.08 448.152 391.72C448.451 392.339 448.6 393.875 448.6 396.328ZM444.152 392.328C444.003 392.029 443.757 391.741 443.416 391.464C443.096 391.187 442.787 391.048 442.488 391.048C442.211 391.048 441.891 391.336 441.528 391.912C441.165 392.467 440.941 393.309 440.856 394.44H444.504C444.44 393.309 444.323 392.605 444.152 392.328ZM462.275 399.816C462.275 400.477 461.453 401.576 459.811 403.112C458.168 404.627 456.941 405.384 456.131 405.384C455.341 405.384 454.349 404.989 453.155 404.2C451.981 403.411 451.107 402.483 450.531 401.416L453.827 399.144C454.893 400.637 455.672 401.384 456.163 401.384C456.525 401.384 456.973 401.203 457.507 400.84C458.04 400.477 458.307 400.136 458.307 399.816C458.307 399.731 458.051 399.549 457.539 399.272C457.027 398.973 456.397 398.611 455.651 398.184C454.925 397.736 454.2 397.245 453.475 396.712C452.749 396.157 452.131 395.485 451.619 394.696C451.107 393.907 450.851 393.107 450.851 392.296C450.851 391.485 451.576 390.461 453.027 389.224C454.477 387.987 455.587 387.368 456.355 387.368C457.144 387.368 458.125 387.763 459.299 388.552C460.493 389.341 461.379 390.269 461.955 391.336L458.659 393.608C457.592 392.115 456.813 391.368 456.323 391.368C456.067 391.368 455.747 391.517 455.363 391.816C455 392.093 454.819 392.349 454.819 392.584C454.819 392.819 455.203 393.181 455.971 393.672C456.76 394.163 457.613 394.675 458.531 395.208C459.469 395.72 460.323 396.403 461.091 397.256C461.88 398.088 462.275 398.941 462.275 399.816Z" fill="black"/>
</g>
<rect x="44" y="32" width="447" height="433" rx="16" stroke="black" stroke-width="8" stroke-linecap="round" stroke-dasharray="16 16"/>
</g>
<defs>
<filter id="filter0_d_871_1004" x="0" y="0" width="535" height="521" filterUnits="userSpaceOnUse" color-interpolation-filters="sRGB">
<feFlood flood-opacity="0" result="BackgroundImageFix"/>
<feColorMatrix in="SourceAlpha" type="matrix" values="0 0 0 0 0 0 0 0 0 0 0 0 0 0 0 0 0 0 127 0" result="hardAlpha"/>
<feOffset dy="12"/>
<feGaussianBlur stdDeviation="20"/>
<feComposite in2="hardAlpha" operator="out"/>
<feColorMatrix type="matrix" values="0 0 0 0 0.568627 0 0 0 0 0.380392 0 0 0 0 0.878431 0 0 0 0.4 0"/>
<feBlend mode="normal" in2="BackgroundImageFix" result="effect1_dropShadow_871_1004"/>
<feBlend mode="normal" in="SourceGraphic" in2="effect1_dropShadow_871_1004" result="shape"/>
</filter>
<clipPath id="clip0_871_1004">
<rect x="48" y="36" width="439" height="425" rx="12" fill="white"/>
</clipPath>
</defs>
</svg>
