<svg width="424" height="99" viewBox="0 0 424 99" fill="none" xmlns="http://www.w3.org/2000/svg">
<g filter="url(#filter0_dii_875_1027)">
<rect x="5" width="414" height="88" rx="12" fill="#8C5AE0" shape-rendering="crispEdges"/>
<path d="M61.64 28.464C64.2 26.704 65.944 25.824 66.872 25.824C67.8 25.824 69.224 26.672 71.144 28.368C73.096 30.032 74.312 31.216 74.792 31.92C75.272 32.592 75.512 33.488 75.512 34.608C75.512 36.784 75.336 38.08 74.984 38.496C74.312 39.52 73.272 40.72 71.864 42.096C73.816 43.952 75.032 45.376 75.512 46.368C75.768 47.04 76.04 49.088 76.328 52.512C76.616 55.904 76.76 58.4 76.76 60H69.56C69.56 58.56 69.432 56.304 69.176 53.232C68.92 50.16 68.632 48.304 68.312 47.664C68.024 47.024 67.672 46.464 67.256 45.984H62.984V60H56.36V38.976C56.36 36.384 56.168 34.592 55.784 33.6C55.432 32.576 54.664 31.328 53.48 29.856L59.24 25.824C60.264 26.496 61.064 27.376 61.64 28.464ZM62.984 36.672V40.368H64.856C65.304 40.368 65.88 40.016 66.584 39.312C67.288 38.608 67.736 38.016 67.928 37.536C68.152 37.024 68.264 36.496 68.264 35.952C68.264 35.408 68.152 34.928 67.928 34.512C67.736 34.064 67.448 33.568 67.064 33.024C66.68 32.48 66.36 32.208 66.104 32.208C65.24 32.208 64.152 32.416 62.84 32.832C62.936 34.08 62.984 35.36 62.984 36.672ZM98.0326 46.992V48.72H86.4166C86.4166 50.64 86.6566 52.16 87.1366 53.28C87.2966 53.664 87.5846 54.064 88.0006 54.48C88.4166 54.864 88.8486 55.056 89.2966 55.056C89.7446 55.056 90.3046 54.672 90.9766 53.904C91.6486 53.136 92.1766 52.208 92.5606 51.12L97.5046 54.624C96.6406 56.224 95.3126 57.616 93.5206 58.8C91.7606 59.984 90.3366 60.576 89.2486 60.576C88.1606 60.576 86.5766 59.728 84.4966 58.032C82.4486 56.336 81.2006 55.024 80.7526 54.096C80.3046 53.136 80.0806 50.8 80.0806 47.088C80.0806 43.344 80.3046 41.008 80.7526 40.08C81.2006 39.12 82.4486 37.792 84.4966 36.096C86.5766 34.4 88.0966 33.552 89.0566 33.552C90.0166 33.552 91.5206 34.4 93.5686 36.096C95.6486 37.792 96.9126 39.12 97.3606 40.08C97.8086 41.008 98.0326 43.312 98.0326 46.992ZM91.3606 40.992C91.1366 40.544 90.7686 40.112 90.2566 39.696C89.7766 39.28 89.3126 39.072 88.8646 39.072C88.4486 39.072 87.9686 39.504 87.4246 40.368C86.8806 41.2 86.5446 42.464 86.4166 44.16H91.8886C91.7926 42.464 91.6166 41.408 91.3606 40.992ZM119.649 34.128V53.808C119.841 54.928 120.593 55.92 121.905 56.784L117.585 60.48C117.169 60.192 116.657 59.68 116.049 58.944C115.441 58.208 114.929 57.456 114.513 56.688C111.857 59.28 110.001 60.576 108.945 60.576C108.177 60.576 106.929 59.728 105.201 58.032C103.505 56.336 102.449 54.96 102.033 53.904C101.617 52.848 101.409 50.576 101.409 47.088C101.409 43.568 101.617 41.28 102.033 40.224C102.449 39.168 103.505 37.792 105.201 36.096C106.929 34.4 108.177 33.552 108.945 33.552C110.065 33.552 111.873 34.704 114.369 37.008L114.945 34.128H119.649ZM112.977 41.472C112.753 41.056 112.289 40.64 111.585 40.224C110.913 39.776 110.401 39.552 110.049 39.552C109.697 39.552 109.313 39.76 108.897 40.176C108.513 40.592 108.257 40.976 108.129 41.328C107.713 41.904 107.505 43.824 107.505 47.088C107.505 50.32 107.713 52.224 108.129 52.8C108.257 53.12 108.513 53.504 108.897 53.952C109.313 54.368 109.697 54.576 110.049 54.576C110.401 54.576 110.913 54.368 111.585 53.952C112.289 53.504 112.737 53.104 112.929 52.752C113.153 52.4 113.281 50.528 113.313 47.136C113.313 43.744 113.201 41.856 112.977 41.472ZM124.577 39.888C124.833 39.088 125.825 37.84 127.553 36.144C129.313 34.416 130.609 33.552 131.441 33.552C132.273 33.552 133.697 34.416 135.713 36.144V33.792C135.713 32.16 135.521 30.912 135.137 30.048C134.753 29.184 134.145 28.4 133.313 27.696L138.593 24C140.897 25.824 142.049 28.4 142.049 31.728V60H137.153L136.577 57.168C134.241 59.44 132.497 60.576 131.345 60.576C130.577 60.576 129.313 59.728 127.553 58.032C125.825 56.304 124.833 55.04 124.577 54.24C124.225 53.44 124.049 51.056 124.049 47.088C124.049 43.088 124.225 40.688 124.577 39.888ZM135.377 41.472C135.153 41.056 134.689 40.64 133.985 40.224C133.313 39.776 132.801 39.552 132.449 39.552C132.097 39.552 131.713 39.76 131.297 40.176C130.913 40.592 130.625 41.024 130.433 41.472C130.241 41.92 130.145 43.792 130.145 47.088C130.145 50.352 130.241 52.208 130.433 52.656C130.625 53.072 130.913 53.504 131.297 53.952C131.713 54.368 132.081 54.576 132.401 54.576C132.753 54.576 133.265 54.368 133.937 53.952C134.641 53.504 135.105 53.12 135.329 52.8C135.521 52.352 135.649 51.056 135.713 48.912V47.136C135.713 43.744 135.601 41.856 135.377 41.472ZM175.149 26.4V32.16H168.909V60H162.285V32.16H156.045V26.4H175.149ZM184.935 54.336C185.447 54.816 185.847 55.056 186.135 55.056C186.423 55.056 186.807 54.816 187.287 54.336C187.799 53.856 188.167 53.424 188.391 53.04C188.807 52.336 189.015 50.352 189.015 47.088C189.015 43.824 188.807 41.824 188.391 41.088C188.167 40.704 187.799 40.272 187.287 39.792C186.807 39.312 186.423 39.072 186.135 39.072C185.847 39.072 185.447 39.312 184.935 39.792C184.455 40.272 184.103 40.704 183.879 41.088C183.463 41.792 183.255 43.776 183.255 47.04C183.255 50.304 183.463 52.304 183.879 53.04C184.103 53.424 184.455 53.856 184.935 54.336ZM190.455 58.224C188.503 59.792 187.063 60.576 186.135 60.576C185.207 60.576 183.751 59.792 181.767 58.224C179.815 56.656 178.615 55.488 178.167 54.72C177.495 53.536 177.159 50.976 177.159 47.04C177.159 43.104 177.495 40.56 178.167 39.408C178.615 38.64 179.815 37.472 181.767 35.904C183.751 34.336 185.207 33.552 186.135 33.552C187.063 33.552 188.503 34.336 190.455 35.904C192.439 37.472 193.655 38.64 194.103 39.408C194.775 40.56 195.111 43.104 195.111 47.04C195.111 50.976 194.775 53.536 194.103 54.72C193.655 55.488 192.439 56.656 190.455 58.224ZM205.987 60H199.651V33.792C199.651 32.16 199.459 30.912 199.075 30.048C198.691 29.184 198.083 28.4 197.251 27.696L202.531 24C204.835 25.824 205.987 28.4 205.987 31.728V37.2C208.483 34.768 210.147 33.552 210.979 33.552C211.811 33.552 213.283 34.464 215.395 36.288C217.507 38.112 218.595 39.536 218.659 40.56C218.659 41.296 218.147 42.544 217.123 44.304C216.131 46.064 215.171 47.408 214.243 48.336C216.579 51.216 218.067 53.888 218.707 56.352L212.659 60.576C211.923 57.984 211.155 55.84 210.355 54.144C209.555 52.416 208.435 50.8 206.995 49.296V47.616C207.987 46.912 209.043 45.888 210.163 44.544C211.283 43.168 211.923 42.112 212.083 41.376C211.187 40.16 210.419 39.552 209.779 39.552C209.427 39.552 208.835 39.904 208.003 40.608C207.203 41.28 206.531 41.92 205.987 42.528V60ZM240.064 46.992V48.72H228.448C228.448 50.64 228.688 52.16 229.168 53.28C229.328 53.664 229.616 54.064 230.032 54.48C230.448 54.864 230.88 55.056 231.328 55.056C231.776 55.056 232.336 54.672 233.008 53.904C233.68 53.136 234.208 52.208 234.592 51.12L239.536 54.624C238.672 56.224 237.344 57.616 235.552 58.8C233.792 59.984 232.368 60.576 231.28 60.576C230.192 60.576 228.608 59.728 226.528 58.032C224.48 56.336 223.232 55.024 222.784 54.096C222.336 53.136 222.112 50.8 222.112 47.088C222.112 43.344 222.336 41.008 222.784 40.08C223.232 39.12 224.48 37.792 226.528 36.096C228.608 34.4 230.128 33.552 231.088 33.552C232.048 33.552 233.552 34.4 235.6 36.096C237.68 37.792 238.944 39.12 239.392 40.08C239.84 41.008 240.064 43.312 240.064 46.992ZM233.392 40.992C233.168 40.544 232.8 40.112 232.288 39.696C231.808 39.28 231.344 39.072 230.896 39.072C230.48 39.072 230 39.504 229.456 40.368C228.912 41.2 228.576 42.464 228.448 44.16H233.92C233.824 42.464 233.648 41.408 233.392 40.992ZM251.456 60H245.12V43.44C245.12 41.808 244.928 40.544 244.544 39.648C244.16 38.752 243.552 37.968 242.72 37.296L248 33.6C249.184 34.56 250.064 35.664 250.64 36.912C253.008 34.672 254.672 33.552 255.632 33.552C256.624 33.552 258.096 34.448 260.048 36.24C262.032 38 263.024 39.744 263.024 41.472V50.736C263.024 52.368 263.216 53.632 263.6 54.528C263.984 55.424 264.592 56.208 265.424 56.88L260.144 60.576C257.84 58.752 256.688 56.16 256.688 52.8V42.144C256.688 41.6 256.4 41.04 255.824 40.464C255.248 39.856 254.704 39.552 254.192 39.552C253.712 39.552 252.8 40.224 251.456 41.568V60ZM275.357 54.336C275.869 54.816 276.269 55.056 276.557 55.056C276.845 55.056 277.229 54.816 277.709 54.336C278.221 53.856 278.589 53.424 278.813 53.04C279.229 52.336 279.437 50.352 279.437 47.088C279.437 43.824 279.229 41.824 278.813 41.088C278.589 40.704 278.221 40.272 277.709 39.792C277.229 39.312 276.845 39.072 276.557 39.072C276.269 39.072 275.869 39.312 275.357 39.792C274.877 40.272 274.525 40.704 274.301 41.088C273.885 41.792 273.677 43.776 273.677 47.04C273.677 50.304 273.885 52.304 274.301 53.04C274.525 53.424 274.877 53.856 275.357 54.336ZM280.877 58.224C278.925 59.792 277.485 60.576 276.557 60.576C275.629 60.576 274.173 59.792 272.189 58.224C270.237 56.656 269.037 55.488 268.589 54.72C267.917 53.536 267.581 50.976 267.581 47.04C267.581 43.104 267.917 40.56 268.589 39.408C269.037 38.64 270.237 37.472 272.189 35.904C274.173 34.336 275.629 33.552 276.557 33.552C277.485 33.552 278.925 34.336 280.877 35.904C282.861 37.472 284.077 38.64 284.525 39.408C285.197 40.56 285.533 43.104 285.533 47.04C285.533 50.976 285.197 53.536 284.525 54.72C284.077 55.488 282.861 56.656 280.877 58.224ZM307.017 60H300.681V42.144C300.681 41.6 300.393 41.04 299.817 40.464C299.241 39.856 298.745 39.552 298.329 39.552C297.945 39.552 297.305 39.936 296.409 40.704V60H290.073V43.44C290.073 41.808 289.881 40.544 289.497 39.648C289.113 38.752 288.505 37.968 287.673 37.296L292.953 33.6C294.009 34.496 294.793 35.408 295.305 36.336C297.385 34.48 298.825 33.552 299.625 33.552C300.105 33.552 300.889 33.904 301.977 34.608C303.065 35.312 304.057 36.16 304.953 37.152C307.481 34.752 309.225 33.552 310.185 33.552C311.177 33.552 312.649 34.448 314.601 36.24C316.585 38 317.577 39.744 317.577 41.472V50.736C317.577 52.368 317.769 53.632 318.153 54.528C318.537 55.424 319.145 56.208 319.977 56.88L314.697 60.576C312.393 58.752 311.241 56.16 311.241 52.8V42.144C311.241 41.6 310.953 41.04 310.377 40.464C309.801 39.856 309.321 39.552 308.937 39.552C308.585 39.552 307.913 39.952 306.921 40.752C306.985 41.072 307.017 41.312 307.017 41.472V60ZM322.623 34.128H328.959V50.736C328.959 52.368 329.151 53.632 329.535 54.528C329.919 55.424 330.527 56.208 331.359 56.88L326.079 60.576C323.775 58.752 322.623 56.16 322.623 52.8V34.128ZM325.887 24.096C326.239 24.096 327.023 24.624 328.239 25.68C329.455 26.704 330.063 27.408 330.063 27.792C330.063 28.144 329.439 28.848 328.191 29.904C326.975 30.96 326.191 31.488 325.839 31.488C325.519 31.488 324.751 30.976 323.535 29.952C322.319 28.896 321.711 28.192 321.711 27.84C321.711 27.456 322.319 26.736 323.535 25.68C324.783 24.624 325.567 24.096 325.887 24.096ZM333.792 54.72C333.12 53.664 332.784 51.12 332.784 47.088C332.784 43.056 333.12 40.496 333.792 39.408C334.272 38.608 335.456 37.44 337.344 35.904C339.232 34.336 340.688 33.552 341.712 33.552C342.768 33.552 344.176 34.176 345.936 35.424C347.728 36.64 349.072 38.032 349.968 39.6L345.024 43.008C344.608 42.24 344.032 41.392 343.296 40.464C342.592 39.536 342.064 39.072 341.712 39.072C341.072 39.072 340.336 39.744 339.504 41.088C339.088 41.92 338.88 43.92 338.88 47.088C338.88 50.224 339.088 52.208 339.504 53.04C339.76 53.456 340.096 53.904 340.512 54.384C340.928 54.832 341.344 55.056 341.76 55.056C342.176 55.056 342.72 54.688 343.392 53.952C344.064 53.216 344.608 52.272 345.024 51.12L349.968 54.576C349.104 56.176 347.776 57.584 345.984 58.8C344.224 59.984 342.816 60.576 341.76 60.576C340.704 60.576 339.232 59.808 337.344 58.272C335.456 56.704 334.272 55.52 333.792 54.72ZM369.092 52.224C369.092 53.216 367.86 54.864 365.396 57.168C362.932 59.44 361.092 60.576 359.876 60.576C358.692 60.576 357.204 59.984 355.412 58.8C353.652 57.616 352.34 56.224 351.476 54.624L356.42 51.216C358.02 53.456 359.188 54.576 359.924 54.576C360.468 54.576 361.14 54.304 361.94 53.76C362.74 53.216 363.14 52.704 363.14 52.224C363.14 52.096 362.756 51.824 361.988 51.408C361.22 50.96 360.276 50.416 359.156 49.776C358.068 49.104 356.98 48.368 355.892 47.568C354.804 46.736 353.876 45.728 353.108 44.544C352.34 43.36 351.956 42.16 351.956 40.944C351.956 39.728 353.044 38.192 355.22 36.336C357.396 34.48 359.06 33.552 360.212 33.552C361.396 33.552 362.868 34.144 364.628 35.328C366.42 36.512 367.748 37.904 368.612 39.504L363.668 42.912C362.068 40.672 360.9 39.552 360.164 39.552C359.78 39.552 359.3 39.776 358.724 40.224C358.18 40.64 357.908 41.024 357.908 41.376C357.908 41.728 358.484 42.272 359.636 43.008C360.82 43.744 362.1 44.512 363.476 45.312C364.884 46.08 366.164 47.104 367.316 48.384C368.5 49.632 369.092 50.912 369.092 52.224Z" fill="white"/>
</g>
<defs>
<filter id="filter0_dii_875_1027" x="0" y="0" width="424" height="99" filterUnits="userSpaceOnUse" color-interpolation-filters="sRGB">
<feFlood flood-opacity="0" result="BackgroundImageFix"/>
<feColorMatrix in="SourceAlpha" type="matrix" values="0 0 0 0 0 0 0 0 0 0 0 0 0 0 0 0 0 0 127 0" result="hardAlpha"/>
<feOffset dy="6"/>
<feGaussianBlur stdDeviation="2.5"/>
<feComposite in2="hardAlpha" operator="out"/>
<feColorMatrix type="matrix" values="0 0 0 0 0 0 0 0 0 0 0 0 0 0 0 0 0 0 0.4 0"/>
<feBlend mode="normal" in2="BackgroundImageFix" result="effect1_dropShadow_875_1027"/>
<feBlend mode="normal" in="SourceGraphic" in2="effect1_dropShadow_875_1027" result="shape"/>
<feColorMatrix in="SourceAlpha" type="matrix" values="0 0 0 0 0 0 0 0 0 0 0 0 0 0 0 0 0 0 127 0" result="hardAlpha"/>
<feOffset dy="4"/>
<feComposite in2="hardAlpha" operator="arithmetic" k2="-1" k3="1"/>
<feColorMatrix type="matrix" values="0 0 0 0 1 0 0 0 0 1 0 0 0 0 1 0 0 0 0.2 0"/>
<feBlend mode="normal" in2="shape" result="effect2_innerShadow_875_1027"/>
<feColorMatrix in="SourceAlpha" type="matrix" values="0 0 0 0 0 0 0 0 0 0 0 0 0 0 0 0 0 0 127 0" result="hardAlpha"/>
<feOffset dy="-4"/>
<feComposite in2="hardAlpha" operator="arithmetic" k2="-1" k3="1"/>
<feColorMatrix type="matrix" values="0 0 0 0 0 0 0 0 0 0 0 0 0 0 0 0 0 0 0.25 0"/>
<feBlend mode="normal" in2="effect2_innerShadow_875_1027" result="effect3_innerShadow_875_1027"/>
</filter>
</defs>
</svg>
