<svg width="327" height="427" viewBox="0 0 327 427" fill="none" xmlns="http://www.w3.org/2000/svg">
<g clip-path="url(#clip0_884_1372)">
<path d="M136.561 426.244C212.742 431.979 372.449 309.741 289.851 232.733C246.373 192.198 194.437 92.1719 167.264 18.4519C140.842 -53.2305 22.4526 99.3534 13.974 211.962C5.49545 324.571 60.3793 420.508 136.561 426.244Z" fill="#30244A"/>
<path d="M45.2709 342.126C49.6056 342.126 49.6128 335.39 45.2709 335.39C40.9361 335.39 40.9289 342.126 45.2709 342.126ZM82.887 44.1117C87.2218 44.1117 87.2289 37.375 82.887 37.375C78.5523 37.375 78.5451 44.1117 82.887 44.1117ZM309.693 268.141C314.028 268.141 314.035 261.404 309.693 261.404C305.359 261.404 305.351 268.141 309.693 268.141Z" fill="#835A44"/>
<path d="M48.5245 131.862C52.8593 131.862 52.8664 125.125 48.5245 125.125C44.1898 125.125 44.1826 131.862 48.5245 131.862Z" fill="#974C41"/>
<path d="M71.5663 213.166C75.901 213.166 75.9082 206.429 71.5663 206.429C67.2315 206.429 67.2243 213.166 71.5663 213.166ZM108.753 314.185C113.088 314.185 113.095 307.448 108.753 307.448C104.418 307.448 104.411 314.185 108.753 314.185ZM171.173 47.4828C175.507 47.4828 175.514 40.7461 171.173 40.7461C166.838 40.7461 166.831 47.4828 171.173 47.4828Z" fill="#835A44"/>
<path d="M274.515 314.185C278.85 314.185 278.857 307.448 274.515 307.448C270.18 307.448 270.173 314.185 274.515 314.185ZM57.8619 293.962C58.2985 293.947 58.7122 293.763 59.0157 293.449C59.3192 293.135 59.4888 292.715 59.4888 292.278C59.4888 291.841 59.3192 291.421 59.0157 291.107C58.7122 290.793 58.2985 290.609 57.8619 290.594C57.4254 290.609 57.0117 290.793 56.7082 291.107C56.4047 291.421 56.2351 291.841 56.2351 292.278C56.2351 292.715 56.4047 293.135 56.7082 293.449C57.0117 293.763 57.4254 293.947 57.8619 293.962Z" fill="#974C41"/>
<path d="M21.1981 229.492C21.6347 229.477 22.0483 229.293 22.3518 228.978C22.6553 228.664 22.825 228.244 22.825 227.808C22.825 227.371 22.6553 226.951 22.3518 226.637C22.0483 226.323 21.6347 226.139 21.1981 226.123C20.7616 226.139 20.3479 226.323 20.0444 226.637C19.7409 226.951 19.5713 227.371 19.5713 227.808C19.5713 228.244 19.7409 228.664 20.0444 228.978C20.3479 229.293 20.7616 229.477 21.1981 229.492ZM185.141 95.7199C185.578 95.7047 185.991 95.5207 186.295 95.2065C186.598 94.8923 186.768 94.4725 186.768 94.0357C186.768 93.5989 186.598 93.1791 186.295 92.8649C185.991 92.5507 185.578 92.3666 185.141 92.3515C184.704 92.3666 184.291 92.5507 183.987 92.8649C183.684 93.1791 183.514 93.5989 183.514 94.0357C183.514 94.4725 183.684 94.8923 183.987 95.2065C184.291 95.5207 184.704 95.7047 185.141 95.7199ZM227.582 70.2551C228.019 70.24 228.432 70.0559 228.736 69.7417C229.039 69.4275 229.209 69.0077 229.209 68.5709C229.209 68.1341 229.039 67.7143 228.736 67.4001C228.432 67.0859 228.019 66.9018 227.582 66.8867C227.146 66.9018 226.732 67.0859 226.429 67.4001C226.125 67.7143 225.955 68.1341 225.955 68.5709C225.955 69.0077 226.125 69.4275 226.429 69.7417C226.732 70.0559 227.146 70.24 227.582 70.2551ZM200.905 323.69C201.341 323.675 201.755 323.491 202.059 323.177C202.362 322.863 202.532 322.443 202.532 322.006C202.532 321.569 202.362 321.15 202.059 320.835C201.755 320.521 201.341 320.337 200.905 320.322C200.468 320.337 200.055 320.521 199.751 320.835C199.448 321.15 199.278 321.569 199.278 322.006C199.278 322.443 199.448 322.863 199.751 323.177C200.055 323.491 200.468 323.675 200.905 323.69ZM137.849 412.211C138.286 412.196 138.699 412.012 139.003 411.697C139.306 411.383 139.476 410.964 139.476 410.527C139.476 410.09 139.306 409.67 139.003 409.356C138.699 409.042 138.286 408.858 137.849 408.842C137.413 408.858 136.999 409.042 136.695 409.356C136.392 409.67 136.222 410.09 136.222 410.527C136.222 410.964 136.392 411.383 136.695 411.697C136.999 412.012 137.413 412.196 137.849 412.211ZM274.515 387.33C274.951 387.315 275.365 387.131 275.668 386.816C275.972 386.502 276.142 386.083 276.142 385.646C276.142 385.209 275.972 384.789 275.668 384.475C275.365 384.161 274.951 383.977 274.515 383.962C274.078 383.977 273.664 384.161 273.361 384.475C273.057 384.789 272.888 385.209 272.888 385.646C272.888 386.083 273.057 386.502 273.361 386.816C273.664 387.131 274.078 387.315 274.515 387.33ZM175.44 248.509C175.877 248.493 176.29 248.309 176.594 247.995C176.897 247.681 177.067 247.261 177.067 246.824C177.067 246.388 176.897 245.968 176.594 245.654C176.29 245.339 175.877 245.155 175.44 245.14C175.003 245.155 174.59 245.339 174.286 245.654C173.983 245.968 173.813 246.388 173.813 246.824C173.813 247.261 173.983 247.681 174.286 247.995C174.59 248.309 175.003 248.493 175.44 248.509Z" fill="#835A44"/>
<path d="M142.165 13.298C142.602 13.2829 143.015 13.0989 143.319 12.7847C143.622 12.4705 143.792 12.0507 143.792 11.6139C143.792 11.177 143.622 10.7573 143.319 10.4431C143.015 10.1289 142.602 9.94481 142.165 9.92969C141.728 9.94481 141.315 10.1289 141.011 10.4431C140.708 10.7573 140.538 11.177 140.538 11.6139C140.538 12.0507 140.708 12.4705 141.011 12.7847C141.315 13.0989 141.728 13.2829 142.165 13.298Z" fill="#974C41"/>
<path d="M0 426.438H326.057" stroke="#020202" stroke-miterlimit="10"/>
<path d="M265.561 226.098L269.824 251.02C270.053 252.356 270.003 253.725 269.678 255.042C269.353 256.358 268.76 257.593 267.936 258.669L259.387 269.838C259.16 270.136 258.866 270.377 258.53 270.543C258.195 270.709 257.825 270.795 257.45 270.795C256.803 270.795 256.182 270.538 255.725 270.08C255.267 269.623 255.01 269.002 255.01 268.355C255.01 267.077 255.437 265.835 256.222 264.827L262.78 256.407C262.78 256.407 261.916 244.897 261.724 246.624L258.325 252.166C258.169 252.421 257.95 252.633 257.69 252.781C257.429 252.929 257.136 253.009 256.836 253.013C256.536 253.017 256.241 252.945 255.976 252.804C255.712 252.663 255.488 252.457 255.324 252.206C255.115 251.894 255.011 251.523 255.028 251.147C255.113 249.761 255.504 248.411 256.174 247.194L257.12 245.473C257.12 245.473 255.01 232.62 257.696 226.098L265.561 226.098Z" fill="#EFAD90"/>
<path d="M122.02 65.7321L122.014 65.7239C121.299 64.701 120.267 63.9421 119.077 63.5644C117.887 63.1867 116.607 63.2112 115.432 63.6342C114.258 64.0572 113.256 64.855 112.58 65.9045C111.905 66.9541 111.594 68.1968 111.695 69.4408L111.696 69.4507C111.775 70.4194 111.604 71.392 111.2 72.2758C110.795 73.1595 110.171 73.9248 109.387 74.4984C108.602 75.072 107.684 75.4348 106.719 75.552C105.754 75.6693 104.776 75.5371 103.876 75.1681L103.867 75.1643C102.713 74.6905 101.434 74.6101 100.229 74.9355C99.0242 75.2609 97.96 75.974 97.2008 76.9647C96.4417 77.9553 96.0299 79.1684 96.029 80.4165C96.0282 81.6646 96.4384 82.8782 97.1962 83.8699L97.2023 83.8778C97.7924 84.65 98.1745 85.5607 98.3122 86.5227C98.4498 87.4847 98.3384 88.466 97.9886 89.3727C97.6387 90.2793 97.0621 91.0811 96.314 91.7013C95.5658 92.3215 94.671 92.7395 93.7152 92.9152L93.7053 92.917C92.4778 93.1426 91.3587 93.7661 90.521 94.6913C89.6832 95.6165 89.1735 96.7918 89.0704 98.0356C88.9674 99.2794 89.2768 100.523 89.9509 101.573C90.6249 102.623 91.6262 103.423 92.7998 103.847L92.8092 103.851C93.7231 104.181 94.5369 104.741 95.1729 105.475C95.8088 106.21 96.2456 107.096 96.4414 108.048C96.6373 109 96.5857 109.986 96.2916 110.912C95.9976 111.839 95.4708 112.674 94.7617 113.339L94.7544 113.345C93.8437 114.199 93.2394 115.328 93.0348 116.56C92.8302 117.791 93.0368 119.055 93.6226 120.157C94.2084 121.259 95.1408 122.138 96.2757 122.657C97.4107 123.176 98.685 123.307 99.9019 123.03L99.9117 123.028C100.859 122.812 101.846 122.842 102.779 123.117C103.711 123.391 104.557 123.9 105.237 124.595C105.916 125.29 106.406 126.148 106.659 127.086C106.913 128.024 106.921 129.012 106.684 129.954L106.681 129.964C106.377 131.174 106.479 132.451 106.972 133.597C107.466 134.744 108.323 135.696 109.412 136.306C110.501 136.917 111.76 137.152 112.995 136.975C114.231 136.798 115.374 136.219 116.248 135.328L116.255 135.321C116.935 134.627 117.782 134.119 118.715 133.846C119.647 133.573 120.634 133.543 121.582 133.76C122.529 133.978 123.405 134.434 124.125 135.087C124.845 135.739 125.386 136.565 125.696 137.486L125.699 137.496C126.097 138.679 126.874 139.698 127.909 140.395C128.944 141.093 130.18 141.43 131.426 141.355C132.671 141.28 133.858 140.797 134.802 139.98C135.745 139.163 136.394 138.059 136.647 136.836L136.649 136.827C136.846 135.875 137.284 134.99 137.921 134.256C138.558 133.522 139.373 132.963 140.287 132.634C141.201 132.305 142.185 132.215 143.144 132.375C144.102 132.534 145.004 132.937 145.763 133.544L145.771 133.55C146.745 134.33 147.949 134.767 149.197 134.795C150.445 134.822 151.667 134.438 152.674 133.701C153.682 132.964 154.419 131.916 154.771 130.719C155.123 129.522 155.072 128.242 154.624 127.077L154.62 127.067C154.272 126.16 154.162 125.179 154.301 124.217C154.44 123.255 154.823 122.345 155.414 121.574C156.005 120.802 156.784 120.195 157.677 119.811C158.57 119.427 159.546 119.278 160.512 119.378L160.522 119.38C161.764 119.509 163.013 119.226 164.078 118.574C165.142 117.923 165.962 116.938 166.412 115.774C166.861 114.61 166.914 113.33 166.563 112.132C166.213 110.934 165.477 109.885 164.471 109.147L164.463 109.141C163.679 108.567 163.056 107.801 162.652 106.916C162.249 106.032 162.08 105.059 162.16 104.091C162.24 103.122 162.568 102.19 163.111 101.384C163.654 100.578 164.395 99.9254 165.262 99.4875L165.271 99.483C166.386 98.9207 167.284 98.0071 167.827 96.8834C168.37 95.7597 168.528 94.4884 168.276 93.2659C168.025 92.0434 167.378 90.9378 166.435 90.1199C165.492 89.3019 164.306 88.8171 163.061 88.7405L163.051 88.7398C162.081 88.6801 161.142 88.3726 160.325 87.8466C159.508 87.3207 158.839 86.5939 158.383 85.7357C157.927 84.8776 157.699 83.9168 157.72 82.9452C157.741 81.9736 158.011 81.0237 158.504 80.1863L158.509 80.1776C159.143 79.1022 159.404 77.8481 159.254 76.6091C159.103 75.3702 158.549 74.2153 157.676 73.3229C156.804 72.4305 155.661 71.8502 154.426 71.6718C153.191 71.4933 151.931 71.7266 150.842 72.3355L150.833 72.3404C149.985 72.8146 149.029 73.0633 148.057 73.0626C147.085 73.062 146.13 72.812 145.282 72.3367C144.435 71.8614 143.723 71.1766 143.216 70.3477C142.708 69.5189 142.422 68.5738 142.384 67.6027L142.384 67.5927C142.335 66.3455 141.877 65.1491 141.081 64.1883C140.284 63.2274 139.193 62.5556 137.977 62.2766C136.76 61.9976 135.486 62.1269 134.35 62.6446C133.214 63.1623 132.281 64.0396 131.694 65.1409L131.689 65.1497C131.232 66.0073 130.562 66.7332 129.744 67.2581C128.926 67.783 127.987 68.0893 127.017 68.1478C126.047 68.2062 125.078 68.0148 124.203 67.5918C123.328 67.1689 122.576 66.5286 122.02 65.7321Z" fill="#200100"/>
<path d="M114.249 108.279C114.27 108.277 114.289 108.283 114.31 108.282C114.282 97.4905 120.784 88.5832 129.364 88.0665C137.944 87.5498 145.468 95.6125 146.735 106.329C146.756 106.328 146.775 106.32 146.796 106.319C148.097 106.381 149.33 106.922 150.257 107.838C151.184 108.754 151.74 109.98 151.819 111.28C151.897 112.581 151.492 113.865 150.681 114.885C149.871 115.906 148.712 116.591 147.427 116.809C146.916 116.832 146.405 116.763 145.919 116.605C144.331 122.026 140.976 126.346 136.67 128.38L137.561 137.696L140.863 151.551L123.64 151.041L123.769 143.052L124.104 127.67L124.139 127.672C120.631 125.473 117.907 122.223 116.353 118.385C115.89 118.601 115.391 118.731 114.88 118.769C113.579 118.707 112.346 118.166 111.419 117.25C110.492 116.334 109.936 115.108 109.857 113.807C109.779 112.506 110.184 111.223 110.995 110.202C111.805 109.182 112.964 108.497 114.249 108.279H114.249Z" fill="#8C4D3E"/>
<path d="M134.975 129.053C134.273 129.482 133.505 129.793 132.701 129.971C131.899 130.162 131.077 130.255 130.252 130.248C129.417 130.227 128.59 130.083 127.797 129.821C127.003 129.551 126.285 129.097 125.702 128.495C126.46 128.694 127.229 128.853 128.004 128.969C128.763 129.051 129.513 129.115 130.275 129.126C131.803 129.158 133.332 129.059 134.975 129.053ZM131.862 109.381C132.354 110.049 132.746 110.785 133.027 111.565C133.333 112.352 133.519 113.181 133.58 114.023C133.607 114.485 133.557 114.948 133.431 115.393C133.355 115.665 133.211 115.912 133.013 116.113C132.816 116.314 132.571 116.461 132.301 116.541C131.822 116.633 131.326 116.553 130.9 116.314C130.522 116.122 130.175 115.873 129.873 115.575C130.568 115.808 131.313 115.854 132.032 115.708C132.418 115.518 132.512 114.818 132.459 114.077C132.406 113.31 132.314 112.546 132.183 111.788C132.061 111.006 131.932 110.214 131.862 109.381ZM143.39 102.921C143.39 102.921 138.317 100.817 135.669 105.643L143.39 102.921ZM127.851 105.854C127.851 105.854 125.47 100.905 120.28 102.74L127.851 105.854Z" fill="#200100"/>
<path d="M138.135 111.564C138.766 111.526 139.232 110.727 139.175 109.78C139.118 108.833 138.56 108.096 137.928 108.134C137.297 108.172 136.831 108.971 136.888 109.918C136.946 110.865 137.504 111.602 138.135 111.564Z" fill="#200100"/>
<path d="M125.062 111.88C125.693 111.842 126.159 111.044 126.102 110.097C126.044 109.15 125.486 108.413 124.855 108.451C124.224 108.489 123.758 109.287 123.815 110.234C123.872 111.181 124.43 111.918 125.062 111.88Z" fill="#200100"/>
<path d="M150.388 112.178C149.789 111.694 149.131 111.289 148.43 110.971C148.133 110.859 147.813 110.821 147.498 110.86C147.14 110.877 146.756 110.996 146.272 111.076C146.453 110.621 146.794 110.247 147.232 110.026C147.469 109.898 147.731 109.822 148 109.802C148.269 109.782 148.539 109.819 148.793 109.909C149.275 110.086 149.688 110.413 149.971 110.842C150.246 111.233 150.392 111.7 150.388 112.178ZM111.609 114.514C111.548 114.039 111.636 113.557 111.863 113.136C112.092 112.676 112.462 112.303 112.92 112.07C113.161 111.949 113.425 111.881 113.694 111.868C113.964 111.856 114.233 111.9 114.484 111.997C114.945 112.165 115.329 112.495 115.563 112.925C115.073 112.904 114.677 112.832 114.319 112.858C114.002 112.857 113.689 112.933 113.408 113.079C112.75 113.479 112.146 113.961 111.609 114.514Z" fill="#200100"/>
<path d="M145.477 100.466C145.477 100.466 140.031 99.3353 138.155 90.5907C138.155 90.5907 138.088 101.428 115.419 101.181L115.567 110.73L110.048 103.522C110.048 103.522 114.539 83.4203 132.445 84.7766C135.317 85.0745 138.068 86.0868 140.449 87.7212C143.37 89.6691 145.851 92.2063 147.733 95.1699C149.615 98.1334 150.857 101.458 151.379 104.93L151.686 106.834C151.686 106.834 147.593 100.793 145.247 111.973L145.477 100.466Z" fill="#200100"/>
<path d="M145.19 93.1119C143.07 90.9983 140.649 89.2096 138.005 87.8039C135.486 86.4474 132.65 85.7896 129.791 85.8988C126.924 86.0876 124.144 86.9616 121.685 88.4475C119.101 89.9863 116.665 91.7616 114.409 93.7506C116.065 91.1072 118.214 88.8064 120.739 86.9733C122.031 86.0302 123.437 85.255 124.925 84.6663C126.453 84.0932 128.058 83.753 129.687 83.657C131.324 83.5906 132.961 83.7898 134.534 84.2469C136.076 84.7135 137.542 85.4038 138.885 86.2956C141.514 88.016 143.68 90.3569 145.19 93.1119Z" fill="#2C66BF"/>
<path d="M123.347 118.087C123.784 118.072 124.197 117.888 124.501 117.574C124.804 117.26 124.974 116.84 124.974 116.403C124.974 115.966 124.804 115.546 124.501 115.232C124.197 114.918 123.784 114.734 123.347 114.719C122.91 114.734 122.497 114.918 122.193 115.232C121.89 115.546 121.72 115.966 121.72 116.403C121.72 116.84 121.89 117.26 122.193 117.574C122.497 117.888 122.91 118.072 123.347 118.087Z" fill="#E26A90"/>
<path d="M113.993 119.972C114.429 119.957 114.843 119.773 115.147 119.459C115.45 119.144 115.62 118.725 115.62 118.288C115.62 117.851 115.45 117.431 115.147 117.117C114.843 116.803 114.429 116.619 113.993 116.604C113.556 116.619 113.143 116.803 112.839 117.117C112.536 117.431 112.366 117.851 112.366 118.288C112.366 118.725 112.536 119.144 112.839 119.459C113.143 119.773 113.556 119.957 113.993 119.972ZM148.33 118.493C148.766 118.478 149.18 118.294 149.483 117.98C149.787 117.666 149.957 117.246 149.957 116.809C149.957 116.372 149.787 115.953 149.483 115.638C149.18 115.324 148.766 115.14 148.33 115.125C147.893 115.14 147.48 115.324 147.176 115.638C146.873 115.953 146.703 116.372 146.703 116.809C146.703 117.246 146.873 117.666 147.176 117.98C147.48 118.294 147.893 118.478 148.33 118.493Z" fill="#2C66BF"/>
<path d="M141.267 117.818C141.703 117.802 142.117 117.618 142.42 117.304C142.724 116.99 142.894 116.57 142.894 116.133C142.894 115.697 142.724 115.277 142.42 114.963C142.117 114.648 141.703 114.464 141.267 114.449C140.83 114.464 140.417 114.648 140.113 114.963C139.81 115.277 139.64 115.697 139.64 116.133C139.64 116.57 139.81 116.99 140.113 117.304C140.417 117.618 140.83 117.802 141.267 117.818Z" fill="#E26A90"/>
<path d="M218.776 101.379V111.832L223.078 112.775C223.078 112.775 222 136.354 210.682 130.156C199.364 123.958 195.861 113.584 198.287 112.775L202.059 111.563L202.546 101.831L218.776 101.379Z" fill="#EFAD90"/>
<path d="M194.514 80.891C194.514 67.5712 201.632 56.7734 210.413 56.7734C219.193 56.7734 226.311 67.5712 226.311 80.891L226.311 80.9011C226.346 80.9004 226.378 80.891 226.412 80.891C227.811 80.8968 229.151 81.4565 230.138 82.4476C231.125 83.4387 231.679 84.7805 231.679 86.1793C231.679 87.578 231.125 88.9198 230.138 89.911C229.151 90.9021 227.811 91.4618 226.412 91.4675C225.855 91.4604 225.302 91.3642 224.775 91.1826C222.227 99.3471 216.763 105.008 210.413 105.008C204.07 105.008 198.611 99.3602 196.06 91.2113C195.56 91.3738 195.039 91.4602 194.514 91.4675C193.115 91.4618 191.776 90.9021 190.789 89.911C189.802 88.9198 189.248 87.578 189.248 86.1793C189.248 84.7805 189.802 83.4387 190.789 82.4476C191.776 81.4565 193.115 80.8968 194.514 80.891H194.514Z" fill="#EFAD90"/>
<path d="M224.56 85.6071C224.56 85.6071 225.503 67.0138 218.901 62.9718C218.901 62.9718 216.476 59.8729 209.604 67.1485C202.733 74.4242 196.054 70.5248 196.054 70.5248C196.054 70.5248 194.379 83.0472 195.457 85.6071C195.457 85.6071 185.756 69.0348 196.4 60.5465C207.044 52.0583 212.838 55.0224 221.326 60.5465C221.326 60.5465 237.225 62.4328 224.56 85.6071Z" fill="#732220"/>
<path d="M211.418 82.1534C211.868 82.8499 212.216 83.6079 212.45 84.4039C212.708 85.208 212.844 86.0462 212.853 86.8906C212.853 87.3533 212.775 87.8126 212.622 88.2492C212.53 88.5155 212.372 88.754 212.163 88.9426C211.953 89.1312 211.7 89.2636 211.425 89.3276C210.942 89.3904 210.451 89.2801 210.041 89.0162C209.675 88.802 209.344 88.5324 209.06 88.2169C209.74 88.4913 210.481 88.5817 211.207 88.4789C211.604 88.3128 211.739 87.6199 211.731 86.877C211.725 86.108 211.679 85.3398 211.594 84.5755C211.519 83.7876 211.438 82.9894 211.418 82.1534ZM222.716 78.1784C222.716 78.1784 218.646 74.4913 214.529 78.1459L222.716 78.1784ZM208.212 78.3952C208.212 78.3952 204.512 74.3369 200.065 77.5824L208.212 78.3952Z" fill="#200100"/>
<path d="M217.549 84.7131C218.181 84.7131 218.694 83.944 218.694 82.9952C218.694 82.0465 218.181 81.2773 217.549 81.2773C216.916 81.2773 216.404 82.0465 216.404 82.9952C216.404 83.944 216.916 84.7131 217.549 84.7131Z" fill="#200100"/>
<path d="M204.48 84.2404C205.112 84.2404 205.625 83.4713 205.625 82.5226C205.625 81.5738 205.112 80.8047 204.48 80.8047C203.847 80.8047 203.334 81.5738 203.334 82.5226C203.334 83.4713 203.847 84.2404 204.48 84.2404Z" fill="#200100"/>
<path d="M229.742 87.1832C229.173 86.6645 228.541 86.2199 227.86 85.8603C227.571 85.7307 227.254 85.6737 226.937 85.6942C226.579 85.6892 226.188 85.7852 225.7 85.8362C225.908 85.3921 226.271 85.0395 226.721 84.845C226.966 84.7323 227.232 84.6721 227.502 84.6682C227.771 84.6643 228.039 84.7169 228.287 84.8225C228.758 85.0279 229.15 85.379 229.406 85.8241C229.657 86.2309 229.775 86.7062 229.742 87.1832ZM190.894 87.1832C190.861 86.7062 190.978 86.2309 191.23 85.8241C191.486 85.379 191.878 85.0279 192.348 84.8225C192.597 84.7169 192.864 84.6643 193.134 84.6682C193.404 84.672 193.669 84.7322 193.915 84.8449C194.365 85.0395 194.728 85.3921 194.936 85.8361C194.448 85.7852 194.057 85.6892 193.698 85.6941C193.382 85.6737 193.065 85.7307 192.775 85.8603C192.095 86.2199 191.462 86.6644 190.894 87.1832ZM218.224 101.886C217.323 102.957 216.204 103.823 214.942 104.427C213.662 105.057 212.265 105.413 210.84 105.471C209.412 105.536 207.987 105.277 206.673 104.714C206.023 104.448 205.403 104.117 204.821 103.725C204.261 103.319 203.729 102.876 203.23 102.397C203.879 102.655 204.461 102.994 205.084 103.24C205.695 103.495 206.322 103.711 206.96 103.886C208.203 104.254 209.499 104.411 210.794 104.35C213.442 104.183 216.001 103.334 218.224 101.886ZM215.42 92.9817C215.42 92.9817 212.298 100.055 206.033 94.1943L215.42 92.9817ZM136.144 119.79C136.144 119.79 133.022 126.863 126.757 121.002L136.144 119.79Z" fill="#200100"/>
<path d="M208.928 135.059L211.783 144.675L180.621 185.618C175.783 192.111 166.678 191.799 162.627 183.633C162.627 183.633 162.32 177.679 163.131 175.928C166.779 168.052 170.755 167.071 177.064 161.78L208.928 135.059Z" fill="#8C4D3E"/>
<path d="M210.051 136.18L212.906 145.796L181.743 186.739C176.906 193.232 167.8 192.92 163.75 184.754C163.75 184.754 163.442 178.8 164.254 177.049C167.901 169.173 171.877 168.192 178.187 162.901L210.051 136.18Z" fill="#8C4D3E"/>
<path d="M138.17 161.335C138.17 161.335 137.953 157.014 131.223 150.249C124.494 143.483 118.477 138.876 122.007 144.603L124.769 148.922C124.769 148.922 117.583 146.233 113.443 144.257C112.353 143.715 111.118 143.538 109.92 143.751C108.722 143.964 107.623 144.556 106.787 145.44C105.256 147.132 105.325 148.96 109.641 152.154C116.097 156.931 126.096 164.202 128.035 164.915C128.707 165.162 138.17 161.335 138.17 161.335Z" fill="#B86A4B"/>
<path d="M178.346 213.02H243.288L243.827 202.241L252.989 239.428L269.965 236.733C265.3 181.917 254.465 146.451 248.789 130.942C247.766 128.15 246.175 125.601 244.116 123.456C242.057 121.31 239.575 119.615 236.827 118.478L223.078 112.777C223.078 112.777 211.491 140.263 198.287 112.777L184.537 118.478C178.981 120.782 171.79 125.141 169.723 130.789C167.153 137.811 162.334 153.219 158.691 160.345C158.452 160.812 158.113 161.222 157.698 161.544C157.284 161.867 156.803 162.094 156.291 162.211C155.779 162.327 155.247 162.33 154.734 162.219C154.221 162.108 153.738 161.885 153.32 161.567L132.903 149.386L125.045 164.556L151.064 186.167C154.513 188.541 158.758 189.465 162.882 188.74C167.007 188.016 170.682 185.7 173.116 182.293L177.538 176.103L178.076 213.02H243.018" fill="#31AA51"/>
<path d="M128.977 150.891C128.213 150.722 127.473 150.463 126.771 150.118C126.065 149.788 125.394 149.387 124.769 148.92C125.165 148.955 125.556 149.037 125.933 149.162C126.306 149.278 126.67 149.421 127.022 149.59C127.737 149.921 128.396 150.359 128.977 150.891ZM119.081 149.684C118.17 149.389 117.277 149.041 116.407 148.64C115.531 148.255 114.682 147.815 113.845 147.349C113.008 146.881 112.199 146.365 111.422 145.803C110.635 145.25 109.911 144.613 109.262 143.902C110.845 144.978 112.479 145.909 114.132 146.84C115.778 147.781 117.447 148.681 119.081 149.684ZM115.209 153.586C114.354 153.383 113.517 153.114 112.704 152.782C111.888 152.458 111.091 152.086 110.318 151.67C108.753 150.857 107.336 149.785 106.128 148.5C106.87 148.974 107.592 149.446 108.338 149.885C109.09 150.313 109.833 150.751 110.597 151.156L115.209 153.586ZM117.332 151.908C116.317 151.639 115.323 151.301 114.354 150.898C113.38 150.505 112.43 150.054 111.509 149.548C110.58 149.046 109.697 148.463 108.871 147.805C108.015 147.175 107.304 146.368 106.787 145.439C107.47 146.217 108.262 146.892 109.138 147.443C109.998 148.009 110.879 148.547 111.792 149.036C113.6 150.043 115.468 150.946 117.332 151.908Z" fill="#160B07"/>
<path d="M141.089 393.723L143.407 407.229L160.084 419.557C160.084 419.557 140.48 426.631 130.578 416.122L132.599 406.825L127.95 394.901L141.089 393.723ZM79.3086 393.723L79.2361 407.229L62.5591 419.557C62.5591 419.557 82.1629 426.631 92.0659 416.122L90.0449 406.825L92.4476 394.901L79.3086 393.723Z" fill="#8C4D3E"/>
<path d="M110.085 196.98L101.917 211.605C96.2703 221.714 92.4825 232.754 90.7335 244.2L67.6104 397.357L150.775 394.903L156.012 249.644C156.569 236.67 154.147 223.741 148.931 211.849C146.616 206.464 143.514 201.453 139.727 196.98L110.085 196.98Z" fill="#7B56BA"/>
<path d="M83.9319 241.446L81.5554 259.101C81.4319 260.057 81.525 261.029 81.8279 261.944C82.1307 262.859 82.6356 263.694 83.305 264.388L90.3522 271.869C90.5508 272.072 90.7911 272.231 91.0567 272.333C91.3222 272.435 91.6067 272.478 91.8906 272.46C92.3693 272.457 92.8276 272.265 93.1652 271.926C93.5027 271.586 93.6921 271.127 93.6919 270.648C93.6379 269.737 93.2575 268.876 92.6203 268.223L87.2202 262.589C87.2202 262.589 87.4603 254.481 87.6735 255.684L90.5166 259.43C90.6599 259.605 90.8419 259.744 91.0481 259.836C91.2544 259.929 91.4792 259.972 91.705 259.963C91.9308 259.954 92.1514 259.892 92.3493 259.783C92.5473 259.674 92.7172 259.52 92.8458 259.335C92.995 259.113 93.0623 258.846 93.0361 258.58C92.9147 257.601 92.5593 256.667 92.0001 255.855L91.2015 254.686C91.2015 254.686 92.3586 245.585 90.0322 241.121L83.9319 241.446Z" fill="#8C4D3E"/>
<path d="M87.6975 183.156L82.8875 249.795L91.0467 246.122L101.446 189.171L87.6975 183.156Z" fill="#8C4D3E"/>
<path d="M86.5502 193.812L89.2724 158.254C89.5004 155.284 90.4307 152.412 91.9866 149.872C93.5426 147.333 95.6796 145.2 98.2217 143.648C101.202 141.821 104.435 140.44 107.816 139.55C113.059 138.306 118.43 137.684 123.818 137.695C123.818 137.695 129.477 153.325 137.561 137.695L148.716 141.454C151.922 142.534 154.872 144.263 157.381 146.533C159.89 148.802 161.905 151.564 163.301 154.646L175.355 174.479L165.751 186.245L149.538 175.004L139.717 196.978H110.075L103.528 174.479L101.143 193.812L86.5502 193.812ZM166.551 426.428C166.551 426.428 144.522 426.842 139.268 421.886V426.437H129.567C129.567 426.437 126.519 410.213 131.681 411.045C136.843 411.877 155.216 425.905 155.629 416.264L162.838 419.974C163.956 420.55 164.895 421.423 165.55 422.497C166.205 423.571 166.551 424.804 166.551 426.063V426.428ZM56.0918 426.428C56.0918 426.428 78.1209 426.842 83.3755 421.886V426.437H93.0764C93.0764 426.437 96.1239 410.213 90.9623 411.045C85.8008 411.877 67.4268 425.905 67.0139 416.264L59.8057 419.974C58.6871 420.55 57.7487 421.423 57.0936 422.497C56.4384 423.571 56.0918 424.804 56.0918 426.063V426.428Z" fill="#4285F4"/>
<path d="M141.776 211.97C141.656 211.97 141.538 211.931 141.442 211.859C141.345 211.787 141.274 211.686 141.239 211.57L140.751 209.959C140.728 209.888 140.721 209.813 140.728 209.74C140.734 209.666 140.756 209.594 140.791 209.529C140.825 209.463 140.873 209.405 140.93 209.358C140.987 209.311 141.053 209.276 141.124 209.254C141.195 209.233 141.27 209.226 141.343 209.233C141.417 209.241 141.488 209.263 141.554 209.298C141.619 209.334 141.676 209.381 141.723 209.439C141.77 209.497 141.804 209.563 141.825 209.634L142.313 211.246C142.339 211.33 142.344 211.418 142.329 211.505C142.314 211.591 142.279 211.673 142.227 211.743C142.175 211.813 142.107 211.87 142.028 211.91C141.95 211.949 141.864 211.97 141.776 211.97H141.776ZM145.362 223.802C145.241 223.802 145.124 223.763 145.027 223.691C144.93 223.619 144.859 223.518 144.824 223.402L143.928 220.444C143.906 220.373 143.898 220.299 143.905 220.225C143.912 220.152 143.933 220.08 143.968 220.014C144.003 219.949 144.05 219.891 144.108 219.844C144.165 219.797 144.231 219.762 144.302 219.74C144.373 219.719 144.447 219.712 144.521 219.719C144.595 219.727 144.666 219.749 144.731 219.784C144.796 219.819 144.854 219.867 144.9 219.925C144.947 219.982 144.982 220.049 145.003 220.12L145.899 223.078C145.924 223.162 145.93 223.25 145.915 223.337C145.9 223.423 145.865 223.505 145.812 223.575C145.76 223.645 145.692 223.702 145.614 223.742C145.536 223.781 145.449 223.802 145.362 223.802H145.362ZM143.569 217.886C143.448 217.886 143.331 217.847 143.234 217.776C143.138 217.704 143.066 217.602 143.032 217.487L142.135 214.529C142.113 214.458 142.105 214.384 142.112 214.31C142.119 214.236 142.141 214.164 142.175 214.099C142.21 214.033 142.257 213.975 142.315 213.928C142.372 213.881 142.438 213.846 142.509 213.825C142.58 213.803 142.654 213.796 142.728 213.803C142.802 213.811 142.873 213.833 142.938 213.868C143.004 213.904 143.061 213.951 143.108 214.009C143.154 214.067 143.189 214.133 143.21 214.204L144.106 217.162C144.132 217.246 144.137 217.335 144.122 217.421C144.107 217.508 144.072 217.589 144.02 217.659C143.967 217.73 143.899 217.787 143.821 217.826C143.743 217.866 143.657 217.886 143.569 217.886H143.569ZM146.747 228.371C146.627 228.371 146.509 228.332 146.412 228.26C146.316 228.188 146.245 228.087 146.21 227.971L145.721 226.36C145.699 226.289 145.691 226.215 145.698 226.141C145.705 226.067 145.727 225.995 145.761 225.93C145.796 225.864 145.843 225.806 145.901 225.759C145.958 225.712 146.024 225.677 146.095 225.655C146.166 225.634 146.24 225.627 146.314 225.634C146.388 225.642 146.459 225.664 146.524 225.699C146.59 225.735 146.647 225.782 146.694 225.84C146.74 225.898 146.775 225.964 146.796 226.035L147.284 227.647C147.31 227.731 147.315 227.819 147.3 227.906C147.285 227.992 147.25 228.074 147.198 228.144C147.145 228.214 147.078 228.271 146.999 228.311C146.921 228.35 146.835 228.371 146.747 228.371H146.747Z" fill="#E06C96"/>
<path d="M155.616 162.757C154.969 164.955 154.12 167.089 153.08 169.13C152.085 171.194 150.899 173.161 149.538 175.005C150.183 172.806 151.032 170.672 152.074 168.631C153.072 166.568 154.257 164.602 155.616 162.757ZM103.528 174.48C102.358 171.985 101.381 169.405 100.606 166.76C99.7824 164.13 99.1645 161.44 98.7578 158.715C99.9304 161.209 100.907 163.79 101.68 166.435C102.501 169.065 103.119 171.755 103.528 174.48Z" fill="#2C66BF"/>
<path d="M241.401 213.02V398.414H216.61L213.377 236.733H206.909L194.514 398.414H169.723L180.501 213.02H241.401Z" fill="#1D1D1D"/>
<path d="M177.538 145.652C177.769 148.19 177.878 150.727 177.967 153.265C178.07 155.802 178.084 158.34 178.099 160.877C178.086 163.415 178.071 165.952 177.969 168.49L177.813 172.296C177.72 173.565 177.665 174.834 177.538 176.102C177.41 174.834 177.356 173.565 177.262 172.296L177.106 168.49C177.004 165.952 176.989 163.415 176.977 160.877C176.991 158.34 177.005 155.802 177.108 153.265C177.198 150.727 177.306 148.19 177.538 145.652ZM243.288 147C243.564 151.601 243.718 156.203 243.852 160.806C243.99 165.409 244.026 170.012 244.118 174.615C244.119 179.219 244.168 183.822 244.124 188.426L244.035 195.333C243.964 197.635 243.932 199.938 243.827 202.241C243.677 199.94 243.6 197.639 243.484 195.338L243.26 188.435C243.126 183.832 243.086 179.229 242.997 174.626C242.999 170.022 242.945 165.418 242.993 160.814C243.038 156.21 243.101 151.606 243.288 147Z" fill="#23893C"/>
<path d="M189.125 404.883C189.125 404.883 195.861 423.746 190.202 426.44H184.544C184.544 426.44 181.849 418.895 178.076 426.44H143.584C143.584 426.44 141.429 420.512 149.782 417.817C158.136 415.123 172.148 404.883 172.148 404.883H189.125Z" fill="#E1E1E1"/>
<path d="M190.202 398.414L189.124 404.881H172.148V398.414H190.202Z" fill="#EFAD90"/>
<path d="M220.779 404.883C220.779 404.883 214.043 423.746 219.702 426.44H225.36C225.36 426.44 228.055 418.895 231.828 426.44H266.32C266.32 426.44 268.475 420.512 260.122 417.817C251.768 415.123 237.756 404.883 237.756 404.883H220.779Z" fill="#E1E1E1"/>
<path d="M219.701 398.414L220.779 404.881H237.756V398.414H219.701Z" fill="#EFAD90"/>
<path d="M205.349 236.271C207.152 235.875 208.994 235.686 210.84 235.709C212.685 235.684 214.528 235.872 216.33 236.271C214.528 236.669 212.685 236.857 210.84 236.832C208.994 236.855 207.152 236.667 205.349 236.271Z" fill="#B7251D"/>
<path d="M174.232 173.359L177.538 176.642L177.717 188.407C177.717 188.407 167.815 193.81 164.628 185.125L174.232 173.359Z" fill="#8C4D3E"/>
<path d="M119.276 136.21L119.783 140.288C119.905 141.251 119.774 142.229 119.404 143.126C119.033 144.023 118.436 144.808 117.671 145.405C117.351 145.66 117.002 145.874 116.63 146.043C116.087 146.306 115.504 146.478 114.906 146.552L108.978 147.29C108.77 147.318 108.559 147.329 108.349 147.323C107.964 147.341 107.579 147.305 107.204 147.216C106.043 146.995 104.982 146.41 104.175 145.547C103.368 144.683 102.856 143.586 102.714 142.413L102.206 138.334C102.097 137.448 102.343 136.554 102.892 135.85C103.441 135.145 104.246 134.687 105.133 134.576L115.517 133.283C116.403 133.174 117.297 133.42 118.002 133.969C118.706 134.518 119.164 135.324 119.276 136.21Z" fill="#EFAD90"/>
<path d="M117.671 145.406C117.351 145.661 117.002 145.875 116.63 146.044L115.559 138.257C115.549 138.184 115.554 138.11 115.573 138.039C115.591 137.967 115.624 137.901 115.669 137.842C115.714 137.783 115.769 137.734 115.833 137.697C115.897 137.66 115.967 137.636 116.04 137.626C116.113 137.616 116.188 137.621 116.259 137.64C116.33 137.659 116.397 137.691 116.456 137.736C116.514 137.781 116.564 137.837 116.601 137.9C116.638 137.964 116.662 138.035 116.672 138.108L117.671 145.406ZM114.549 146.598L113.435 146.736L112.326 138.739C112.308 138.592 112.349 138.443 112.441 138.325C112.532 138.208 112.666 138.132 112.814 138.113C112.886 138.103 112.96 138.107 113.031 138.126C113.101 138.144 113.168 138.176 113.226 138.221C113.284 138.265 113.333 138.32 113.369 138.384C113.406 138.447 113.43 138.517 113.439 138.589L114.549 146.598ZM111.273 147.005L110.159 147.144L109.085 139.335C109.074 139.262 109.078 139.188 109.096 139.117C109.114 139.046 109.146 138.98 109.191 138.921C109.235 138.863 109.291 138.814 109.355 138.778C109.419 138.741 109.489 138.718 109.562 138.71L109.573 138.708C109.718 138.692 109.865 138.732 109.981 138.821C110.098 138.91 110.175 139.04 110.198 139.185L111.273 147.005ZM108.349 147.324C107.964 147.342 107.579 147.306 107.204 147.217L106.102 139.186C106.081 139.038 106.12 138.889 106.209 138.77C106.298 138.65 106.43 138.571 106.577 138.549C106.652 138.537 106.727 138.54 106.8 138.558C106.873 138.576 106.941 138.609 107.001 138.655C107.061 138.7 107.111 138.758 107.147 138.823C107.184 138.889 107.207 138.961 107.215 139.036L108.349 147.324Z" fill="#200100"/>
<path d="M240.541 117.478L239.666 121.13C239.461 121.993 239.035 122.787 238.431 123.436C237.826 124.085 237.063 124.565 236.217 124.83C235.862 124.945 235.494 125.017 235.121 125.042C234.572 125.093 234.019 125.053 233.483 124.924L228.174 123.653C227.987 123.611 227.803 123.552 227.625 123.48C227.29 123.371 226.972 123.217 226.68 123.021C225.758 122.459 225.038 121.618 224.624 120.621C224.211 119.623 224.125 118.52 224.38 117.47L225.254 113.818C225.445 113.024 225.943 112.339 226.638 111.912C227.334 111.485 228.17 111.352 228.964 111.541L238.264 113.768C239.057 113.958 239.743 114.456 240.17 115.152C240.596 115.847 240.73 116.684 240.541 117.478Z" fill="#8C4D3E"/>
<path d="M236.216 124.828C235.861 124.944 235.494 125.015 235.121 125.041L236.704 118.034C236.735 117.903 236.817 117.789 236.932 117.718C237.047 117.646 237.185 117.623 237.317 117.653C237.449 117.684 237.564 117.765 237.636 117.879C237.708 117.993 237.733 118.131 237.704 118.264L236.216 124.828ZM233.163 124.846L232.165 124.607L233.783 117.409C233.815 117.277 233.898 117.163 234.014 117.092C234.13 117.021 234.269 116.999 234.401 117.03C234.467 117.045 234.528 117.072 234.583 117.11C234.637 117.149 234.684 117.198 234.719 117.254C234.755 117.311 234.779 117.374 234.79 117.44C234.801 117.506 234.798 117.573 234.783 117.638L233.163 124.846ZM230.23 124.144L229.232 123.905L230.819 116.879C230.833 116.813 230.86 116.751 230.898 116.696C230.936 116.641 230.985 116.595 231.042 116.559C231.099 116.523 231.162 116.5 231.228 116.489C231.295 116.478 231.362 116.481 231.427 116.497L231.437 116.5C231.567 116.532 231.679 116.614 231.75 116.727C231.822 116.84 231.846 116.977 231.819 117.108L230.23 124.144ZM227.625 123.478C227.29 123.37 226.972 123.215 226.68 123.02L228.315 115.794C228.344 115.661 228.425 115.546 228.539 115.472C228.654 115.399 228.792 115.374 228.925 115.402C228.993 115.415 229.057 115.442 229.113 115.481C229.17 115.52 229.218 115.57 229.254 115.628C229.29 115.687 229.315 115.752 229.325 115.819C229.336 115.887 229.332 115.956 229.315 116.023L227.625 123.478Z" fill="#200100"/>
</g>
<defs>
<clipPath id="clip0_884_1372">
<rect width="326.057" height="427" fill="white"/>
</clipPath>
</defs>
</svg>
