<svg width="1440" height="1967" viewBox="0 0 1440 1967" fill="none" xmlns="http://www.w3.org/2000/svg">
<path d="M2581 983.5C2581 1253.98 2373.29 1499.32 2036.41 1677.17C1699.61 1854.97 1234.19 1965 720 1965C205.806 1965 -259.611 1854.97 -596.406 1677.17C-933.292 1499.32 -1141 1253.98 -1141 983.5C-1141 713.023 -933.292 467.675 -596.406 289.829C-259.611 112.031 205.806 2 720 2C1234.19 2 1699.61 112.031 2036.41 289.829C2373.29 467.675 2581 713.023 2581 983.5Z" fill="#EAE2F7" stroke="#D4C2F2" stroke-width="4"/>
<g clip-path="url(#clip0_1405_1152)">
<path d="M109 56H108V57H109V56Z" fill="#E3DAF2"/>
<path d="M108.5 57.25C108.914 57.25 109.25 56.9142 109.25 56.5C109.25 56.0858 108.914 55.75 108.5 55.75C108.086 55.75 107.75 56.0858 107.75 56.5C107.75 56.9142 108.086 57.25 108.5 57.25Z" fill="#E3DAF2"/>
<path d="M108.5 57.125C108.845 57.125 109.125 56.8452 109.125 56.5C109.125 56.1548 108.845 55.875 108.5 55.875C108.155 55.875 107.875 56.1548 107.875 56.5C107.875 56.8452 108.155 57.125 108.5 57.125Z" fill="#C8B6E2"/>
<path d="M108.5 57C108.776 57 109 56.7761 109 56.5C109 56.2239 108.776 56 108.5 56C108.224 56 108 56.2239 108 56.5C108 56.7761 108.224 57 108.5 57Z" fill="#AE95CE"/>
<path d="M108.5 56.875C108.707 56.875 108.875 56.7071 108.875 56.5C108.875 56.2929 108.707 56.125 108.5 56.125C108.293 56.125 108.125 56.2929 108.125 56.5C108.125 56.7071 108.293 56.875 108.5 56.875Z" fill="#9576B8"/>
<path d="M108.5 56.75C108.638 56.75 108.75 56.6381 108.75 56.5C108.75 56.3619 108.638 56.25 108.5 56.25C108.362 56.25 108.25 56.3619 108.25 56.5C108.25 56.6381 108.362 56.75 108.5 56.75Z" fill="#7D5C9E"/>
<path d="M108.5 56.625C108.569 56.625 108.625 56.569 108.625 56.5C108.625 56.431 108.569 56.375 108.5 56.375C108.431 56.375 108.375 56.431 108.375 56.5C108.375 56.569 108.431 56.625 108.5 56.625Z" fill="#644E77"/>
</g>
<path d="M49.2291 728.72C46.7331 728.72 40.9731 724.784 31.9491 716.912C22.9251 709.04 18.4131 703.664 18.4131 700.784C18.4131 697.712 26.7651 688.304 43.4691 672.56C60.1731 656.816 69.4851 648.944 71.4051 648.944C71.9811 648.944 73.2291 649.904 75.1491 651.824C77.2611 653.744 78.3171 655.28 78.3171 656.432C78.3171 657.392 73.8051 666.416 64.7811 683.504C75.3411 691.76 80.6211 697.424 80.6211 700.496C80.6211 703.568 76.0131 709.04 66.7971 716.912C57.5811 724.784 51.7251 728.72 49.2291 728.72ZM117.197 728.72C114.701 728.72 108.941 724.784 99.9171 716.912C90.8931 709.04 86.3811 703.664 86.3811 700.784C86.3811 697.712 94.7331 688.304 111.437 672.56C128.141 656.816 137.453 648.944 139.373 648.944C139.949 648.944 141.197 649.904 143.117 651.824C145.229 653.744 146.285 655.28 146.285 656.432C146.285 657.392 141.773 666.416 132.749 683.504C143.309 691.76 148.589 697.424 148.589 700.496C148.589 703.568 143.981 709.04 134.765 716.912C125.549 724.784 119.693 728.72 117.197 728.72Z" fill="#8C5AE0" fill-opacity="0.2"/>
<g opacity="0.4" clip-path="url(#clip1_1405_1152)">
<path d="M1367.73 342.085C1421.88 342.085 1465.77 336.604 1465.77 329.843C1465.77 323.082 1421.88 317.602 1367.73 317.602C1313.59 317.602 1269.7 323.082 1269.7 329.843C1269.7 336.604 1313.59 342.085 1367.73 342.085Z" fill="#734FAE" fill-opacity="0.5"/>
<path d="M1346 321.224V317.268C1346 315.489 1344.56 314.047 1342.78 314.047H1307.34C1305.56 314.047 1304.12 315.489 1304.12 317.268V329.08C1304.12 330.86 1305.56 332.302 1307.34 332.302H1330.91C1333.48 332.302 1335.94 331.282 1337.76 329.465L1346 321.224Z" fill="#92D6E9"/>
<path opacity="0.3" d="M1342.78 314.047H1307.34C1305.56 314.047 1304.12 315.489 1304.12 317.268V328.231H1338.99L1346 321.224V317.268C1346 315.489 1344.56 314.047 1342.78 314.047Z" fill="#0A1E2B" stroke="#0A1E2B" stroke-width="6" stroke-miterlimit="10" stroke-linecap="round" stroke-linejoin="round"/>
<path d="M1389.46 321.224V317.268C1389.46 315.489 1390.91 314.047 1392.69 314.047H1428.12C1429.9 314.047 1431.34 315.489 1431.34 317.268V329.08C1431.34 330.86 1429.9 332.302 1428.12 332.302H1404.55C1401.98 332.302 1399.52 331.282 1397.71 329.465L1389.46 321.224Z" fill="#92D6E9"/>
<path opacity="0.3" d="M1428.12 314.047H1392.69C1390.91 314.047 1389.46 315.489 1389.46 317.268V321.224L1396.47 328.231H1431.34V317.268C1431.34 315.489 1429.9 314.047 1428.12 314.047Z" fill="#0A1E2B" stroke="#0A1E2B" stroke-width="6" stroke-miterlimit="10" stroke-linecap="round" stroke-linejoin="round"/>
<path d="M1346 321.224V317.268C1346 315.489 1344.56 314.047 1342.78 314.047H1307.34C1305.56 314.047 1304.12 315.489 1304.12 317.268V329.08C1304.12 330.86 1305.56 332.302 1307.34 332.302H1330.91C1333.48 332.302 1335.94 331.282 1337.76 329.465L1346 321.224ZM1389.46 321.224V317.268C1389.46 315.489 1390.91 314.047 1392.68 314.047H1428.12C1429.9 314.047 1431.34 315.489 1431.34 317.268V329.08C1431.34 330.86 1429.9 332.302 1428.12 332.302H1404.55C1401.98 332.302 1399.52 331.282 1397.71 329.465L1389.46 321.224Z" stroke="#734FAE" stroke-width="2" stroke-miterlimit="10" stroke-linecap="round" stroke-linejoin="round"/>
<path d="M1437.53 321.253H1297.93C1286.07 321.253 1276.46 311.638 1276.46 299.777V160.18C1276.46 148.319 1286.07 138.703 1297.93 138.703H1437.53C1449.39 138.703 1459.01 148.319 1459.01 160.18V299.777C1459.01 311.638 1449.39 321.253 1437.53 321.253Z" fill="#CBEDF9"/>
<path d="M1437.53 138.703H1297.93C1286.07 138.703 1276.46 148.319 1276.46 160.18V172.529C1276.46 160.668 1286.07 151.052 1297.93 151.052H1437.53C1449.39 151.052 1459.01 160.668 1459.01 172.529V160.18C1459.01 148.318 1449.39 138.703 1437.53 138.703Z" fill="#E8F9FF"/>
<path d="M1437.53 308.906H1297.93C1286.07 308.906 1276.46 299.291 1276.46 287.43V299.779C1276.46 311.64 1286.07 321.255 1297.93 321.255H1437.53C1449.39 321.255 1459.01 311.64 1459.01 299.779V287.43C1459.01 299.291 1449.39 308.906 1437.53 308.906Z" fill="#92D6E9"/>
<path opacity="0.23" d="M1297.24 299.302L1316.8 321.254H1353.26L1376.86 321.142L1372.21 286.16L1297.24 299.302Z" fill="#0A1E2B" stroke="#0A1E2B" stroke-width="6" stroke-miterlimit="10" stroke-linecap="round" stroke-linejoin="round"/>
<path d="M1304.38 301.924C1299.63 301.924 1295.79 298.078 1295.79 293.333V166.622C1295.79 161.877 1299.63 158.031 1304.38 158.031H1431.09C1435.83 158.031 1439.68 161.877 1439.68 166.622V293.333C1439.68 298.078 1435.83 301.924 1431.09 301.924H1304.38Z" fill="#92D6E9"/>
<path d="M1439.68 166.622V293.333C1439.68 298.08 1435.83 301.924 1431.09 301.924H1304.38C1299.63 301.924 1295.79 298.08 1295.79 293.333V166.622C1295.79 161.876 1299.63 158.031 1304.38 158.031H1372.77C1375.16 159.17 1376.86 161.672 1376.86 164.415V169.956H1421.22C1422.63 169.956 1423.89 170.525 1424.82 171.443L1435.94 159.535C1438.2 161.081 1439.68 163.674 1439.68 166.622Z" stroke="#734FAE" stroke-width="2" stroke-miterlimit="10" stroke-linecap="round" stroke-linejoin="round"/>
<path opacity="0.23" d="M1416.56 279.635L1445.85 296.04L1451.76 277.655L1435.94 266.855L1416.56 279.635Z" fill="#0A1E2B" stroke="#0A1E2B" stroke-width="6" stroke-miterlimit="10" stroke-linecap="round" stroke-linejoin="round"/>
<path d="M1435.94 159.535L1424.82 171.443C1423.89 170.525 1422.63 169.956 1421.22 169.956H1376.86V164.415C1376.86 161.672 1375.16 159.17 1372.77 158.031H1431.09C1432.89 158.031 1434.56 158.584 1435.94 159.535Z" fill="#53ADBC"/>
<path d="M1424.82 171.443C1425.73 172.361 1426.3 173.634 1426.3 175.035V281.822C1426.3 284.92 1423.79 287.427 1420.7 287.427H1376.86M1435.94 159.535L1424.82 171.443C1423.89 170.525 1422.63 169.956 1421.22 169.956H1376.86V164.415C1376.86 161.672 1375.16 159.17 1372.77 158.031H1431.09C1432.89 158.031 1434.56 158.584 1435.94 159.535Z" stroke="#734FAE" stroke-width="2" stroke-miterlimit="10" stroke-linecap="round" stroke-linejoin="round"/>
<path d="M1454.72 263.933L1444.99 238.763C1444.43 237.315 1442.8 236.595 1441.35 237.155L1417.56 246.355L1393.76 255.556C1392.31 256.116 1391.59 257.744 1392.15 259.192L1401.88 284.362C1402.44 285.811 1404.07 286.531 1405.52 285.971L1429.32 276.77L1453.11 267.57C1454.56 267.01 1455.28 265.382 1454.72 263.933Z" fill="#5F9E71" stroke="#734FAE" stroke-width="2" stroke-miterlimit="10" stroke-linecap="round" stroke-linejoin="round"/>
<path d="M1454.95 264.422L1445.22 239.252C1444.66 237.803 1443.03 237.083 1441.58 237.643L1417.78 246.844L1393.99 256.044C1392.54 256.604 1391.82 258.232 1392.38 259.681L1402.11 284.851C1402.67 286.299 1404.3 287.019 1405.75 286.459L1429.54 277.259L1453.34 268.058C1454.79 267.498 1455.51 265.87 1454.95 264.422Z" stroke="#734FAE" stroke-width="2" stroke-miterlimit="10" stroke-linecap="round" stroke-linejoin="round"/>
<path d="M1447.87 262.707L1445.36 256.213C1443.85 256.794 1442.17 256.047 1441.58 254.545C1441 253.043 1441.75 251.355 1443.25 250.774L1440.74 244.28C1440.44 243.504 1439.57 243.118 1438.79 243.418L1419.77 250.771L1419.33 250.943L1400.31 258.296C1399.53 258.596 1399.15 259.469 1399.45 260.246L1401.96 266.739C1403.46 266.158 1405.15 266.905 1405.73 268.407C1406.31 269.909 1405.56 271.598 1404.06 272.179L1406.57 278.672C1406.87 279.448 1407.75 279.834 1408.52 279.534L1427.54 272.181L1427.99 272.009L1447 264.656C1447.78 264.356 1448.17 263.484 1447.87 262.707Z" fill="#90C49E"/>
<path d="M1426 268.223C1429.52 266.863 1431.22 262.778 1429.8 259.1C1428.38 255.422 1424.37 253.543 1420.85 254.904C1417.33 256.264 1415.63 260.349 1417.06 264.027C1418.48 267.705 1422.48 269.584 1426 268.223Z" fill="white"/>
<path opacity="0.23" d="M1411.7 266.858L1430.75 241.253L1430.01 216.293L1411.7 266.858Z" fill="#0A1E2B" stroke="#0A1E2B" stroke-width="6" stroke-miterlimit="10" stroke-linecap="round" stroke-linejoin="round"/>
<path d="M1399.85 268.938H1391.31L1394.62 280.962L1396.21 284.986L1399.85 268.938Z" fill="#A78B75"/>
<path d="M1388.63 287.426H1370.75C1367.41 287.426 1365.39 284.667 1366.16 281.593L1368.8 271.049C1369.25 269.241 1371.41 267.883 1373.66 267.883H1385.72C1387.96 267.883 1390.13 269.242 1390.58 271.049L1393.21 281.593C1393.98 284.666 1391.96 287.426 1388.63 287.426Z" fill="#FFE07D"/>
<path d="M1393.21 281.593L1390.58 271.049C1390.13 269.241 1387.96 267.883 1385.71 267.883H1373.66C1371.41 267.883 1369.25 269.242 1368.8 271.049L1368.73 271.304C1369.2 271.185 1369.68 271.117 1370.17 271.117H1382.23C1384.47 271.117 1386.64 272.476 1387.09 274.283L1389.72 284.827C1389.94 285.702 1389.93 286.548 1389.73 287.315C1392.39 286.78 1393.89 284.311 1393.21 281.593Z" fill="#FFE8A6"/>
<path d="M1388.63 287.426H1370.75C1367.41 287.426 1365.39 284.667 1366.16 281.593L1368.8 271.049C1369.25 269.241 1371.41 267.883 1373.66 267.883H1385.72C1387.96 267.883 1390.13 269.242 1390.58 271.049L1393.21 281.593C1393.98 284.666 1391.96 287.426 1388.63 287.426Z" stroke="#734FAE" stroke-width="2" stroke-miterlimit="10" stroke-linecap="round" stroke-linejoin="round"/>
<path d="M1374.94 267.883H1357.06C1353.72 267.883 1351.71 265.124 1352.47 262.05L1355.11 251.506C1355.56 249.698 1357.72 248.34 1359.97 248.34H1372.03C1374.28 248.34 1376.44 249.699 1376.89 251.506L1379.52 262.05C1380.29 265.124 1378.28 267.883 1374.94 267.883Z" fill="#FFE07D"/>
<path d="M1374.94 267.883H1357.06C1353.72 267.883 1351.71 265.124 1352.47 262.05L1355.11 251.506C1355.56 249.698 1357.72 248.34 1359.97 248.34H1372.03C1374.28 248.34 1376.44 249.699 1376.89 251.506L1379.52 262.05C1380.29 265.124 1378.28 267.883 1374.94 267.883Z" stroke="#734FAE" stroke-width="6" stroke-miterlimit="10" stroke-linecap="round" stroke-linejoin="round"/>
<path d="M1428.36 214.632L1403.08 205.194C1401.62 204.651 1400 205.39 1399.46 206.845L1390.54 230.746L1381.61 254.648C1381.07 256.103 1381.81 257.722 1383.26 258.265L1408.55 267.703C1410 268.246 1411.62 267.507 1412.16 266.053L1421.09 242.151L1430.01 218.249C1430.55 216.795 1429.81 215.175 1428.36 214.632Z" fill="#5F9E71" stroke="#734FAE" stroke-width="2" stroke-miterlimit="10" stroke-linecap="round" stroke-linejoin="round"/>
<path d="M1422.89 218.946L1416.37 216.512C1415.81 218.02 1414.13 218.786 1412.62 218.223C1411.11 217.66 1410.34 215.981 1410.91 214.472L1404.38 212.037C1403.6 211.746 1402.73 212.142 1402.44 212.922L1395.31 232.025L1395.15 232.471L1388.01 251.574C1387.72 252.354 1388.12 253.222 1388.9 253.513L1395.42 255.948C1395.99 254.439 1397.66 253.673 1399.17 254.236C1400.68 254.799 1401.45 256.479 1400.89 257.988L1407.41 260.422C1408.19 260.713 1409.06 260.317 1409.35 259.538L1416.48 240.435L1416.64 239.989L1423.78 220.886C1424.07 220.106 1423.67 219.237 1422.89 218.946Z" fill="#90C49E"/>
<path d="M1412.49 238.966C1413.81 235.431 1411.89 231.448 1408.19 230.069C1404.5 228.69 1400.43 230.437 1399.11 233.971C1397.8 237.506 1399.72 241.489 1403.42 242.868C1407.11 244.247 1411.17 242.5 1412.49 238.966Z" fill="white"/>
<path d="M1428.59 215.116L1403.31 205.678C1401.85 205.135 1400.23 205.874 1399.69 207.329L1390.77 231.231L1381.84 255.132C1381.3 256.587 1382.04 258.207 1383.49 258.75L1408.78 268.187C1410.23 268.731 1411.85 267.991 1412.39 266.537L1421.32 242.635L1430.24 218.733C1430.78 217.279 1430.04 215.659 1428.59 215.116Z" stroke="#734FAE" stroke-width="2" stroke-miterlimit="10" stroke-linecap="round" stroke-linejoin="round"/>
<path d="M1388.01 249.926L1377.57 249.426L1380.62 260.068L1384.38 265.974L1388.01 249.926Z" fill="#A78B75"/>
<path d="M1404.19 267.883H1386.31C1382.97 267.883 1380.96 265.124 1381.73 262.05L1384.36 251.506C1384.81 249.698 1386.97 248.34 1389.22 248.34H1401.28C1403.53 248.34 1405.69 249.699 1406.14 251.506L1408.78 262.05C1409.54 265.124 1407.53 267.883 1404.19 267.883Z" fill="#FFE07D"/>
<path d="M1408.78 262.05L1406.14 251.506C1405.69 249.698 1403.53 248.34 1401.28 248.34H1389.22C1386.97 248.34 1384.81 249.699 1384.36 251.506L1384.2 252.141C1384.82 251.916 1385.5 251.789 1386.18 251.789H1398.24C1400.48 251.789 1402.65 253.148 1403.1 254.956L1405.73 265.5C1405.92 266.242 1405.94 266.965 1405.82 267.637C1408.15 266.899 1409.41 264.583 1408.78 262.05Z" fill="#FFE8A6"/>
<path d="M1404.19 267.883H1386.31C1382.97 267.883 1380.96 265.124 1381.73 262.05L1384.36 251.506C1384.81 249.698 1386.97 248.34 1389.22 248.34H1401.28C1403.53 248.34 1405.69 249.699 1406.14 251.506L1408.78 262.05C1409.54 265.124 1407.53 267.883 1404.19 267.883Z" stroke="#734FAE" stroke-width="2" stroke-miterlimit="10" stroke-linecap="round" stroke-linejoin="round"/>
<path d="M1390.38 248.34H1372.49C1369.16 248.34 1367.14 245.581 1367.91 242.507L1370.55 231.963C1371 230.155 1373.16 228.797 1375.41 228.797H1387.46C1389.71 228.797 1391.88 230.156 1392.33 231.963L1394.96 242.507C1395.73 245.581 1393.71 248.34 1390.38 248.34Z" fill="#FFE07D"/>
<path d="M1394.96 242.507L1392.33 231.963C1391.88 230.155 1389.71 228.797 1387.46 228.797H1375.41C1373.16 228.797 1371 230.156 1370.54 231.963L1370.52 232.07C1371.07 231.899 1371.65 231.803 1372.25 231.803H1384.3C1386.55 231.803 1388.71 233.161 1389.16 234.969L1391.8 245.513C1392.03 246.447 1392.01 247.352 1391.76 248.16C1394.25 247.509 1395.61 245.125 1394.96 242.507Z" fill="#FFE8A6"/>
<path d="M1390.38 248.34H1372.49C1369.16 248.34 1367.14 245.581 1367.91 242.507L1370.55 231.963C1371 230.155 1373.16 228.797 1375.41 228.797H1387.46C1389.71 228.797 1391.88 230.156 1392.33 231.963L1394.96 242.507C1395.73 245.581 1393.71 248.34 1390.38 248.34Z" stroke="#734FAE" stroke-width="2" stroke-miterlimit="10" stroke-linecap="round" stroke-linejoin="round"/>
<path opacity="0.23" d="M1431.09 158.031H1343.99V158.032L1346.52 236.227H1393.74L1430.01 216.291L1439.68 180.425V166.622C1439.68 161.877 1435.83 158.031 1431.09 158.031Z" fill="#0A1E2B" stroke="#0A1E2B" stroke-width="2" stroke-miterlimit="10" stroke-linecap="round" stroke-linejoin="round"/>
<path d="M1418.69 287.426H1400.81C1397.47 287.426 1395.45 284.667 1396.22 281.593L1398.86 271.049C1399.31 269.241 1401.47 267.883 1403.72 267.883H1415.78C1418.02 267.883 1420.19 269.242 1420.64 271.049L1423.27 281.593C1424.04 284.666 1422.03 287.426 1418.69 287.426Z" fill="#FFE07D"/>
<path d="M1423.27 281.593L1420.64 271.049C1420.19 269.241 1418.02 267.883 1415.78 267.883H1403.72C1401.47 267.883 1399.31 269.242 1398.86 271.049L1398.63 271.956C1399.22 271.756 1399.86 271.641 1400.5 271.641H1412.55C1414.8 271.641 1416.97 273 1417.42 274.807L1420.05 285.351C1420.21 285.996 1420.24 286.624 1420.17 287.219C1422.59 286.531 1423.92 284.176 1423.27 281.593Z" fill="#FFE8A6"/>
<path d="M1418.69 287.426H1400.81C1397.47 287.426 1395.45 284.667 1396.22 281.593L1398.86 271.049C1399.31 269.241 1401.47 267.883 1403.72 267.883H1415.78C1418.02 267.883 1420.19 269.242 1420.64 271.049L1423.27 281.593C1424.04 284.666 1422.03 287.426 1418.69 287.426Z" stroke="#734FAE" stroke-width="2" stroke-miterlimit="10" stroke-linecap="round" stroke-linejoin="round"/>
<path d="M1302.74 294.984V164.929C1302.74 160.059 1305.46 155.568 1308.87 154.885L1352.31 146.192C1356.64 145.326 1360.22 149.173 1360.22 154.801V305.112C1360.22 310.74 1356.64 314.588 1352.31 313.722L1308.87 305.029C1305.46 304.345 1302.74 299.854 1302.74 294.984Z" fill="#92D6E9"/>
<path d="M1302.74 294.984V164.929C1302.74 160.059 1305.46 155.568 1308.87 154.885L1352.31 146.192C1356.64 145.326 1360.22 149.173 1360.22 154.801V305.112C1360.22 310.74 1356.64 314.588 1352.31 313.722L1308.87 305.029C1305.46 304.345 1302.74 299.854 1302.74 294.984Z" stroke="#734FAE" stroke-width="2" stroke-miterlimit="10" stroke-linecap="round" stroke-linejoin="round"/>
<path d="M1295.79 293.333V166.622C1295.79 161.877 1298.44 157.412 1301.77 156.633L1345.18 146.497C1349.6 145.465 1353.26 149.173 1353.26 154.802V305.154C1353.26 310.783 1349.6 314.491 1345.18 313.459L1301.77 303.322C1298.44 302.543 1295.79 298.077 1295.79 293.333Z" fill="#CBEDF9"/>
<path d="M1345.18 304.867L1301.77 294.73C1298.44 293.952 1295.79 289.486 1295.79 284.742V293.333C1295.79 298.077 1298.44 302.542 1301.77 303.321L1345.18 313.458C1349.6 314.49 1353.26 310.782 1353.26 305.152V296.562C1353.26 302.192 1349.6 305.9 1345.18 304.867Z" fill="#92D6E9"/>
<path d="M1345.18 146.497L1301.77 156.633C1298.44 157.412 1295.79 161.877 1295.79 166.622V173.065C1295.79 168.32 1298.44 163.855 1301.77 163.076L1345.18 152.939C1349.6 151.908 1353.26 155.615 1353.26 161.245V154.802C1353.26 149.173 1349.6 145.465 1345.18 146.497Z" fill="#E8F9FF"/>
<path d="M1346.52 191.79C1347.93 191.79 1349.06 189.246 1349.06 186.108C1349.06 182.97 1347.93 180.426 1346.52 180.426C1345.12 180.426 1343.99 182.97 1343.99 186.108C1343.99 189.246 1345.12 191.79 1346.52 191.79Z" fill="#734FAE"/>
<path d="M1295.79 293.333V166.622C1295.79 161.877 1298.44 157.412 1301.77 156.633L1345.18 146.497C1349.6 145.465 1353.26 149.173 1353.26 154.802V305.154C1353.26 310.783 1349.6 314.491 1345.18 313.459L1301.77 303.322C1298.44 302.543 1295.79 298.077 1295.79 293.333Z" stroke="#734FAE" stroke-width="2" stroke-miterlimit="10" stroke-linecap="round" stroke-linejoin="round"/>
<path d="M1322.42 263.155C1330.69 263.155 1337.4 250.019 1337.4 233.816C1337.4 217.612 1330.69 204.477 1322.42 204.477C1314.14 204.477 1307.44 217.612 1307.44 233.816C1307.44 250.019 1314.14 263.155 1322.42 263.155Z" fill="#9FBDCA" stroke="#9FBDCA" stroke-width="6" stroke-miterlimit="10" stroke-linecap="round" stroke-linejoin="round"/>
<path d="M1321.88 265.73C1324.42 265.73 1326.47 263.863 1326.47 261.56C1326.47 259.257 1324.42 257.391 1321.88 257.391C1319.34 257.391 1317.28 259.257 1317.28 261.56C1317.28 263.863 1319.34 265.73 1321.88 265.73Z" fill="#9FBDCA" stroke="#9FBDCA" stroke-width="6" stroke-miterlimit="10" stroke-linecap="round" stroke-linejoin="round"/>
<path d="M1323.04 260.066C1331.86 260.066 1339.01 246.725 1339.01 230.267C1339.01 213.81 1331.86 200.469 1323.04 200.469C1314.21 200.469 1307.06 213.81 1307.06 230.267C1307.06 246.725 1314.21 260.066 1323.04 260.066Z" fill="#CBEDF9"/>
<path d="M1321.88 254.991C1328.82 254.991 1334.44 243.923 1334.44 230.271C1334.44 216.618 1328.82 205.551 1321.88 205.551C1314.94 205.551 1309.32 216.618 1309.32 230.271C1309.32 243.923 1314.94 254.991 1321.88 254.991Z" fill="#92D6E9"/>
<g opacity="0.23">
<path d="M1307.96 230.27L1331.48 231.165L1324.52 259.938L1316.8 257.714L1307.06 230.27" fill="#0A1E2B"/>
<path d="M1307.96 230.27L1331.48 231.165L1324.52 259.938L1316.8 257.714L1307.06 230.27" stroke="#0A1E2B" stroke-width="6" stroke-miterlimit="10" stroke-linecap="round" stroke-linejoin="round"/>
</g>
<path d="M1323.04 260.066C1331.86 260.066 1339.01 246.725 1339.01 230.267C1339.01 213.81 1331.86 200.469 1323.04 200.469C1314.21 200.469 1307.06 213.81 1307.06 230.267C1307.06 246.725 1314.21 260.066 1323.04 260.066Z" stroke="#734FAE" stroke-width="2" stroke-miterlimit="10" stroke-linecap="round" stroke-linejoin="round"/>
<path opacity="0.23" d="M1295.79 209.844C1293.41 209.844 1291.49 207.92 1291.49 205.548V192.662C1291.49 190.29 1293.41 188.367 1295.79 188.367C1298.16 188.367 1300.08 190.29 1300.08 192.662V205.548C1300.08 207.92 1298.16 209.844 1295.79 209.844ZM1295.79 279.911C1293.41 279.911 1291.49 277.988 1291.49 275.615V262.73C1291.49 260.358 1293.41 258.434 1295.79 258.434C1298.16 258.434 1300.08 260.358 1300.08 262.73V275.615C1300.08 277.988 1298.16 279.911 1295.79 279.911Z" fill="#0A1E2B" stroke="#0A1E2B" stroke-width="6" stroke-miterlimit="10" stroke-linecap="round" stroke-linejoin="round"/>
<path d="M1295.79 205.551C1293.41 205.551 1291.49 203.628 1291.49 201.255V188.37C1291.49 185.997 1293.41 184.074 1295.79 184.074C1298.16 184.074 1300.08 185.997 1300.08 188.37V201.255C1300.08 203.628 1298.16 205.551 1295.79 205.551ZM1295.79 275.886C1293.41 275.886 1291.49 273.963 1291.49 271.591V258.705C1291.49 256.333 1293.41 254.41 1295.79 254.41C1298.16 254.41 1300.08 256.333 1300.08 258.705V271.591C1300.08 273.963 1298.16 275.886 1295.79 275.886Z" fill="#92D6E9"/>
<path d="M1320.14 219.242H1311.72V241.296H1320.14C1323.82 241.296 1326.82 236.349 1326.82 230.269C1326.82 224.188 1323.82 219.242 1320.14 219.242Z" fill="#3CA4B5"/>
<path d="M1320.14 219.242H1311.72V241.296H1320.14C1323.82 241.296 1326.82 236.349 1326.82 230.269C1326.82 224.188 1323.82 219.242 1320.14 219.242Z" stroke="#734FAE" stroke-width="6" stroke-miterlimit="10" stroke-linecap="round" stroke-linejoin="round"/>
<path d="M1320.14 241.296C1323.83 241.296 1326.82 236.359 1326.82 230.269C1326.82 224.179 1323.83 219.242 1320.14 219.242C1316.45 219.242 1313.46 224.179 1313.46 230.269C1313.46 236.359 1316.45 241.296 1320.14 241.296Z" stroke="#734FAE" stroke-width="2" stroke-miterlimit="10" stroke-linecap="round" stroke-linejoin="round"/>
<path d="M1330.68 230.27H1319.68" stroke="#734FAE" stroke-width="2" stroke-miterlimit="10" stroke-linecap="round" stroke-linejoin="round"/>
<path d="M1313.66 219.384H1320.34V210.754L1313.66 219.384Z" stroke="#734FAE" stroke-width="2" stroke-miterlimit="10" stroke-linecap="round" stroke-linejoin="round"/>
<path d="M1313.46 219.243H1320.14V210.613L1313.46 219.243Z" fill="#734FAE"/>
<path d="M1313.46 241.297H1320.14V249.927L1313.46 241.297Z" fill="#734FAE"/>
<path d="M1313.46 241.297H1320.14V249.927L1313.46 241.297Z" stroke="#734FAE" stroke-width="2" stroke-miterlimit="10" stroke-linecap="round" stroke-linejoin="round"/>
<path d="M1311.72 241.296C1315.41 241.296 1318.4 236.359 1318.4 230.269C1318.4 224.179 1315.41 219.242 1311.72 219.242C1308.03 219.242 1305.04 224.179 1305.04 230.269C1305.04 236.359 1308.03 241.296 1311.72 241.296Z" fill="#FFEA9E"/>
<path d="M1311.18 235.637C1312.98 235.637 1314.44 233.233 1314.44 230.268C1314.44 227.302 1312.98 224.898 1311.18 224.898C1309.39 224.898 1307.93 227.302 1307.93 230.268C1307.93 233.233 1309.39 235.637 1311.18 235.637Z" fill="#FFE07D"/>
<path d="M1311.72 241.296C1315.41 241.296 1318.4 236.359 1318.4 230.269C1318.4 224.179 1315.41 219.242 1311.72 219.242C1308.03 219.242 1305.04 224.179 1305.04 230.269C1305.04 236.359 1308.03 241.296 1311.72 241.296Z" stroke="#734FAE" stroke-width="2" stroke-miterlimit="10" stroke-linecap="round" stroke-linejoin="round"/>
<path d="M1370.56 302.537L1359.68 303.601V156.352L1370.56 157.415C1374.05 157.756 1376.86 160.89 1376.86 164.418V295.536C1376.86 299.063 1374.05 302.196 1370.56 302.537Z" fill="#CBEDF9"/>
<path opacity="0.23" d="M1377.2 212.334V196.98H1365.22V213.249H1365.3C1365.3 216.557 1367.98 219.24 1371.29 219.24C1374.6 219.24 1377.28 216.557 1377.28 213.249C1377.28 212.937 1377.25 212.633 1377.2 212.334Z" fill="#0A1E2B" stroke="#0A1E2B" stroke-width="6" stroke-miterlimit="10" stroke-linecap="round" stroke-linejoin="round"/>
<path d="M1376.86 164.416V295.535C1376.86 298.284 1375.21 300.792 1372.89 301.925C1372.23 302.247 1371.51 302.462 1370.76 302.537L1360.21 303.605V156.352L1370.76 157.415C1371.51 157.49 1372.24 157.705 1372.9 158.032C1375.22 159.17 1376.86 161.672 1376.86 164.416Z" stroke="#734FAE" stroke-width="2" stroke-miterlimit="10" stroke-linecap="round" stroke-linejoin="round"/>
<path d="M1424.25 286.16L1437.26 299.302" stroke="#734FAE" stroke-width="6" stroke-miterlimit="10" stroke-linecap="round" stroke-linejoin="round"/>
<path d="M1371.45 189.895C1368.14 189.895 1365.46 192.576 1365.46 195.885C1365.46 199.194 1368.14 201.876 1371.45 201.876H1377.28V189.895H1371.45V189.895Z" fill="#92D6E9"/>
<path d="M1371.68 190.379C1368.37 190.379 1365.69 193.061 1365.69 196.37C1365.69 199.678 1368.37 202.361 1371.68 202.361H1377.51V190.379H1371.68V190.379Z" stroke="#734FAE" stroke-width="2" stroke-miterlimit="10" stroke-linecap="round" stroke-linejoin="round"/>
<path d="M1377.28 201.876C1380.59 201.876 1383.27 199.194 1383.27 195.885C1383.27 192.577 1380.59 189.895 1377.28 189.895C1373.97 189.895 1371.29 192.577 1371.29 195.885C1371.29 199.194 1373.97 201.876 1377.28 201.876Z" fill="#CBEDF9"/>
<path d="M1377.28 201.876C1380.59 201.876 1383.27 199.194 1383.27 195.885C1383.27 192.577 1380.59 189.895 1377.28 189.895C1373.97 189.895 1371.29 192.577 1371.29 195.885C1371.29 199.194 1373.97 201.876 1377.28 201.876Z" stroke="#734FAE" stroke-width="2" stroke-miterlimit="10" stroke-linecap="round" stroke-linejoin="round"/>
<path d="M1377.51 202.361C1380.82 202.361 1383.5 199.678 1383.5 196.37C1383.5 193.061 1380.82 190.379 1377.51 190.379C1374.2 190.379 1371.52 193.061 1371.52 196.37C1371.52 199.678 1374.2 202.361 1377.51 202.361Z" stroke="#734FAE" stroke-width="2" stroke-miterlimit="10" stroke-linecap="round" stroke-linejoin="round"/>
<path opacity="0.23" d="M1377.2 280.877V265.523H1365.22V281.792H1365.3C1365.3 285.1 1367.98 287.783 1371.29 287.783C1374.6 287.783 1377.28 285.1 1377.28 281.792C1377.28 281.48 1377.25 281.176 1377.2 280.877Z" fill="#0A1E2B" stroke="#0A1E2B" stroke-width="6" stroke-miterlimit="10" stroke-linecap="round" stroke-linejoin="round"/>
<path d="M1371.45 258.434C1368.14 258.434 1365.46 261.115 1365.46 264.424C1365.46 267.733 1368.14 270.415 1371.45 270.415H1377.28V258.434H1371.45V258.434Z" fill="#92D6E9"/>
<path d="M1371.68 258.922C1368.37 258.922 1365.69 261.604 1365.69 264.913C1365.69 268.222 1368.37 270.904 1371.68 270.904H1377.51V258.922H1371.68V258.922Z" stroke="#734FAE" stroke-width="2" stroke-miterlimit="10" stroke-linecap="round" stroke-linejoin="round"/>
<path d="M1377.28 270.415C1380.59 270.415 1383.27 267.733 1383.27 264.424C1383.27 261.116 1380.59 258.434 1377.28 258.434C1373.97 258.434 1371.29 261.116 1371.29 264.424C1371.29 267.733 1373.97 270.415 1377.28 270.415Z" fill="#CBEDF9"/>
<path d="M1377.51 270.904C1380.82 270.904 1383.5 268.221 1383.5 264.913C1383.5 261.604 1380.82 258.922 1377.51 258.922C1374.2 258.922 1371.52 261.604 1371.52 264.913C1371.52 268.221 1374.2 270.904 1377.51 270.904Z" stroke="#734FAE" stroke-width="2" stroke-miterlimit="10" stroke-linecap="round" stroke-linejoin="round"/>
<path d="M1341.42 269.064C1340.24 269.064 1339.28 268.103 1339.28 266.917V190.675C1339.28 189.489 1340.24 188.528 1341.42 188.528H1345.8V183.695H1340.89C1337.33 183.695 1334.44 186.58 1334.44 190.138V267.454C1334.44 271.012 1337.33 273.897 1340.89 273.897H1345.8V269.064H1341.42Z" fill="#92D6E9"/>
<path d="M1346.52 276.802C1347.93 276.802 1349.06 274.258 1349.06 271.12C1349.06 267.981 1347.93 265.438 1346.52 265.438C1345.12 265.438 1343.99 267.981 1343.99 271.12C1343.99 274.258 1345.12 276.802 1346.52 276.802Z" fill="#734FAE"/>
<path d="M1341.42 269.064C1340.24 269.064 1339.28 268.103 1339.28 266.917V190.675C1339.28 189.489 1340.24 188.528 1341.42 188.528H1345.8V183.695H1340.89C1337.33 183.695 1334.44 186.58 1334.44 190.138V267.454C1334.44 271.012 1337.33 273.897 1340.89 273.897H1345.8V269.064H1341.42Z" stroke="#734FAE" stroke-width="2" stroke-miterlimit="10" stroke-linecap="round" stroke-linejoin="round"/>
<path d="M1437.53 321.253H1297.93C1286.07 321.253 1276.46 311.638 1276.46 299.777V160.18C1276.46 148.319 1286.07 138.703 1297.93 138.703H1437.53C1449.39 138.703 1459.01 148.319 1459.01 160.18V299.777C1459.01 311.638 1449.39 321.253 1437.53 321.253Z" stroke="#734FAE" stroke-width="2" stroke-miterlimit="10" stroke-linecap="round" stroke-linejoin="round"/>
<path opacity="0.23" d="M1346 190.805L1346.52 286.158" stroke="#0A1E2B" stroke-width="8" stroke-miterlimit="10" stroke-linecap="round" stroke-linejoin="round"/>
<path d="M1345.49 146.325L1353.82 146.078" stroke="#734FAE" stroke-width="2" stroke-miterlimit="10" stroke-linecap="round" stroke-linejoin="round"/>
<path d="M1346.49 314.102L1354.19 314.308" stroke="#734FAE" stroke-width="2" stroke-miterlimit="10" stroke-linecap="round" stroke-linejoin="round"/>
<path d="M1295.79 205.551C1293.41 205.551 1291.49 203.628 1291.49 201.255V188.37C1291.49 185.997 1293.41 184.074 1295.79 184.074C1298.16 184.074 1300.08 185.997 1300.08 188.37V201.255C1300.08 203.628 1298.16 205.551 1295.79 205.551ZM1295.79 275.886C1293.41 275.886 1291.49 273.963 1291.49 271.591V258.705C1291.49 256.333 1293.41 254.41 1295.79 254.41C1298.16 254.41 1300.08 256.333 1300.08 258.705V271.591C1300.08 273.963 1298.16 275.886 1295.79 275.886Z" stroke="#734FAE" stroke-width="2" stroke-miterlimit="10" stroke-linecap="round" stroke-linejoin="round"/>
</g>
<g style="mix-blend-mode:multiply" opacity="0.3">
<g style="mix-blend-mode:screen" opacity="0.5">
<path d="M1287.73 1270.57C1288.4 1271.4 1288.81 1272.4 1288.9 1273.46C1289 1274.52 1288.78 1275.58 1288.27 1276.51C1287.76 1277.45 1286.99 1278.21 1286.04 1278.7C1285.1 1279.19 1284.04 1279.4 1282.98 1279.28C1281.93 1279.17 1280.93 1278.75 1280.11 1278.07C1279.3 1277.39 1278.7 1276.48 1278.4 1275.46C1278.1 1274.44 1278.11 1273.36 1278.43 1272.34C1278.74 1271.33 1279.35 1270.43 1280.18 1269.76C1281.29 1268.87 1282.71 1268.45 1284.12 1268.6C1285.54 1268.75 1286.84 1269.46 1287.73 1270.57Z" fill="#734FAE"/>
</g>
<g style="mix-blend-mode:screen" opacity="0.5">
<path d="M1315.76 1247.96C1316.43 1248.78 1316.83 1249.79 1316.93 1250.85C1317.02 1251.9 1316.8 1252.97 1316.3 1253.9C1315.79 1254.83 1315.01 1255.59 1314.07 1256.08C1313.13 1256.58 1312.07 1256.78 1311.01 1256.67C1309.95 1256.55 1308.95 1256.13 1308.14 1255.45C1307.32 1254.77 1306.73 1253.86 1306.43 1252.84C1306.13 1251.82 1306.14 1250.74 1306.45 1249.73C1306.77 1248.71 1307.38 1247.81 1308.21 1247.15C1309.32 1246.25 1310.73 1245.84 1312.15 1245.99C1313.57 1246.14 1314.87 1246.85 1315.76 1247.96Z" fill="#734FAE"/>
</g>
<g style="mix-blend-mode:screen" opacity="0.5">
<path d="M1343.79 1225.34C1344.45 1226.17 1344.86 1227.17 1344.96 1228.23C1345.05 1229.29 1344.83 1230.35 1344.32 1231.29C1343.81 1232.22 1343.04 1232.98 1342.09 1233.47C1341.15 1233.96 1340.09 1234.17 1339.03 1234.05C1337.97 1233.94 1336.97 1233.51 1336.16 1232.83C1335.34 1232.15 1334.75 1231.24 1334.45 1230.22C1334.15 1229.2 1334.17 1228.11 1334.48 1227.1C1334.8 1226.08 1335.42 1225.19 1336.25 1224.52C1337.36 1223.63 1338.77 1223.22 1340.19 1223.37C1341.6 1223.53 1342.89 1224.23 1343.79 1225.34Z" fill="#734FAE"/>
</g>
<g style="mix-blend-mode:screen" opacity="0.5">
<path d="M1371.82 1202.72C1372.49 1203.54 1372.9 1204.55 1372.99 1205.61C1373.09 1206.67 1372.87 1207.73 1372.36 1208.66C1371.85 1209.59 1371.08 1210.35 1370.14 1210.85C1369.2 1211.34 1368.13 1211.54 1367.07 1211.43C1366.02 1211.32 1365.02 1210.89 1364.2 1210.21C1363.39 1209.53 1362.79 1208.62 1362.49 1207.61C1362.19 1206.59 1362.2 1205.5 1362.52 1204.49C1362.84 1203.47 1363.45 1202.58 1364.27 1201.91C1365.38 1201.02 1366.8 1200.6 1368.22 1200.75C1369.63 1200.9 1370.93 1201.61 1371.82 1202.72Z" fill="#734FAE"/>
</g>
<g style="mix-blend-mode:screen" opacity="0.5">
<path d="M1340.33 1249.73C1341 1250.56 1341.4 1251.57 1341.5 1252.62C1341.6 1253.68 1341.38 1254.74 1340.87 1255.68C1340.36 1256.61 1339.58 1257.37 1338.64 1257.86C1337.7 1258.36 1336.64 1258.56 1335.58 1258.45C1334.52 1258.33 1333.53 1257.91 1332.71 1257.23C1331.89 1256.55 1331.3 1255.64 1331 1254.62C1330.7 1253.6 1330.71 1252.52 1331.03 1251.5C1331.34 1250.49 1331.95 1249.59 1332.78 1248.93C1333.33 1248.48 1333.96 1248.15 1334.64 1247.95C1335.31 1247.75 1336.02 1247.69 1336.72 1247.76C1337.42 1247.84 1338.1 1248.05 1338.72 1248.39C1339.34 1248.73 1339.89 1249.18 1340.33 1249.73Z" fill="#734FAE"/>
</g>
<g style="mix-blend-mode:screen" opacity="0.5">
<path d="M1368.34 1227.14C1369 1227.96 1369.41 1228.97 1369.5 1230.03C1369.6 1231.09 1369.38 1232.15 1368.87 1233.08C1368.36 1234.01 1367.59 1234.77 1366.65 1235.27C1365.71 1235.76 1364.64 1235.96 1363.58 1235.85C1362.53 1235.74 1361.53 1235.31 1360.71 1234.63C1359.9 1233.95 1359.3 1233.04 1359 1232.03C1358.7 1231.01 1358.71 1229.92 1359.03 1228.91C1359.35 1227.89 1359.96 1227 1360.78 1226.33C1361.89 1225.44 1363.31 1225.02 1364.73 1225.17C1366.14 1225.32 1367.44 1226.03 1368.34 1227.14Z" fill="#734FAE"/>
</g>
<g style="mix-blend-mode:screen" opacity="0.5">
<path d="M1424.42 1181.88C1425.09 1182.71 1425.5 1183.71 1425.59 1184.77C1425.69 1185.83 1425.47 1186.89 1424.96 1187.82C1424.45 1188.76 1423.68 1189.52 1422.74 1190.01C1421.8 1190.5 1420.73 1190.71 1419.67 1190.59C1418.62 1190.48 1417.62 1190.06 1416.8 1189.38C1415.99 1188.69 1415.39 1187.79 1415.09 1186.77C1414.79 1185.75 1414.8 1184.66 1415.12 1183.65C1415.43 1182.64 1416.04 1181.74 1416.87 1181.07C1417.98 1180.18 1419.4 1179.76 1420.81 1179.91C1422.23 1180.06 1423.53 1180.77 1424.42 1181.88Z" fill="#734FAE"/>
</g>
<g style="mix-blend-mode:screen" opacity="0.5">
<path d="M1308.84 1296.73C1309.51 1297.55 1309.92 1298.56 1310.02 1299.62C1310.11 1300.68 1309.9 1301.74 1309.39 1302.67C1308.88 1303.61 1308.11 1304.37 1307.17 1304.87C1306.23 1305.36 1305.16 1305.57 1304.1 1305.45C1303.05 1305.34 1302.05 1304.92 1301.23 1304.24C1300.41 1303.56 1299.82 1302.65 1299.52 1301.63C1299.22 1300.61 1299.22 1299.53 1299.54 1298.51C1299.86 1297.5 1300.47 1296.6 1301.3 1295.93C1302.4 1295.04 1303.82 1294.62 1305.23 1294.77C1306.65 1294.92 1307.94 1295.62 1308.84 1296.73Z" fill="#734FAE"/>
</g>
<g style="mix-blend-mode:screen" opacity="0.5">
<path d="M1336.87 1274.11C1337.54 1274.94 1337.95 1275.94 1338.04 1277C1338.14 1278.06 1337.92 1279.12 1337.42 1280.06C1336.91 1280.99 1336.14 1281.76 1335.2 1282.25C1334.26 1282.75 1333.19 1282.95 1332.13 1282.84C1331.08 1282.73 1330.08 1282.3 1329.26 1281.62C1328.44 1280.94 1327.85 1280.04 1327.54 1279.02C1327.24 1278 1327.25 1276.91 1327.57 1275.9C1327.89 1274.88 1328.5 1273.99 1329.32 1273.32C1330.43 1272.43 1331.84 1272.01 1333.26 1272.16C1334.67 1272.31 1335.97 1273.01 1336.87 1274.11Z" fill="#734FAE"/>
</g>
<g style="mix-blend-mode:screen" opacity="0.5">
<path d="M1364.89 1251.5C1365.56 1252.32 1365.97 1253.33 1366.07 1254.39C1366.17 1255.45 1365.95 1256.51 1365.44 1257.45C1364.93 1258.38 1364.16 1259.14 1363.22 1259.64C1362.28 1260.13 1361.21 1260.34 1360.15 1260.22C1359.09 1260.11 1358.09 1259.69 1357.28 1259C1356.46 1258.32 1355.87 1257.41 1355.57 1256.39C1355.27 1255.37 1355.28 1254.28 1355.6 1253.27C1355.92 1252.26 1356.53 1251.36 1357.36 1250.69C1358.47 1249.81 1359.88 1249.39 1361.29 1249.54C1362.71 1249.69 1364 1250.4 1364.89 1251.5Z" fill="#734FAE"/>
</g>
<g style="mix-blend-mode:screen" opacity="0.5">
<path d="M1392.93 1228.88C1393.6 1229.7 1394.01 1230.71 1394.11 1231.76C1394.21 1232.82 1393.99 1233.89 1393.48 1234.82C1392.97 1235.75 1392.2 1236.52 1391.26 1237.01C1390.32 1237.51 1389.25 1237.71 1388.2 1237.6C1387.14 1237.49 1386.14 1237.07 1385.32 1236.39C1384.51 1235.71 1383.91 1234.8 1383.61 1233.78C1383.31 1232.76 1383.32 1231.67 1383.63 1230.66C1383.95 1229.64 1384.56 1228.75 1385.39 1228.08C1386.49 1227.19 1387.91 1226.77 1389.32 1226.92C1390.74 1227.07 1392.04 1227.77 1392.93 1228.88Z" fill="#734FAE"/>
</g>
<g style="mix-blend-mode:screen" opacity="0.5">
<path d="M1420.96 1206.26C1421.63 1207.09 1422.04 1208.09 1422.14 1209.15C1422.23 1210.21 1422.02 1211.27 1421.51 1212.21C1421 1213.14 1420.23 1213.9 1419.29 1214.4C1418.35 1214.89 1417.28 1215.1 1416.22 1214.99C1415.17 1214.87 1414.17 1214.45 1413.35 1213.77C1412.53 1213.09 1411.94 1212.18 1411.64 1211.16C1411.34 1210.14 1411.34 1209.06 1411.66 1208.04C1411.98 1207.03 1412.59 1206.13 1413.42 1205.46C1414.52 1204.57 1415.94 1204.15 1417.35 1204.3C1418.77 1204.45 1420.06 1205.16 1420.96 1206.26Z" fill="#734FAE"/>
</g>
<g style="mix-blend-mode:screen" opacity="0.5">
<path d="M1448.99 1183.64C1449.66 1184.47 1450.07 1185.48 1450.16 1186.54C1450.26 1187.59 1450.04 1188.66 1449.53 1189.59C1449.03 1190.53 1448.25 1191.29 1447.31 1191.78C1446.37 1192.28 1445.3 1192.48 1444.24 1192.37C1443.19 1192.26 1442.19 1191.83 1441.37 1191.15C1440.56 1190.47 1439.96 1189.56 1439.66 1188.54C1439.36 1187.52 1439.37 1186.43 1439.69 1185.42C1440.01 1184.4 1440.63 1183.51 1441.45 1182.84C1442.56 1181.95 1443.98 1181.54 1445.39 1181.69C1446.8 1181.84 1448.09 1182.54 1448.99 1183.64Z" fill="#734FAE"/>
</g>
<g style="mix-blend-mode:screen" opacity="0.5">
<path d="M1333.41 1298.51C1334.08 1299.33 1334.48 1300.34 1334.58 1301.4C1334.67 1302.45 1334.45 1303.52 1333.95 1304.45C1333.44 1305.38 1332.66 1306.14 1331.72 1306.64C1330.78 1307.13 1329.72 1307.33 1328.66 1307.22C1327.6 1307.11 1326.6 1306.68 1325.79 1306C1324.97 1305.32 1324.38 1304.41 1324.08 1303.39C1323.78 1302.38 1323.79 1301.29 1324.1 1300.28C1324.42 1299.26 1325.03 1298.37 1325.86 1297.7C1326.97 1296.8 1328.38 1296.39 1329.8 1296.54C1331.22 1296.69 1332.52 1297.4 1333.41 1298.51Z" fill="#734FAE"/>
</g>
<g style="mix-blend-mode:screen" opacity="0.5">
<path d="M1389.44 1253.29C1390.11 1254.12 1390.52 1255.13 1390.61 1256.19C1390.71 1257.24 1390.49 1258.31 1389.98 1259.24C1389.47 1260.17 1388.7 1260.93 1387.75 1261.42C1386.81 1261.92 1385.75 1262.12 1384.69 1262.01C1383.63 1261.89 1382.64 1261.47 1381.82 1260.79C1381.01 1260.11 1380.41 1259.2 1380.11 1258.18C1379.81 1257.16 1379.82 1256.08 1380.14 1255.07C1380.45 1254.05 1381.06 1253.15 1381.89 1252.49C1383 1251.6 1384.42 1251.18 1385.83 1251.33C1387.25 1251.48 1388.54 1252.19 1389.44 1253.29Z" fill="#734FAE"/>
</g>
<g style="mix-blend-mode:screen" opacity="0.5">
<path d="M1417.5 1230.65C1418.17 1231.48 1418.58 1232.48 1418.67 1233.54C1418.77 1234.6 1418.55 1235.66 1418.04 1236.6C1417.53 1237.53 1416.76 1238.29 1415.82 1238.78C1414.87 1239.28 1413.81 1239.48 1412.75 1239.37C1411.7 1239.25 1410.7 1238.83 1409.88 1238.15C1409.07 1237.47 1408.47 1236.56 1408.17 1235.54C1407.87 1234.52 1407.88 1233.44 1408.2 1232.42C1408.51 1231.41 1409.12 1230.51 1409.95 1229.85C1410.5 1229.4 1411.13 1229.07 1411.81 1228.87C1412.48 1228.67 1413.19 1228.61 1413.89 1228.68C1414.59 1228.76 1415.27 1228.97 1415.89 1229.31C1416.51 1229.65 1417.06 1230.1 1417.5 1230.65Z" fill="#734FAE"/>
</g>
<g style="mix-blend-mode:screen" opacity="0.5">
<path d="M1445.53 1208.04C1446.2 1208.86 1446.6 1209.87 1446.7 1210.93C1446.79 1211.99 1446.57 1213.05 1446.07 1213.98C1445.56 1214.91 1444.78 1215.67 1443.84 1216.17C1442.9 1216.66 1441.84 1216.86 1440.78 1216.75C1439.72 1216.64 1438.72 1216.21 1437.91 1215.53C1437.09 1214.85 1436.5 1213.94 1436.2 1212.93C1435.9 1211.91 1435.91 1210.82 1436.22 1209.81C1436.54 1208.79 1437.15 1207.9 1437.98 1207.23C1439.09 1206.34 1440.5 1205.92 1441.92 1206.07C1443.34 1206.22 1444.64 1206.93 1445.53 1208.04Z" fill="#734FAE"/>
</g>
<g style="mix-blend-mode:screen" opacity="0.5">
<path d="M1349.62 1307.03C1351.48 1309.34 1354.87 1309.7 1357.17 1307.83C1359.48 1305.97 1359.84 1302.59 1357.98 1300.28C1356.12 1297.97 1352.74 1297.61 1350.43 1299.48C1348.12 1301.34 1347.76 1304.72 1349.62 1307.03Z" fill="#734FAE"/>
</g>
<g style="mix-blend-mode:screen" opacity="0.5">
<path d="M1386.01 1277.67C1386.68 1278.5 1387.08 1279.5 1387.18 1280.56C1387.27 1281.62 1387.05 1282.68 1386.54 1283.61C1386.03 1284.55 1385.26 1285.31 1384.32 1285.8C1383.37 1286.29 1382.31 1286.49 1381.25 1286.38C1380.19 1286.27 1379.2 1285.84 1378.38 1285.16C1377.57 1284.48 1376.97 1283.57 1376.67 1282.55C1376.38 1281.53 1376.39 1280.44 1376.71 1279.43C1377.03 1278.41 1377.64 1277.52 1378.47 1276.85C1379.02 1276.41 1379.65 1276.08 1380.32 1275.88C1381 1275.68 1381.71 1275.62 1382.41 1275.69C1383.11 1275.77 1383.79 1275.98 1384.41 1276.32C1385.02 1276.66 1385.57 1277.12 1386.01 1277.67Z" fill="#734FAE"/>
</g>
<g style="mix-blend-mode:screen" opacity="0.5">
<path d="M1414.05 1255.04C1414.71 1255.87 1415.12 1256.88 1415.22 1257.94C1415.31 1258.99 1415.09 1260.06 1414.58 1260.99C1414.07 1261.92 1413.3 1262.68 1412.36 1263.17C1411.42 1263.67 1410.35 1263.87 1409.3 1263.76C1408.24 1263.64 1407.24 1263.22 1406.43 1262.54C1405.61 1261.86 1405.01 1260.95 1404.72 1259.93C1404.42 1258.91 1404.42 1257.83 1404.74 1256.82C1405.06 1255.8 1405.67 1254.9 1406.49 1254.24C1407.6 1253.34 1409.02 1252.93 1410.44 1253.08C1411.85 1253.23 1413.15 1253.94 1414.05 1255.04Z" fill="#734FAE"/>
</g>
<g style="mix-blend-mode:screen" opacity="0.5">
<path d="M1442.07 1232.43C1442.74 1233.26 1443.15 1234.26 1443.24 1235.32C1443.34 1236.38 1443.12 1237.44 1442.61 1238.37C1442.1 1239.31 1441.33 1240.07 1440.39 1240.56C1439.45 1241.05 1438.38 1241.26 1437.32 1241.14C1436.27 1241.03 1435.27 1240.61 1434.45 1239.93C1433.64 1239.24 1433.04 1238.34 1432.74 1237.32C1432.44 1236.3 1432.45 1235.21 1432.77 1234.2C1433.09 1233.19 1433.7 1232.29 1434.52 1231.62C1435.63 1230.73 1437.05 1230.31 1438.47 1230.46C1439.88 1230.61 1441.18 1231.32 1442.07 1232.43Z" fill="#734FAE"/>
</g>
<g style="mix-blend-mode:screen" opacity="0.5">
<path d="M1410.55 1279.45C1411.22 1280.28 1411.62 1281.28 1411.72 1282.34C1411.81 1283.4 1411.59 1284.46 1411.08 1285.4C1410.58 1286.33 1409.8 1287.09 1408.86 1287.58C1407.92 1288.07 1406.85 1288.28 1405.8 1288.16C1404.74 1288.05 1403.74 1287.63 1402.93 1286.95C1402.11 1286.27 1401.52 1285.36 1401.22 1284.34C1400.92 1283.32 1400.93 1282.24 1401.24 1281.22C1401.56 1280.21 1402.17 1279.31 1403 1278.65C1404.1 1277.75 1405.52 1277.33 1406.94 1277.48C1408.36 1277.64 1409.65 1278.34 1410.55 1279.45Z" fill="#734FAE"/>
</g>
<g style="mix-blend-mode:screen" opacity="0.5">
<path d="M1438.61 1256.81C1439.28 1257.64 1439.68 1258.64 1439.78 1259.7C1439.87 1260.76 1439.65 1261.82 1439.14 1262.75C1438.64 1263.69 1437.86 1264.45 1436.92 1264.94C1435.98 1265.43 1434.91 1265.64 1433.86 1265.52C1432.8 1265.41 1431.8 1264.99 1430.99 1264.31C1430.17 1263.63 1429.58 1262.72 1429.28 1261.7C1428.98 1260.68 1428.99 1259.6 1429.3 1258.58C1429.62 1257.57 1430.23 1256.67 1431.06 1256C1431.61 1255.56 1432.24 1255.23 1432.91 1255.03C1433.59 1254.83 1434.3 1254.77 1435 1254.84C1435.7 1254.92 1436.38 1255.13 1437 1255.47C1437.62 1255.81 1438.17 1256.26 1438.61 1256.81Z" fill="#734FAE"/>
</g>
</g>
<g style="mix-blend-mode:multiply" opacity="0.3">
<g style="mix-blend-mode:screen" opacity="0.5">
<path d="M12.787 1803.34C13.4544 1804.17 13.8614 1805.17 13.9564 1806.23C14.0514 1807.29 13.8302 1808.35 13.3208 1809.29C12.8113 1810.22 12.0366 1810.98 11.0946 1811.47C10.1526 1811.96 9.08575 1812.17 8.02908 1812.05C6.97241 1811.94 5.97346 1811.51 5.15867 1810.83C4.34389 1810.15 3.74992 1809.24 3.45197 1808.22C3.15401 1807.2 3.16548 1806.11 3.4849 1805.1C3.80433 1804.08 4.41732 1803.19 5.24633 1802.52C6.35532 1801.63 7.77188 1801.22 9.18542 1801.37C10.599 1801.53 11.8942 1802.23 12.787 1803.34Z" fill="#734FAE"/>
</g>
<g style="mix-blend-mode:screen" opacity="0.5">
<path d="M40.8246 1780.72C41.4916 1781.54 41.8985 1782.55 41.9938 1783.61C42.0892 1784.67 41.8687 1785.73 41.3602 1786.66C40.8517 1787.59 40.0781 1788.35 39.1372 1788.85C38.1963 1789.34 37.1303 1789.54 36.0741 1789.43C35.0179 1789.32 34.0189 1788.89 33.2034 1788.21C32.388 1787.53 31.7926 1786.62 31.4927 1785.61C31.1928 1784.59 31.2018 1783.5 31.5186 1782.49C31.8353 1781.47 32.4457 1780.58 33.2723 1779.91C34.3808 1779.02 35.7993 1778.6 37.2156 1778.75C38.6319 1778.9 39.9301 1779.61 40.8246 1780.72Z" fill="#734FAE"/>
</g>
<g style="mix-blend-mode:screen" opacity="0.5">
<path d="M9.33116 1827.73C9.99818 1828.56 10.4051 1829.57 10.5004 1830.62C10.5958 1831.68 10.3752 1832.74 9.86676 1833.68C9.35828 1834.61 8.58467 1835.37 7.64376 1835.86C6.70285 1836.36 5.63689 1836.56 4.5807 1836.45C3.5245 1836.33 2.52551 1835.91 1.71003 1835.23C0.894545 1834.55 0.299215 1833.64 -0.00068376 1832.62C-0.300583 1831.6 -0.291595 1830.52 0.0251727 1829.5C0.341941 1828.49 0.952253 1827.59 1.77892 1826.93C2.3278 1826.48 2.95854 1826.15 3.63513 1825.95C4.31172 1825.75 5.02092 1825.69 5.72221 1825.76C6.4235 1825.84 7.10314 1826.05 7.72236 1826.39C8.34159 1826.73 8.88827 1827.18 9.33116 1827.73Z" fill="#734FAE"/>
</g>
<g style="mix-blend-mode:screen" opacity="0.5">
<path d="M37.3351 1805.14C38.0021 1805.96 38.409 1806.97 38.5043 1808.03C38.5997 1809.09 38.3792 1810.15 37.8707 1811.08C37.3622 1812.01 36.5886 1812.77 35.6477 1813.27C34.7068 1813.76 33.6408 1813.96 32.5846 1813.85C31.5284 1813.74 30.5294 1813.31 29.7139 1812.63C28.8985 1811.95 28.3031 1811.04 28.0032 1810.03C27.7033 1809.01 27.7123 1807.92 28.0291 1806.91C28.3458 1805.89 28.9562 1805 29.7828 1804.33C30.8913 1803.44 32.3098 1803.02 33.7261 1803.17C35.1424 1803.32 36.4406 1804.03 37.3351 1805.14Z" fill="#734FAE"/>
</g>
<g style="mix-blend-mode:screen" opacity="0.5">
<path d="M93.4238 1759.88C94.0908 1760.71 94.4977 1761.71 94.5931 1762.77C94.6884 1763.83 94.4679 1764.89 93.9594 1765.82C93.451 1766.76 92.6773 1767.52 91.7364 1768.01C90.7955 1768.5 89.7296 1768.71 88.6734 1768.59C87.6172 1768.48 86.6182 1768.06 85.8027 1767.38C84.9872 1766.69 84.3919 1765.79 84.092 1764.77C83.7921 1763.75 83.8011 1762.66 84.1178 1761.65C84.4346 1760.64 85.0449 1759.74 85.8716 1759.07C86.9801 1758.18 88.3985 1757.76 89.8149 1757.91C91.2312 1758.06 92.5294 1758.77 93.4238 1759.88Z" fill="#734FAE"/>
</g>
<g style="mix-blend-mode:screen" opacity="0.5">
<path d="M5.86596 1852.11C6.53568 1852.94 6.94547 1853.94 7.04344 1855C7.14141 1856.06 6.92315 1857.12 6.41632 1858.06C5.90948 1858.99 5.13684 1859.76 4.19623 1860.25C3.25561 1860.75 2.18932 1860.95 1.13233 1860.84C0.0753447 1860.73 -0.924783 1860.3 -1.74146 1859.62C-2.55814 1858.94 -3.15465 1858.04 -3.45544 1857.02C-3.75623 1856 -3.74777 1854.91 -3.43117 1853.9C-3.11457 1852.88 -2.50407 1851.99 -1.67691 1851.32C-0.570398 1850.43 0.844998 1850.01 2.25896 1850.16C3.67292 1850.31 4.97006 1851.01 5.86596 1852.11Z" fill="#734FAE"/>
</g>
<g style="mix-blend-mode:screen" opacity="0.5">
<path d="M33.8934 1829.5C34.5636 1830.32 34.9734 1831.33 35.0711 1832.39C35.1687 1833.45 34.9498 1834.51 34.442 1835.45C33.9342 1836.38 33.1604 1837.14 32.2187 1837.64C31.277 1838.13 30.2098 1838.34 29.1524 1838.22C28.0949 1838.11 27.0948 1837.69 26.2788 1837C25.4628 1836.32 24.8677 1835.41 24.5689 1834.39C24.27 1833.37 24.2809 1832.28 24.6002 1831.27C24.9194 1830.26 25.5327 1829.36 26.3622 1828.69C27.4691 1827.81 28.8827 1827.39 30.2938 1827.54C31.705 1827.69 32.9992 1828.4 33.8934 1829.5Z" fill="#734FAE"/>
</g>
<g style="mix-blend-mode:screen" opacity="0.5">
<path d="M61.931 1806.88C62.6007 1807.7 63.0105 1808.71 63.1085 1809.76C63.2065 1810.82 62.9882 1811.89 62.4814 1812.82C61.9745 1813.75 61.2019 1814.52 60.2613 1815.01C59.3207 1815.51 58.2544 1815.71 57.1974 1815.6C56.1404 1815.49 55.1402 1815.07 54.3236 1814.39C53.5069 1813.71 52.9104 1812.8 52.6096 1811.78C52.3088 1810.76 52.3173 1809.67 52.6339 1808.66C52.9505 1807.64 53.561 1806.75 54.3882 1806.08C55.4947 1805.19 56.9101 1804.77 58.324 1804.92C59.738 1805.07 61.0351 1805.77 61.931 1806.88Z" fill="#734FAE"/>
</g>
<g style="mix-blend-mode:screen" opacity="0.5">
<path d="M89.9586 1784.26C90.6283 1785.09 91.0381 1786.09 91.1361 1787.15C91.234 1788.21 91.0158 1789.27 90.509 1790.21C90.0021 1791.14 89.2295 1791.9 88.2889 1792.4C87.3483 1792.89 86.282 1793.1 85.225 1792.99C84.168 1792.87 83.1679 1792.45 82.3512 1791.77C81.5345 1791.09 80.938 1790.18 80.6372 1789.16C80.3364 1788.14 80.3449 1787.06 80.6615 1786.04C80.9781 1785.03 81.5886 1784.13 82.4157 1783.46C83.5223 1782.57 84.9376 1782.15 86.3516 1782.3C87.7656 1782.45 89.0627 1783.16 89.9586 1784.26Z" fill="#734FAE"/>
</g>
<g style="mix-blend-mode:screen" opacity="0.5">
<path d="M117.986 1761.64C118.656 1762.47 119.066 1763.48 119.164 1764.54C119.261 1765.59 119.042 1766.66 118.535 1767.59C118.027 1768.53 117.253 1769.29 116.311 1769.78C115.37 1770.28 114.302 1770.48 113.245 1770.37C112.187 1770.26 111.187 1769.83 110.371 1769.15C109.555 1768.47 108.96 1767.56 108.661 1766.54C108.363 1765.52 108.373 1764.43 108.693 1763.42C109.012 1762.4 109.625 1761.51 110.455 1760.84C111.562 1759.95 112.975 1759.54 114.386 1759.69C115.798 1759.84 117.092 1760.54 117.986 1761.64Z" fill="#734FAE"/>
</g>
<g style="mix-blend-mode:screen" opacity="0.5">
<path d="M2.41013 1876.51C3.07716 1877.33 3.48409 1878.34 3.57943 1879.4C3.67477 1880.45 3.45426 1881.52 2.94578 1882.45C2.4373 1883.38 1.66369 1884.14 0.722778 1884.64C-0.218134 1885.13 -1.28409 1885.33 -2.34029 1885.22C-3.39649 1885.11 -4.39552 1884.68 -5.211 1884C-6.02648 1883.32 -6.62181 1882.41 -6.92171 1881.39C-7.22161 1880.38 -7.21259 1879.29 -6.89582 1878.28C-6.57905 1877.26 -5.96873 1876.37 -5.14207 1875.7C-4.03354 1874.8 -2.61513 1874.39 -1.19881 1874.54C0.217505 1874.69 1.51568 1875.4 2.41013 1876.51Z" fill="#734FAE"/>
</g>
<g style="mix-blend-mode:screen" opacity="0.5">
<path d="M58.4416 1831.29C59.1086 1832.12 59.5155 1833.13 59.6109 1834.19C59.7062 1835.24 59.4857 1836.31 58.9772 1837.24C58.4688 1838.17 57.6951 1838.93 56.7542 1839.42C55.8133 1839.92 54.7474 1840.12 53.6912 1840.01C52.635 1839.89 51.636 1839.47 50.8205 1838.79C50.005 1838.11 49.4097 1837.2 49.1098 1836.18C48.8099 1835.16 48.8189 1834.08 49.1356 1833.07C49.4524 1832.05 50.0627 1831.15 50.8894 1830.49C51.9994 1829.6 53.4169 1829.18 54.832 1829.33C56.2471 1829.48 57.5449 1830.19 58.4416 1831.29Z" fill="#734FAE"/>
</g>
<g style="mix-blend-mode:screen" opacity="0.5">
<path d="M86.5027 1808.65C87.1697 1809.48 87.5766 1810.48 87.6719 1811.54C87.7673 1812.6 87.5467 1813.66 87.0383 1814.6C86.5298 1815.53 85.7562 1816.29 84.8153 1816.78C83.8744 1817.28 82.8084 1817.48 81.7522 1817.37C80.696 1817.25 79.697 1816.83 78.8815 1816.15C78.066 1815.47 77.4707 1814.56 77.1708 1813.54C76.8709 1812.52 76.8799 1811.44 77.1967 1810.42C77.5134 1809.41 78.1238 1808.51 78.9504 1807.85C79.4993 1807.4 80.13 1807.07 80.8066 1806.87C81.4832 1806.67 82.1924 1806.61 82.8937 1806.68C83.595 1806.76 84.2746 1806.97 84.8939 1807.31C85.5131 1807.65 86.0598 1808.1 86.5027 1808.65Z" fill="#734FAE"/>
</g>
<g style="mix-blend-mode:screen" opacity="0.5">
<path d="M114.53 1786.04C115.197 1786.86 115.604 1787.87 115.7 1788.93C115.795 1789.99 115.574 1791.05 115.066 1791.98C114.557 1792.91 113.784 1793.67 112.843 1794.17C111.902 1794.66 110.836 1794.86 109.78 1794.75C108.724 1794.64 107.725 1794.21 106.909 1793.53C106.094 1792.85 105.498 1791.94 105.198 1790.93C104.899 1789.91 104.908 1788.82 105.224 1787.81C105.541 1786.79 106.151 1785.9 106.978 1785.23C108.087 1784.34 109.505 1783.92 110.921 1784.07C112.338 1784.22 113.636 1784.93 114.53 1786.04Z" fill="#734FAE"/>
</g>
<g style="mix-blend-mode:screen" opacity="0.5">
<path d="M142.558 1763.42C143.225 1764.25 143.632 1765.26 143.727 1766.31C143.822 1767.37 143.602 1768.43 143.093 1769.37C142.585 1770.3 141.811 1771.06 140.87 1771.55C139.93 1772.05 138.864 1772.25 137.807 1772.14C136.751 1772.02 135.752 1771.6 134.937 1770.92C134.121 1770.24 133.526 1769.33 133.226 1768.31C132.926 1767.29 132.935 1766.21 133.252 1765.19C133.569 1764.18 134.179 1763.28 135.006 1762.62C136.114 1761.72 137.533 1761.3 138.949 1761.46C140.365 1761.61 141.663 1762.31 142.558 1763.42Z" fill="#734FAE"/>
</g>
<g style="mix-blend-mode:screen" opacity="0.5">
<path d="M18.6223 1885.03C20.4849 1887.34 23.8661 1887.7 26.1745 1885.83C28.4829 1883.97 28.8443 1880.59 26.9817 1878.28C25.1191 1875.97 21.7378 1875.61 19.4294 1877.48C17.121 1879.34 16.7597 1882.72 18.6223 1885.03Z" fill="#734FAE"/>
</g>
<g style="mix-blend-mode:screen" opacity="0.5">
<path d="M55.0092 1855.67C55.6767 1856.5 56.0836 1857.5 56.1787 1858.56C56.2737 1859.62 56.0525 1860.68 55.5431 1861.61C55.0336 1862.55 54.2589 1863.31 53.3169 1863.8C52.3749 1864.29 51.308 1864.49 50.2514 1864.38C49.1947 1864.27 48.1957 1863.84 47.3809 1863.16C46.5662 1862.48 45.9722 1861.57 45.6742 1860.55C45.3763 1859.53 45.3878 1858.44 45.7072 1857.43C46.0266 1856.41 46.6396 1855.52 47.4686 1854.85C48.0169 1854.41 48.6472 1854.08 49.3233 1853.88C49.9993 1853.68 50.7079 1853.62 51.4084 1853.69C52.1089 1853.77 52.7875 1853.98 53.4054 1854.32C54.0233 1854.66 54.5683 1855.12 55.0092 1855.67Z" fill="#734FAE"/>
</g>
<g style="mix-blend-mode:screen" opacity="0.5">
<path d="M83.0468 1833.04C83.7139 1833.87 84.1208 1834.88 84.2161 1835.94C84.3115 1836.99 84.0909 1838.06 83.5825 1838.99C83.074 1839.92 82.3004 1840.68 81.3595 1841.17C80.4185 1841.67 79.3526 1841.87 78.2964 1841.76C77.2402 1841.64 76.2412 1841.22 75.4257 1840.54C74.6102 1839.86 74.0149 1838.95 73.715 1837.93C73.4151 1836.91 73.4241 1835.83 73.7409 1834.82C74.0576 1833.8 74.668 1832.9 75.4946 1832.24C76.6031 1831.34 78.0216 1830.93 79.4379 1831.08C80.8542 1831.23 82.1524 1831.94 83.0468 1833.04Z" fill="#734FAE"/>
</g>
<g style="mix-blend-mode:screen" opacity="0.5">
<path d="M111.074 1810.43C111.741 1811.26 112.148 1812.26 112.243 1813.32C112.339 1814.38 112.118 1815.44 111.61 1816.37C111.101 1817.31 110.328 1818.07 109.387 1818.56C108.446 1819.05 107.38 1819.26 106.324 1819.14C105.268 1819.03 104.269 1818.61 103.453 1817.93C102.638 1817.24 102.042 1816.34 101.742 1815.32C101.442 1814.3 101.451 1813.21 101.768 1812.2C102.085 1811.19 102.695 1810.29 103.522 1809.62C104.63 1808.73 106.049 1808.31 107.465 1808.46C108.882 1808.61 110.18 1809.32 111.074 1810.43Z" fill="#734FAE"/>
</g>
<g style="mix-blend-mode:screen" opacity="0.5">
<path d="M139.102 1787.81C139.769 1788.64 140.176 1789.65 140.271 1790.71C140.366 1791.77 140.145 1792.83 139.636 1793.76C139.126 1794.69 138.351 1795.45 137.409 1795.95C136.467 1796.44 135.401 1796.64 134.344 1796.53C133.287 1796.41 132.288 1795.99 131.473 1795.3C130.659 1794.62 130.065 1793.71 129.767 1792.69C129.469 1791.67 129.48 1790.59 129.8 1789.57C130.119 1788.56 130.732 1787.66 131.561 1787C132.109 1786.56 132.74 1786.23 133.416 1786.03C134.092 1785.83 134.8 1785.77 135.501 1785.84C136.201 1785.92 136.88 1786.13 137.498 1786.47C138.116 1786.81 138.661 1787.26 139.102 1787.81Z" fill="#734FAE"/>
</g>
<g style="mix-blend-mode:screen" opacity="0.5">
<path d="M79.5481 1857.45C80.2151 1858.28 80.622 1859.28 80.7173 1860.34C80.8127 1861.4 80.5922 1862.46 80.0837 1863.4C79.5752 1864.33 78.8016 1865.09 77.8607 1865.58C76.9198 1866.07 75.8538 1866.28 74.7976 1866.16C73.7414 1866.05 72.7424 1865.63 71.9269 1864.95C71.1115 1864.27 70.5161 1863.36 70.2162 1862.34C69.9163 1861.32 69.9253 1860.24 70.2421 1859.22C70.5589 1858.21 71.1692 1857.31 71.9958 1856.65C73.1044 1855.75 74.5228 1855.33 75.9391 1855.48C77.3554 1855.64 78.6536 1856.34 79.5481 1857.45Z" fill="#734FAE"/>
</g>
<g style="mix-blend-mode:screen" opacity="0.5">
<path d="M107.609 1834.81C108.276 1835.64 108.683 1836.64 108.778 1837.7C108.874 1838.76 108.653 1839.82 108.145 1840.75C107.636 1841.69 106.863 1842.45 105.922 1842.94C104.981 1843.43 103.915 1843.64 102.859 1843.52C101.802 1843.41 100.803 1842.99 99.988 1842.31C99.1725 1841.63 98.5771 1840.72 98.2772 1839.7C97.9773 1838.68 97.9864 1837.6 98.3031 1836.58C98.6199 1835.57 99.2302 1834.67 100.057 1834C100.606 1833.56 101.236 1833.23 101.913 1833.03C102.59 1832.83 103.299 1832.77 104 1832.84C104.701 1832.92 105.381 1833.13 106 1833.47C106.62 1833.81 107.166 1834.26 107.609 1834.81Z" fill="#734FAE"/>
</g>
<g style="mix-blend-mode:screen" opacity="0.5">
<path d="M135.637 1812.2C136.304 1813.02 136.711 1814.03 136.806 1815.09C136.901 1816.14 136.681 1817.21 136.172 1818.14C135.664 1819.07 134.89 1819.83 133.949 1820.33C133.008 1820.82 131.942 1821.02 130.886 1820.91C129.83 1820.8 128.831 1820.37 128.016 1819.69C127.2 1819.01 126.605 1818.1 126.305 1817.08C126.005 1816.07 126.014 1814.98 126.331 1813.97C126.648 1812.95 127.258 1812.06 128.084 1811.39C129.193 1810.49 130.611 1810.08 132.028 1810.23C133.444 1810.38 134.742 1811.09 135.637 1812.2Z" fill="#734FAE"/>
</g>
<g style="mix-blend-mode:screen" opacity="0.5">
<path d="M163.664 1789.58C164.331 1790.41 164.738 1791.41 164.833 1792.47C164.929 1793.53 164.708 1794.59 164.2 1795.52C163.691 1796.46 162.918 1797.22 161.977 1797.71C161.036 1798.2 159.97 1798.41 158.914 1798.29C157.857 1798.18 156.858 1797.76 156.043 1797.08C155.227 1796.4 154.632 1795.49 154.332 1794.47C154.032 1793.45 154.041 1792.36 154.358 1791.35C154.675 1790.34 155.285 1789.44 156.112 1788.77C157.22 1787.88 158.639 1787.46 160.055 1787.61C161.471 1787.76 162.77 1788.47 163.664 1789.58Z" fill="#734FAE"/>
</g>
</g>
<defs>
<clipPath id="clip0_1405_1152">
<rect width="1" height="1" fill="white" transform="translate(108 56)"/>
</clipPath>
<clipPath id="clip1_1405_1152">
<rect width="240" height="240" fill="white" transform="translate(1248 110)"/>
</clipPath>
</defs>
</svg>
