<svg width="98" height="99" viewBox="0 0 98 99" fill="none" xmlns="http://www.w3.org/2000/svg">
<g filter="url(#filter0_dii_875_1053)">
<rect x="5" width="88" height="88" rx="24" fill="#8C5AE0"/>
<g filter="url(#filter1_d_875_1053)">
<path d="M69 31.5108C67.4953 32.1717 65.904 32.6109 64.275 32.8149C65.9917 31.7893 67.2752 30.1654 67.8825 28.2507C66.275 29.2107 64.5163 29.8867 62.6825 30.2495C61.5581 29.0406 60.0986 28.2001 58.4937 27.8373C56.8888 27.4744 55.2126 27.606 53.6829 28.215C52.1533 28.8239 50.8408 29.882 49.9161 31.2519C48.9913 32.6217 48.4971 34.2399 48.4975 35.8963C48.4975 36.5508 48.5525 37.1802 48.6875 37.7794C45.4252 37.6183 42.2334 36.7657 39.3208 35.2773C36.4081 33.7889 33.8402 31.6982 31.785 29.1418C30.732 30.9591 30.4065 33.1122 30.8747 35.1627C31.3429 37.2132 32.5696 39.0069 34.305 40.1786C33.0069 40.1435 31.7362 39.7947 30.6 39.1615V39.2521C30.6022 41.159 31.2567 43.0068 32.4533 44.4846C33.6499 45.9625 35.3156 46.98 37.17 47.366C36.4685 47.5522 35.7455 47.6436 35.02 47.6379C34.499 47.6472 33.9785 47.6 33.4675 47.4969C33.9974 49.1359 35.0187 50.5691 36.391 51.5993C37.7632 52.6295 39.4189 53.206 41.13 53.2494C38.2273 55.5354 34.6474 56.7755 30.9625 56.7714C30.29 56.7714 29.645 56.7412 29 56.6581C32.7497 59.0914 37.1192 60.3785 41.58 60.3639C56.67 60.3639 64.92 47.7764 64.92 36.8655C64.92 36.5005 64.9075 36.148 64.89 35.7981C66.5074 34.6325 67.9002 33.1796 69 31.5108Z" fill="white"/>
</g>
</g>
<defs>
<filter id="filter0_dii_875_1053" x="0" y="0" width="98" height="99" filterUnits="userSpaceOnUse" color-interpolation-filters="sRGB">
<feFlood flood-opacity="0" result="BackgroundImageFix"/>
<feColorMatrix in="SourceAlpha" type="matrix" values="0 0 0 0 0 0 0 0 0 0 0 0 0 0 0 0 0 0 127 0" result="hardAlpha"/>
<feOffset dy="6"/>
<feGaussianBlur stdDeviation="2.5"/>
<feComposite in2="hardAlpha" operator="out"/>
<feColorMatrix type="matrix" values="0 0 0 0 0 0 0 0 0 0 0 0 0 0 0 0 0 0 0.4 0"/>
<feBlend mode="normal" in2="BackgroundImageFix" result="effect1_dropShadow_875_1053"/>
<feBlend mode="normal" in="SourceGraphic" in2="effect1_dropShadow_875_1053" result="shape"/>
<feColorMatrix in="SourceAlpha" type="matrix" values="0 0 0 0 0 0 0 0 0 0 0 0 0 0 0 0 0 0 127 0" result="hardAlpha"/>
<feOffset dy="4"/>
<feComposite in2="hardAlpha" operator="arithmetic" k2="-1" k3="1"/>
<feColorMatrix type="matrix" values="0 0 0 0 1 0 0 0 0 1 0 0 0 0 1 0 0 0 0.2 0"/>
<feBlend mode="normal" in2="shape" result="effect2_innerShadow_875_1053"/>
<feColorMatrix in="SourceAlpha" type="matrix" values="0 0 0 0 0 0 0 0 0 0 0 0 0 0 0 0 0 0 127 0" result="hardAlpha"/>
<feOffset dy="-4"/>
<feComposite in2="hardAlpha" operator="arithmetic" k2="-1" k3="1"/>
<feColorMatrix type="matrix" values="0 0 0 0 0 0 0 0 0 0 0 0 0 0 0 0 0 0 0.25 0"/>
<feBlend mode="normal" in2="effect2_innerShadow_875_1053" result="effect3_innerShadow_875_1053"/>
</filter>
<filter id="filter1_d_875_1053" x="24" y="27.6367" width="50" height="43.7271" filterUnits="userSpaceOnUse" color-interpolation-filters="sRGB">
<feFlood flood-opacity="0" result="BackgroundImageFix"/>
<feColorMatrix in="SourceAlpha" type="matrix" values="0 0 0 0 0 0 0 0 0 0 0 0 0 0 0 0 0 0 127 0" result="hardAlpha"/>
<feOffset dy="6"/>
<feGaussianBlur stdDeviation="2.5"/>
<feComposite in2="hardAlpha" operator="out"/>
<feColorMatrix type="matrix" values="0 0 0 0 0 0 0 0 0 0 0 0 0 0 0 0 0 0 0.4 0"/>
<feBlend mode="normal" in2="BackgroundImageFix" result="effect1_dropShadow_875_1053"/>
<feBlend mode="normal" in="SourceGraphic" in2="effect1_dropShadow_875_1053" result="shape"/>
</filter>
</defs>
</svg>
