<svg width="535" height="521" viewBox="0 0 535 521" fill="none" xmlns="http://www.w3.org/2000/svg">
<g filter="url(#filter0_d_871_1004)">
<g clip-path="url(#clip0_871_1004)">
<rect x="48" y="36" width="439" height="425" rx="12" fill="#734FAE"/>
<rect x="48" y="36" width="439" height="96" fill="#FFC759"/>
<path d="M238.411 61.244L235.415 60.964H231.271L231.019 64.604V65.892H236.395L236.619 65.08H237.151L236.983 68.916H236.451L236.311 67.796H231.019V70.484L231.271 74.096H235.415L238.635 73.788L239.111 72.668L239.587 72.78L238.719 76.756L238.215 76.728L238.243 76H227.659L227.631 75.468L228.471 75.272L228.807 70.456V64.576L228.471 59.788L227.631 59.592L227.659 59.06H238.495L238.719 58.248H239.251L239.083 62.364H238.551L238.411 61.244ZM243.647 75.272L243.983 70.456V64.576L243.647 59.816L242.807 59.62L242.835 59.088C245.859 59.0133 247.866 58.976 248.855 58.976C253.092 58.976 255.211 60.6 255.211 63.848C255.211 65.304 254.772 66.452 253.895 67.292C253.036 68.132 251.795 68.5893 250.171 68.664L255.883 75.272L256.751 75.468L256.723 76H251.263L251.235 75.412L252.411 75.272L249.387 70.876L246.531 67.6L246.587 67.32C248.976 67.2453 250.572 66.984 251.375 66.536C252.196 66.088 252.607 65.2293 252.607 63.96C252.607 61.7573 251.319 60.656 248.743 60.656C248.015 60.656 247.25 60.7587 246.447 60.964L246.195 64.604V70.484L246.531 75.272L247.707 75.412L247.679 76H242.835L242.807 75.468L243.647 75.272ZM265.452 60.488C263.921 60.488 262.745 61.0947 261.924 62.308C261.102 63.5027 260.692 65.22 260.692 67.46C260.692 69.6813 261.121 71.4267 261.98 72.696C262.857 73.9467 264.033 74.572 265.508 74.572C267.001 74.572 268.588 74.0867 270.268 73.116L270.744 71.996L271.248 72.108L270.268 76.56H269.708L269.736 75.86C268.485 76.2333 267.085 76.42 265.536 76.42C263.165 76.42 261.317 75.664 259.992 74.152C258.666 72.64 258.004 70.5027 258.004 67.74C258.004 64.9587 258.722 62.7467 260.16 61.104C261.597 59.4613 263.548 58.64 266.012 58.64C267.244 58.64 268.55 58.8733 269.932 59.34L270.128 58.64H270.66L270.464 62.952H269.932L269.736 61.776C268.093 60.9173 266.665 60.488 265.452 60.488ZM273.337 70.26V68.3L279.945 67.964V69.924L273.337 70.26ZM281.972 76L281.636 74.964C284.716 72.1267 286.779 70.0827 287.824 68.832C288.87 67.5813 289.392 66.5733 289.392 65.808C289.392 65.0427 289.15 64.4733 288.664 64.1C288.198 63.708 287.591 63.512 286.844 63.512C286.098 63.512 285.388 63.6333 284.716 63.876C284.044 64.1187 283.503 64.4267 283.092 64.8L283.008 65.864H282.532L282.336 61.804H282.784L283.008 62.42C284.483 62.0093 285.93 61.804 287.348 61.804C288.767 61.804 289.887 62.112 290.708 62.728C291.53 63.3253 291.94 64.1747 291.94 65.276C291.94 66.3587 291.427 67.5067 290.4 68.72C289.374 69.9147 287.32 71.828 284.24 74.46L288.776 74.292L291.912 73.844L292.36 72.808L292.864 72.92L292.164 76H281.972ZM301.542 63.512C300.31 63.512 299.34 64.016 298.63 65.024C297.921 66.032 297.566 67.4227 297.566 69.196C297.566 70.9507 297.902 72.3133 298.574 73.284C299.265 74.236 300.226 74.712 301.458 74.712C302.709 74.712 303.689 74.2173 304.398 73.228C305.108 72.22 305.462 70.8293 305.462 69.056C305.462 67.2827 305.117 65.92 304.426 64.968C303.754 63.9973 302.793 63.512 301.542 63.512ZM301.458 76.42C299.536 76.42 298.014 75.776 296.894 74.488C295.793 73.2 295.242 71.436 295.242 69.196C295.242 66.9373 295.812 65.1453 296.95 63.82C298.089 62.476 299.62 61.804 301.542 61.804C303.465 61.804 304.986 62.4573 306.106 63.764C307.226 65.052 307.786 66.816 307.786 69.056C307.786 71.296 307.208 73.088 306.05 74.432C304.912 75.7573 303.381 76.42 301.458 76.42Z" fill="black"/>
<path d="M206.574 105.12L206.554 108.44L206.694 109.24C205.507 109.947 204.014 110.3 202.214 110.3C200.414 110.3 199.04 109.76 198.094 108.68C197.147 107.6 196.674 106.073 196.674 104.1C196.674 102.113 197.214 100.533 198.294 99.36C199.387 98.1867 200.867 97.6 202.734 97.6C203.68 97.6 204.68 97.7667 205.734 98.1L205.874 97.6H206.254L206.114 100.68H205.734L205.594 99.84C204.354 99.2267 203.247 98.92 202.274 98.92C201.087 98.92 200.174 99.3533 199.534 100.22C198.907 101.073 198.594 102.3 198.594 103.9C198.594 105.487 198.9 106.733 199.514 107.64C200.14 108.533 200.947 108.98 201.934 108.98C202.934 108.98 203.974 108.7 205.054 108.14L204.934 105.12L204.134 105.02L204.154 104.6H207.154L207.174 104.98L206.574 105.12ZM212.919 109.18C214.332 109.18 215.039 108.2 215.039 106.24C215.039 103.973 214.219 102.84 212.579 102.84C211.845 102.84 211.312 103.073 210.979 103.54C210.659 103.993 210.499 104.773 210.499 105.88C210.499 108.08 211.305 109.18 212.919 109.18ZM212.719 110.3C211.479 110.3 210.512 109.94 209.819 109.22C209.125 108.487 208.779 107.46 208.779 106.14C208.779 104.807 209.145 103.74 209.879 102.94C210.612 102.127 211.599 101.72 212.839 101.72C214.092 101.72 215.059 102.08 215.739 102.8C216.432 103.507 216.779 104.533 216.779 105.88C216.779 107.213 216.412 108.287 215.679 109.1C214.945 109.9 213.959 110.3 212.719 110.3ZM222.028 110.24L221.488 110.3L218.048 102.54L217.428 102.4L217.448 102.02H220.988L221.008 102.44L220.128 102.54L220.548 104.34L221.928 107.96L223.308 104.34L223.668 102.54L222.848 102.44L222.868 102.02H225.988L226.008 102.4L225.368 102.54L222.028 110.24ZM230.349 110.3C229.282 110.3 228.402 109.933 227.709 109.2C227.029 108.467 226.689 107.453 226.689 106.16C226.689 104.853 227.042 103.787 227.749 102.96C228.455 102.133 229.389 101.72 230.549 101.72C231.722 101.72 232.589 101.987 233.149 102.52C233.709 103.053 233.989 103.887 233.989 105.02C233.989 105.34 233.969 105.68 233.929 106.04H228.409C228.409 106.987 228.615 107.747 229.029 108.32C229.442 108.893 230.035 109.18 230.809 109.18C231.582 109.18 232.355 108.887 233.129 108.3L233.269 107.48L233.609 107.5L233.749 110.28H233.429L233.249 109.82C232.382 110.14 231.415 110.3 230.349 110.3ZM228.449 105L232.329 104.98C232.329 104.22 232.182 103.673 231.889 103.34C231.595 103.007 231.135 102.84 230.509 102.84C229.269 102.84 228.582 103.56 228.449 105ZM235.715 102.04L238.295 101.82L238.215 103.14C238.562 102.58 238.875 102.207 239.155 102.02C239.435 101.82 239.775 101.72 240.175 101.72C240.575 101.72 240.968 101.753 241.355 101.82L241.255 104.14H240.915L240.775 103.28C240.388 103.147 240.062 103.08 239.795 103.08C239.542 103.08 239.302 103.147 239.075 103.28C238.848 103.413 238.548 103.687 238.175 104.1L238.095 105.58V106.46L238.255 109.48L239.455 109.62L239.435 110H235.795L235.775 109.62L236.375 109.48L236.555 106.46V105.58L236.375 102.56L235.695 102.42L235.715 102.04ZM242.455 110L242.435 109.62L243.035 109.48L243.215 106.46V105.58L243.035 102.56L242.355 102.42L242.375 102.04L244.955 101.82L244.895 102.74C245.802 102.06 246.675 101.72 247.515 101.72C248.355 101.72 248.988 101.973 249.415 102.48C249.855 102.987 250.075 103.693 250.075 104.6V106.46L250.235 109.48L250.835 109.62L250.815 110H247.515L247.495 109.58L248.355 109.48L248.535 106.46V104.68C248.535 104.173 248.388 103.787 248.095 103.52C247.815 103.24 247.368 103.1 246.755 103.1C246.155 103.1 245.522 103.34 244.855 103.82L244.755 105.58V106.46L244.915 109.48L245.815 109.58L245.795 110H242.455ZM253.231 101.5L253.411 101.94C254.264 101.793 254.991 101.72 255.591 101.72C256.724 101.72 257.591 101.96 258.191 102.44C258.804 102.907 259.111 103.587 259.111 104.48L259.071 106.46L259.251 109.46L259.931 109.6L259.911 109.98L257.431 110.16V109.34C256.644 109.98 255.844 110.3 255.031 110.3C254.218 110.3 253.578 110.08 253.111 109.64C252.658 109.2 252.431 108.593 252.431 107.82C252.431 107.047 252.764 106.473 253.431 106.1C254.098 105.713 255.478 105.347 257.571 105V104.48C257.571 103.96 257.418 103.56 257.111 103.28C256.818 102.987 256.378 102.84 255.791 102.84C255.204 102.84 254.451 103.033 253.531 103.42L253.451 104.16L253.111 104.18L252.911 101.5H253.231ZM257.531 106.14C256.158 106.393 255.244 106.627 254.791 106.84C254.351 107.04 254.131 107.347 254.131 107.76C254.131 108.173 254.271 108.513 254.551 108.78C254.831 109.047 255.231 109.18 255.751 109.18C256.284 109.18 256.844 108.887 257.431 108.3L257.531 106.14ZM261.732 110L261.712 109.62L262.312 109.48L262.492 106.46V105.58L262.312 102.56L261.632 102.42L261.652 102.04L264.232 101.82L264.172 102.74C265.079 102.06 265.952 101.72 266.792 101.72C267.632 101.72 268.266 101.973 268.692 102.48C269.132 102.987 269.352 103.693 269.352 104.6V106.46L269.512 109.48L270.112 109.62L270.092 110H266.792L266.772 109.58L267.632 109.48L267.812 106.46V104.68C267.812 104.173 267.666 103.787 267.372 103.52C267.092 103.24 266.646 103.1 266.032 103.1C265.432 103.1 264.799 103.34 264.132 103.82L264.032 105.58V106.46L264.192 109.48L265.092 109.58L265.072 110H261.732ZM275.508 110.3C274.348 110.3 273.422 109.913 272.728 109.14C272.048 108.353 271.708 107.313 271.708 106.02C271.708 104.713 272.108 103.673 272.908 102.9C273.708 102.113 274.775 101.72 276.108 101.72C276.682 101.72 277.295 101.787 277.948 101.92L278.108 101.48H278.428L278.288 104.24H277.948L277.888 103.48C277.142 103.067 276.435 102.86 275.768 102.86C275.115 102.86 274.562 103.153 274.108 103.74C273.655 104.313 273.428 105.073 273.428 106.02C273.428 106.953 273.635 107.713 274.048 108.3C274.475 108.887 275.062 109.18 275.808 109.18C276.555 109.18 277.282 108.927 277.988 108.42L278.328 107.62L278.688 107.7L278.068 110.52H277.668L277.688 110C276.982 110.2 276.255 110.3 275.508 110.3ZM283.747 110.3C282.68 110.3 281.8 109.933 281.107 109.2C280.427 108.467 280.087 107.453 280.087 106.16C280.087 104.853 280.44 103.787 281.147 102.96C281.854 102.133 282.787 101.72 283.947 101.72C285.12 101.72 285.987 101.987 286.547 102.52C287.107 103.053 287.387 103.887 287.387 105.02C287.387 105.34 287.367 105.68 287.327 106.04H281.807C281.807 106.987 282.014 107.747 282.427 108.32C282.84 108.893 283.434 109.18 284.207 109.18C284.98 109.18 285.754 108.887 286.527 108.3L286.667 107.48L287.007 107.5L287.147 110.28H286.827L286.647 109.82C285.78 110.14 284.814 110.3 283.747 110.3ZM281.847 105L285.727 104.98C285.727 104.22 285.58 103.673 285.287 103.34C284.994 103.007 284.534 102.84 283.907 102.84C282.667 102.84 281.98 103.56 281.847 105ZM292.857 97.82L295.397 97.96H298.297L300.837 97.82L300.937 97.24H301.317L301.397 100.08H301.017L300.837 99.3L297.837 99.2L297.657 101.86V106.06L297.897 109.48L298.797 109.62L298.777 110H294.957L294.937 109.62L295.837 109.48L296.077 106.04V101.84L295.877 99.2L292.857 99.3L292.677 100.08H292.297L292.377 97.24H292.757L292.857 97.82ZM306.434 109.18C307.847 109.18 308.554 108.2 308.554 106.24C308.554 103.973 307.734 102.84 306.094 102.84C305.361 102.84 304.827 103.073 304.494 103.54C304.174 103.993 304.014 104.773 304.014 105.88C304.014 108.08 304.821 109.18 306.434 109.18ZM306.234 110.3C304.994 110.3 304.027 109.94 303.334 109.22C302.641 108.487 302.294 107.46 302.294 106.14C302.294 104.807 302.661 103.74 303.394 102.94C304.127 102.127 305.114 101.72 306.354 101.72C307.607 101.72 308.574 102.08 309.254 102.8C309.947 103.507 310.294 104.533 310.294 105.88C310.294 107.213 309.927 108.287 309.194 109.1C308.461 109.9 307.474 110.3 306.234 110.3ZM312.024 97.94L314.604 97.72L314.404 101.48V106.46L314.564 109.48L315.764 109.62L315.744 110H312.104L312.084 109.62L312.684 109.48L312.864 106.46V101.48L312.684 98.46L312.004 98.32L312.024 97.94ZM314.764 105.6V105.46L316.524 103.76L317.324 102.54L316.424 102.44L316.444 102.02H320.024L320.044 102.4L319.444 102.54L316.564 105.38L319.824 109.48L320.444 109.62L320.424 110H317.764L316.784 108.18L314.764 105.6ZM324.704 110.3C323.637 110.3 322.757 109.933 322.064 109.2C321.384 108.467 321.044 107.453 321.044 106.16C321.044 104.853 321.397 103.787 322.104 102.96C322.811 102.133 323.744 101.72 324.904 101.72C326.077 101.72 326.944 101.987 327.504 102.52C328.064 103.053 328.344 103.887 328.344 105.02C328.344 105.34 328.324 105.68 328.284 106.04H322.764C322.764 106.987 322.971 107.747 323.384 108.32C323.797 108.893 324.391 109.18 325.164 109.18C325.937 109.18 326.711 108.887 327.484 108.3L327.624 107.48L327.964 107.5L328.104 110.28H327.784L327.604 109.82C326.737 110.14 325.771 110.3 324.704 110.3ZM322.804 105L326.684 104.98C326.684 104.22 326.537 103.673 326.244 103.34C325.951 103.007 325.491 102.84 324.864 102.84C323.624 102.84 322.937 103.56 322.804 105ZM330.15 110L330.13 109.62L330.73 109.48L330.91 106.46V105.58L330.73 102.56L330.05 102.42L330.07 102.04L332.65 101.82L332.59 102.74C333.497 102.06 334.37 101.72 335.21 101.72C336.05 101.72 336.684 101.973 337.11 102.48C337.55 102.987 337.77 103.693 337.77 104.6V106.46L337.93 109.48L338.53 109.62L338.51 110H335.21L335.19 109.58L336.05 109.48L336.23 106.46V104.68C336.23 104.173 336.084 103.787 335.79 103.52C335.51 103.24 335.064 103.1 334.45 103.1C333.85 103.1 333.217 103.34 332.55 103.82L332.45 105.58V106.46L332.61 109.48L333.51 109.58L333.49 110H330.15Z" fill="black"/>
<rect x="45" y="33" width="445" height="102" stroke="white" stroke-opacity="0.2" stroke-width="6"/>
<rect x="48" y="360" width="439" height="101" rx="12" fill="#FFC759"/>
<path d="M243.115 398.216C243.435 398.408 243.68 398.504 243.851 398.504C244.043 398.504 244.331 398.365 244.715 398.088C245.099 397.789 245.291 397.565 245.291 397.416C245.291 397.245 245.152 397.043 244.875 396.808C244.598 396.573 243.915 396.211 242.827 395.72C241.76 395.208 240.768 394.664 239.851 394.088C238.934 393.512 238.336 392.947 238.059 392.392C237.782 391.837 237.643 391.251 237.643 390.632C237.643 390.013 237.75 389.48 237.963 389.032C238.176 388.584 238.763 387.923 239.723 387.048C240.704 386.173 241.59 385.533 242.379 385.128V382.6H245.259V385.224C247.158 386.077 248.544 387.251 249.419 388.744L245.803 391.24L245.547 390.888C244.608 389.693 243.915 389.096 243.467 389.096C243.232 389.096 242.923 389.245 242.539 389.544C242.155 389.821 241.963 390.056 241.963 390.248C241.963 390.419 242.091 390.611 242.347 390.824C242.624 391.037 243.286 391.411 244.331 391.944C245.398 392.477 246.4 393.043 247.339 393.64C248.299 394.216 248.918 394.749 249.195 395.24C249.472 395.709 249.611 396.424 249.611 397.384C249.611 398.323 249.451 398.995 249.131 399.4C248.832 399.805 248.288 400.307 247.499 400.904C246.731 401.501 245.984 401.992 245.259 402.376V405H242.379V402.344C241.547 402.067 240.683 401.608 239.787 400.968C238.912 400.307 238.262 399.603 237.835 398.856L241.451 396.36L241.707 396.712C242.347 397.523 242.816 398.024 243.115 398.216ZM252.487 382.6H256.903V395.048C256.903 396.243 256.967 397.149 257.095 397.768C257.244 398.365 257.564 399.027 258.055 399.752C258.546 400.456 258.898 400.808 259.111 400.808C259.324 400.808 259.676 400.456 260.167 399.752C260.658 399.027 260.967 398.365 261.095 397.768C261.244 397.149 261.319 396.243 261.319 395.048V391.304C261.319 389.512 261.191 388.264 260.935 387.56C260.7 386.856 260.188 385.992 259.399 384.968L263.239 382.216C263.922 382.664 264.508 383.539 264.999 384.84C265.49 386.12 265.735 387.656 265.735 389.448V394.728C265.735 396.392 265.575 397.757 265.255 398.824C264.935 399.891 264.018 401.256 262.503 402.92C261.01 404.563 259.879 405.384 259.111 405.384C258.343 405.384 257.202 404.563 255.687 402.92C254.194 401.256 253.287 399.891 252.967 398.824C252.647 397.757 252.487 396.392 252.487 394.728V382.6ZM272.619 383.976C274.326 382.803 275.489 382.216 276.107 382.216C276.726 382.216 277.675 382.781 278.955 383.912C280.257 385.021 281.067 385.811 281.387 386.28C281.707 386.728 281.867 387.325 281.867 388.072C281.867 389.523 281.75 390.387 281.515 390.664C281.067 391.347 280.374 392.147 279.435 393.064C280.737 394.301 281.547 395.251 281.867 395.912C282.038 396.36 282.219 397.725 282.411 400.008C282.603 402.269 282.699 403.933 282.699 405H277.899C277.899 404.04 277.814 402.536 277.643 400.488C277.473 398.44 277.281 397.203 277.067 396.776C276.875 396.349 276.641 395.976 276.363 395.656H273.515V405H269.099V390.984C269.099 389.256 268.971 388.061 268.715 387.4C268.481 386.717 267.969 385.885 267.179 384.904L271.019 382.216C271.702 382.664 272.235 383.251 272.619 383.976ZM273.515 389.448V391.912H274.763C275.062 391.912 275.446 391.677 275.915 391.208C276.385 390.739 276.683 390.344 276.811 390.024C276.961 389.683 277.035 389.331 277.035 388.968C277.035 388.605 276.961 388.285 276.811 388.008C276.683 387.709 276.491 387.379 276.235 387.016C275.979 386.653 275.766 386.472 275.595 386.472C275.019 386.472 274.294 386.611 273.419 386.888C273.483 387.72 273.515 388.573 273.515 389.448ZM297.649 395.976C297.884 396.36 298.001 397.128 298.001 398.28C298.001 399.411 297.766 400.371 297.297 401.16C296.87 401.779 295.964 402.643 294.577 403.752C293.19 404.84 292.166 405.384 291.505 405.384C290.332 405.384 288.988 404.776 287.473 403.56C285.958 402.323 284.998 400.968 284.593 399.496L288.145 397.064C288.486 398.067 289.03 398.984 289.777 399.816C290.524 400.648 291.046 401.064 291.345 401.064C291.665 401.064 291.996 400.968 292.337 400.776C292.7 400.563 292.977 400.349 293.169 400.136C293.446 399.795 293.585 399.261 293.585 398.536C293.585 397.811 293.414 397.363 293.073 397.192C292.646 396.829 291.814 396.349 290.577 395.752C289.361 395.155 288.23 394.515 287.185 393.832C286.14 393.128 285.468 392.445 285.169 391.784C284.892 391.123 284.753 390.269 284.753 389.224C284.753 388.157 284.988 387.229 285.457 386.44C285.884 385.821 286.79 384.968 288.177 383.88C289.564 382.771 290.588 382.216 291.249 382.216C292.422 382.216 293.766 382.835 295.281 384.072C296.796 385.288 297.756 386.632 298.161 388.104L294.609 390.568C294.268 389.565 293.724 388.648 292.977 387.816C292.23 386.963 291.697 386.536 291.377 386.536C291.078 386.536 290.748 386.632 290.385 386.824C290.022 387.016 289.724 387.261 289.489 387.56C289.276 387.837 289.169 388.328 289.169 389.032C289.169 389.715 289.382 390.173 289.809 390.408C290.15 390.707 290.929 391.176 292.145 391.816C295.26 393.523 297.094 394.909 297.649 395.976Z" fill="black"/>
<path d="M220.307 442.3L219.667 442.98C218.547 441.953 217.673 440.673 217.047 439.14C216.433 437.607 216.127 435.973 216.127 434.24C216.127 432.493 216.433 430.873 217.047 429.38C217.673 427.887 218.547 426.653 219.667 425.68L220.307 426.36C219.573 427.093 218.993 428.18 218.567 429.62C218.14 431.06 217.927 432.647 217.927 434.38C217.927 436.1 218.133 437.667 218.547 439.08C218.973 440.493 219.56 441.567 220.307 442.3ZM231.01 427.42L226.83 438.48L227.45 438.62L227.43 439H224.29L224.27 438.62L224.89 438.48L220.81 427.42L220.21 427.28L220.23 426.9H223.91L223.93 427.32L223.05 427.42L223.53 430.08L226.03 437.32L228.51 430.08L228.97 427.42L228.09 427.32L228.11 426.9H231.59L231.61 427.28L231.01 427.42ZM235.866 439.3C234.8 439.3 233.92 438.933 233.226 438.2C232.546 437.467 232.206 436.453 232.206 435.16C232.206 433.853 232.56 432.787 233.266 431.96C233.973 431.133 234.906 430.72 236.066 430.72C237.24 430.72 238.106 430.987 238.666 431.52C239.226 432.053 239.506 432.887 239.506 434.02C239.506 434.34 239.486 434.68 239.446 435.04H233.926C233.926 435.987 234.133 436.747 234.546 437.32C234.96 437.893 235.553 438.18 236.326 438.18C237.1 438.18 237.873 437.887 238.646 437.3L238.786 436.48L239.126 436.5L239.266 439.28H238.946L238.766 438.82C237.9 439.14 236.933 439.3 235.866 439.3ZM233.966 434L237.846 433.98C237.846 433.22 237.7 432.673 237.406 432.34C237.113 432.007 236.653 431.84 236.026 431.84C234.786 431.84 234.1 432.56 233.966 434ZM241.233 431.04L243.813 430.82L243.733 432.14C244.079 431.58 244.393 431.207 244.673 431.02C244.953 430.82 245.293 430.72 245.693 430.72C246.093 430.72 246.486 430.753 246.873 430.82L246.773 433.14H246.433L246.293 432.28C245.906 432.147 245.579 432.08 245.312 432.08C245.059 432.08 244.819 432.147 244.593 432.28C244.366 432.413 244.066 432.687 243.693 433.1L243.613 434.58V435.46L243.773 438.48L244.973 438.62L244.953 439H241.313L241.293 438.62L241.893 438.48L242.073 435.46V434.58L241.893 431.56L241.213 431.42L241.233 431.04ZM248.193 439.02L247.873 439.42L247.573 439.32L248.393 436.86L248.713 436.92L248.633 437.74C249.313 438.033 249.933 438.18 250.493 438.18C251.053 438.18 251.479 438.08 251.773 437.88C252.066 437.68 252.213 437.413 252.213 437.08C252.213 436.747 252.059 436.473 251.753 436.26C251.446 436.033 251.073 435.84 250.633 435.68C250.193 435.507 249.753 435.32 249.313 435.12C248.886 434.92 248.519 434.64 248.213 434.28C247.906 433.92 247.753 433.453 247.753 432.88C247.753 432.293 248.073 431.787 248.713 431.36C249.353 430.933 250.166 430.72 251.153 430.72C251.726 430.72 252.306 430.793 252.893 430.94L253.073 430.48H253.393L253.273 433.16L252.933 433.14L252.833 432.4C251.913 432 251.173 431.8 250.613 431.8C249.693 431.8 249.233 432.107 249.233 432.72C249.233 432.987 249.386 433.22 249.693 433.42C250.013 433.62 250.393 433.8 250.833 433.96C251.273 434.12 251.713 434.3 252.153 434.5C252.593 434.7 252.966 434.987 253.273 435.36C253.593 435.733 253.753 436.18 253.753 436.7C253.753 437.487 253.426 438.12 252.773 438.6C252.119 439.067 251.253 439.3 250.173 439.3C249.573 439.3 248.913 439.207 248.193 439.02ZM259.011 439.3C257.944 439.3 257.064 438.933 256.371 438.2C255.691 437.467 255.351 436.453 255.351 435.16C255.351 433.853 255.704 432.787 256.411 431.96C257.117 431.133 258.051 430.72 259.211 430.72C260.384 430.72 261.251 430.987 261.811 431.52C262.371 432.053 262.651 432.887 262.651 434.02C262.651 434.34 262.631 434.68 262.591 435.04H257.071C257.071 435.987 257.277 436.747 257.691 437.32C258.104 437.893 258.697 438.18 259.471 438.18C260.244 438.18 261.017 437.887 261.791 437.3L261.931 436.48L262.271 436.5L262.411 439.28H262.091L261.911 438.82C261.044 439.14 260.077 439.3 259.011 439.3ZM257.111 434L260.991 433.98C260.991 433.22 260.844 432.673 260.551 432.34C260.257 432.007 259.797 431.84 259.171 431.84C257.931 431.84 257.244 432.56 257.111 434ZM268.121 426.82L270.661 426.96H273.561L276.101 426.82L276.201 426.24H276.581L276.661 429.08H276.281L276.101 428.3L273.101 428.2L272.921 430.86V435.06L273.161 438.48L274.061 438.62L274.041 439H270.221L270.201 438.62L271.101 438.48L271.341 435.04V430.84L271.141 428.2L268.121 428.3L267.941 429.08H267.561L267.641 426.24H268.021L268.121 426.82ZM281.698 438.18C283.111 438.18 283.818 437.2 283.818 435.24C283.818 432.973 282.998 431.84 281.358 431.84C280.624 431.84 280.091 432.073 279.758 432.54C279.438 432.993 279.278 433.773 279.278 434.88C279.278 437.08 280.084 438.18 281.698 438.18ZM281.498 439.3C280.258 439.3 279.291 438.94 278.598 438.22C277.904 437.487 277.558 436.46 277.558 435.14C277.558 433.807 277.924 432.74 278.658 431.94C279.391 431.127 280.378 430.72 281.618 430.72C282.871 430.72 283.838 431.08 284.518 431.8C285.211 432.507 285.558 433.533 285.558 434.88C285.558 436.213 285.191 437.287 284.458 438.1C283.724 438.9 282.738 439.3 281.498 439.3ZM287.287 426.94L289.867 426.72L289.667 430.48V435.46L289.827 438.48L291.027 438.62L291.007 439H287.367L287.347 438.62L287.947 438.48L288.127 435.46V430.48L287.947 427.46L287.267 427.32L287.287 426.94ZM290.027 434.6V434.46L291.787 432.76L292.587 431.54L291.687 431.44L291.707 431.02H295.287L295.307 431.4L294.707 431.54L291.827 434.38L295.087 438.48L295.707 438.62L295.687 439H293.027L292.047 437.18L290.027 434.6ZM299.968 439.3C298.901 439.3 298.021 438.933 297.328 438.2C296.648 437.467 296.308 436.453 296.308 435.16C296.308 433.853 296.661 432.787 297.368 431.96C298.074 431.133 299.008 430.72 300.168 430.72C301.341 430.72 302.208 430.987 302.768 431.52C303.328 432.053 303.608 432.887 303.608 434.02C303.608 434.34 303.588 434.68 303.548 435.04H298.028C298.028 435.987 298.234 436.747 298.648 437.32C299.061 437.893 299.654 438.18 300.428 438.18C301.201 438.18 301.974 437.887 302.748 437.3L302.888 436.48L303.228 436.5L303.368 439.28H303.048L302.868 438.82C302.001 439.14 301.034 439.3 299.968 439.3ZM298.068 434L301.948 433.98C301.948 433.22 301.801 432.673 301.508 432.34C301.214 432.007 300.754 431.84 300.128 431.84C298.888 431.84 298.201 432.56 298.068 434ZM305.414 439L305.394 438.62L305.994 438.48L306.174 435.46V434.58L305.994 431.56L305.314 431.42L305.334 431.04L307.914 430.82L307.854 431.74C308.761 431.06 309.634 430.72 310.474 430.72C311.314 430.72 311.947 430.973 312.374 431.48C312.814 431.987 313.034 432.693 313.034 433.6V435.46L313.194 438.48L313.794 438.62L313.774 439H310.474L310.454 438.58L311.314 438.48L311.494 435.46V433.68C311.494 433.173 311.347 432.787 311.054 432.52C310.774 432.24 310.327 432.1 309.714 432.1C309.114 432.1 308.481 432.34 307.814 432.82L307.714 434.58V435.46L307.874 438.48L308.774 438.58L308.754 439H305.414ZM314.69 442.3C315.437 441.567 316.017 440.493 316.43 439.08C316.857 437.667 317.07 436.1 317.07 434.38C317.07 432.647 316.857 431.06 316.43 429.62C316.003 428.18 315.423 427.093 314.69 426.36L315.33 425.68C316.45 426.653 317.317 427.887 317.93 429.38C318.557 430.873 318.87 432.493 318.87 434.24C318.87 435.973 318.557 437.607 317.93 439.14C317.317 440.673 316.45 441.953 315.33 442.98L314.69 442.3Z" fill="black"/>
</g>
<rect x="44" y="32" width="447" height="433" rx="16" stroke="black" stroke-width="8" stroke-linecap="round" stroke-dasharray="16 16"/>
</g>
<defs>
<filter id="filter0_d_871_1004" x="0" y="0" width="535" height="521" filterUnits="userSpaceOnUse" color-interpolation-filters="sRGB">
<feFlood flood-opacity="0" result="BackgroundImageFix"/>
<feColorMatrix in="SourceAlpha" type="matrix" values="0 0 0 0 0 0 0 0 0 0 0 0 0 0 0 0 0 0 127 0" result="hardAlpha"/>
<feOffset dy="12"/>
<feGaussianBlur stdDeviation="20"/>
<feComposite in2="hardAlpha" operator="out"/>
<feColorMatrix type="matrix" values="0 0 0 0 0.568627 0 0 0 0 0.380392 0 0 0 0 0.878431 0 0 0 0.4 0"/>
<feBlend mode="normal" in2="BackgroundImageFix" result="effect1_dropShadow_871_1004"/>
<feBlend mode="normal" in="SourceGraphic" in2="effect1_dropShadow_871_1004" result="shape"/>
</filter>
<clipPath id="clip0_871_1004">
<rect x="48" y="36" width="439" height="425" rx="12" fill="white"/>
</clipPath>
</defs>
</svg>
