<svg width="205" height="72" viewBox="0 0 205 72" fill="none" xmlns="http://www.w3.org/2000/svg">
<g filter="url(#filter0_dii_1191_1138)">
<rect x="5" width="195" height="61" rx="12" fill="#8C5AE0"/>
<g filter="url(#filter1_d_1191_1138)">
<path d="M53.096 30.152H53.736C54.1413 30.152 54.6107 29.96 55.144 29.576C55.6987 29.1707 56.0507 28.7333 56.2 28.264C56.3493 27.7947 56.424 27.1653 56.424 26.376C56.424 25.5867 56.3493 24.936 56.2 24.424C56.0507 23.8907 55.6987 23.432 55.144 23.048C54.6107 22.664 54.088 22.472 53.576 22.472C53.0853 22.472 52.4133 22.7493 51.56 23.304C51.624 24.008 51.656 24.7227 51.656 25.448V41H47.24V27.304C47.24 25.512 47.112 24.2533 46.856 23.528C46.6213 22.7813 46.1093 21.9173 45.32 20.936L49.16 18.216C49.7147 18.6 50.2053 19.2293 50.632 20.104C52.3813 18.8453 53.6293 18.216 54.376 18.216C55.1227 18.216 56.1573 18.8133 57.48 20.008C58.8027 21.2027 59.6987 22.2053 60.168 23.016C60.4027 23.3147 60.52 24.3493 60.52 26.12C60.52 27.8907 60.4027 29.0107 60.168 29.48C59.6987 30.2907 58.8027 31.2933 57.48 32.488C56.1573 33.6827 55.1227 34.28 54.376 34.28H53.096V30.152ZM62.4325 17H66.6565V34.824C66.6565 35.912 66.7845 36.7547 67.0405 37.352C67.2965 37.9493 67.7018 38.472 68.2565 38.92L64.7365 41.384C63.2005 40.168 62.4325 38.44 62.4325 36.2V17ZM81.87 23.752V36.872C81.998 37.6187 82.4993 38.28 83.374 38.856L80.494 41.32C80.2167 41.128 79.8753 40.7867 79.47 40.296C79.0647 39.8053 78.7233 39.304 78.446 38.792C76.6753 40.52 75.438 41.384 74.734 41.384C74.222 41.384 73.39 40.8187 72.238 39.688C71.1073 38.5573 70.4033 37.64 70.126 36.936C69.8487 36.232 69.71 34.7173 69.71 32.392C69.71 30.0453 69.8487 28.52 70.126 27.816C70.4033 27.112 71.1073 26.1947 72.238 25.064C73.39 23.9333 74.222 23.368 74.734 23.368C75.4807 23.368 76.686 24.136 78.35 25.672L78.734 23.752H81.87ZM77.422 28.648C77.2727 28.3707 76.9633 28.0933 76.494 27.816C76.046 27.5173 75.7047 27.368 75.47 27.368C75.2353 27.368 74.9793 27.5067 74.702 27.784C74.446 28.0613 74.2753 28.3173 74.19 28.552C73.9127 28.936 73.774 30.216 73.774 32.392C73.774 34.5467 73.9127 35.816 74.19 36.2C74.2753 36.4133 74.446 36.6693 74.702 36.968C74.9793 37.2453 75.2353 37.384 75.47 37.384C75.7047 37.384 76.046 37.2453 76.494 36.968C76.9633 36.6693 77.262 36.4027 77.39 36.168C77.5393 35.9333 77.6247 34.6853 77.646 32.424C77.646 30.1627 77.5713 28.904 77.422 28.648ZM93.4758 23.752H97.6998V39.944C97.6998 42.4827 97.5398 44.0613 97.2198 44.68C96.8998 45.2987 96.0571 46.1733 94.6918 47.304C93.3478 48.4347 92.3238 49 91.6198 49C90.9158 49 90.0091 48.6267 88.8998 47.88C87.7904 47.1547 86.9584 46.312 86.4038 45.352L89.6998 43.08L90.0518 43.496C90.8198 44.4987 91.3424 45 91.6198 45C91.9184 45 92.2278 44.8613 92.5478 44.584C92.8891 44.3067 93.1238 44.0293 93.2517 43.752C93.4011 43.4747 93.4758 42.472 93.4758 40.744V39.016C92.2811 40.168 91.3851 40.744 90.7878 40.744C90.2118 40.744 89.2518 40.1573 87.9078 38.984C86.5851 37.7893 85.9238 36.616 85.9238 35.464V29.928C85.9238 28.84 85.7958 27.9973 85.5398 27.4C85.2838 26.8027 84.8784 26.28 84.3238 25.832L87.8438 23.368C89.3798 24.584 90.1478 26.312 90.1478 28.552V35.016C90.1478 35.3787 90.3504 35.7627 90.7558 36.168C91.1611 36.552 91.5131 36.744 91.8118 36.744C92.1104 36.744 92.6651 36.3067 93.4758 35.432V23.752ZM114.093 24.072L114.125 25.448V41H109.709V27.304C109.709 25.512 109.581 24.2533 109.325 23.528C109.09 22.8027 108.578 21.928 107.789 20.904L111.629 18.216C112.247 18.6213 112.823 19.3147 113.357 20.296C115.042 18.9093 116.183 18.216 116.781 18.216C117.378 18.216 118.317 18.7813 119.597 19.912C120.898 21.0213 121.709 21.8107 122.029 22.28C122.349 22.728 122.509 23.3253 122.509 24.072V41H118.061V24.712C118.061 24.52 117.975 24.2853 117.805 24.008C117.655 23.7093 117.41 23.3787 117.069 23.016C116.749 22.6533 116.439 22.472 116.141 22.472C115.863 22.472 115.511 22.6427 115.085 22.984C114.658 23.304 114.327 23.6667 114.093 24.072ZM130.238 37.224C130.579 37.544 130.846 37.704 131.038 37.704C131.23 37.704 131.486 37.544 131.806 37.224C132.147 36.904 132.392 36.616 132.542 36.36C132.819 35.8907 132.958 34.568 132.958 32.392C132.958 30.216 132.819 28.8827 132.542 28.392C132.392 28.136 132.147 27.848 131.806 27.528C131.486 27.208 131.23 27.048 131.038 27.048C130.846 27.048 130.579 27.208 130.238 27.528C129.918 27.848 129.683 28.136 129.534 28.392C129.256 28.8613 129.118 30.184 129.118 32.36C129.118 34.536 129.256 35.8693 129.534 36.36C129.683 36.616 129.918 36.904 130.238 37.224ZM133.918 39.816C132.616 40.8613 131.656 41.384 131.038 41.384C130.419 41.384 129.448 40.8613 128.126 39.816C126.824 38.7707 126.024 37.992 125.726 37.48C125.278 36.6907 125.054 34.984 125.054 32.36C125.054 29.736 125.278 28.04 125.726 27.272C126.024 26.76 126.824 25.9813 128.126 24.936C129.448 23.8907 130.419 23.368 131.038 23.368C131.656 23.368 132.616 23.8907 133.918 24.936C135.24 25.9813 136.051 26.76 136.35 27.272C136.798 28.04 137.022 29.736 137.022 32.36C137.022 34.984 136.798 36.6907 136.35 37.48C136.051 37.992 135.24 38.7707 133.918 39.816ZM158.257 28.552V31.304C158.257 33.864 158.118 35.4533 157.841 36.072C157.585 36.6907 156.774 37.736 155.409 39.208C154.043 40.6587 153.041 41.384 152.401 41.384C151.633 41.384 150.385 40.1787 148.657 37.768C146.929 40.1787 145.681 41.384 144.913 41.384C144.273 41.384 143.259 40.648 141.873 39.176C140.507 37.704 139.697 36.6373 139.441 35.976C139.185 35.3147 139.057 33.7573 139.057 31.304V23.752H143.281V31.304C143.281 33.544 143.355 34.8667 143.505 35.272C143.654 35.6773 143.878 36.0827 144.177 36.488C144.475 36.872 144.721 37.064 144.913 37.064C145.105 37.064 145.339 36.872 145.617 36.488C145.915 36.0827 146.139 35.688 146.289 35.304C146.459 34.92 146.545 33.9707 146.545 32.456V23.752H150.769V31.304C150.769 33.544 150.843 34.8667 150.993 35.272C151.142 35.6773 151.366 36.0827 151.665 36.488C151.963 36.872 152.209 37.064 152.401 37.064C152.593 37.064 152.827 36.872 153.105 36.488C153.403 36.0827 153.627 35.688 153.777 35.304C153.947 34.92 154.033 33.5867 154.033 31.304V29.928C154.033 28.0933 153.606 26.728 152.753 25.832L155.953 23.368C157.489 24.584 158.257 26.312 158.257 28.552Z" fill="white"/>
</g>
</g>
<defs>
<filter id="filter0_dii_1191_1138" x="0" y="0" width="205" height="72" filterUnits="userSpaceOnUse" color-interpolation-filters="sRGB">
<feFlood flood-opacity="0" result="BackgroundImageFix"/>
<feColorMatrix in="SourceAlpha" type="matrix" values="0 0 0 0 0 0 0 0 0 0 0 0 0 0 0 0 0 0 127 0" result="hardAlpha"/>
<feOffset dy="6"/>
<feGaussianBlur stdDeviation="2.5"/>
<feComposite in2="hardAlpha" operator="out"/>
<feColorMatrix type="matrix" values="0 0 0 0 0 0 0 0 0 0 0 0 0 0 0 0 0 0 0.4 0"/>
<feBlend mode="normal" in2="BackgroundImageFix" result="effect1_dropShadow_1191_1138"/>
<feBlend mode="normal" in="SourceGraphic" in2="effect1_dropShadow_1191_1138" result="shape"/>
<feColorMatrix in="SourceAlpha" type="matrix" values="0 0 0 0 0 0 0 0 0 0 0 0 0 0 0 0 0 0 127 0" result="hardAlpha"/>
<feOffset dy="4"/>
<feComposite in2="hardAlpha" operator="arithmetic" k2="-1" k3="1"/>
<feColorMatrix type="matrix" values="0 0 0 0 1 0 0 0 0 1 0 0 0 0 1 0 0 0 0.2 0"/>
<feBlend mode="normal" in2="shape" result="effect2_innerShadow_1191_1138"/>
<feColorMatrix in="SourceAlpha" type="matrix" values="0 0 0 0 0 0 0 0 0 0 0 0 0 0 0 0 0 0 127 0" result="hardAlpha"/>
<feOffset dy="-4"/>
<feComposite in2="hardAlpha" operator="arithmetic" k2="-1" k3="1"/>
<feColorMatrix type="matrix" values="0 0 0 0 0 0 0 0 0 0 0 0 0 0 0 0 0 0 0.25 0"/>
<feBlend mode="normal" in2="effect2_innerShadow_1191_1138" result="effect3_innerShadow_1191_1138"/>
</filter>
<filter id="filter1_d_1191_1138" x="39.32" y="15" width="124.937" height="44" filterUnits="userSpaceOnUse" color-interpolation-filters="sRGB">
<feFlood flood-opacity="0" result="BackgroundImageFix"/>
<feColorMatrix in="SourceAlpha" type="matrix" values="0 0 0 0 0 0 0 0 0 0 0 0 0 0 0 0 0 0 127 0" result="hardAlpha"/>
<feOffset dy="4"/>
<feGaussianBlur stdDeviation="3"/>
<feComposite in2="hardAlpha" operator="out"/>
<feColorMatrix type="matrix" values="0 0 0 0 0 0 0 0 0 0 0 0 0 0 0 0 0 0 0.4 0"/>
<feBlend mode="normal" in2="BackgroundImageFix" result="effect1_dropShadow_1191_1138"/>
<feBlend mode="normal" in="SourceGraphic" in2="effect1_dropShadow_1191_1138" result="shape"/>
</filter>
</defs>
</svg>
